<?xml version="1.0" encoding="UTF-8"?><svg id="Capa_1" xmlns="http://www.w3.org/2000/svg" xmlns:xlink="http://www.w3.org/1999/xlink" viewBox="0 0 50 50"><defs><style>.cls-1{fill:url(#Degradado_sin_nombre_5);}</style><linearGradient id="Degradado_sin_nombre_5" x1="2.56" y1="25" x2="47.44" y2="25" gradientUnits="userSpaceOnUse"><stop offset="0" stop-color="#ed7325"/><stop offset="1" stop-color="#f9b519"/></linearGradient></defs><path class="cls-1" d="M29.6,40.36h-9.03c-1.13.01-2.25-.76-2.24-1.99.01-3.07-1.18-5.86-3.23-8.08-4.95-5.35-4.57-13.69.58-18.66,5.22-5.03,13.5-5.01,18.68.05,5.16,5.04,5.45,13.37.44,18.73-1.99,2.13-3.13,4.87-3.12,7.85,0,1.12-.9,2.09-2.08,2.09ZM28.3,36.92c.3-3.28,1.61-6.2,3.71-8.56,3.93-3.9,3.9-10.18.09-14.06s-9.97-3.98-13.91-.26-4.24,9.94-.5,13.99c2.3,2.43,3.72,5.53,4.03,8.9h6.59ZM20.14,41.76c-.97,0-1.6.68-1.55,1.27s.72,1.12,1.66,1.12h9.49c.97,0,1.66-.59,1.67-1.19,0-.57-.61-1.2-1.6-1.2h-9.66ZM11.11,17.37c.15-.9-.45-1.88-1.45-1.98l-5.11-.5c-1-.1-1.84.5-1.98,1.46-.12.84.43,1.84,1.4,1.94l5.16.51c1.03.1,1.83-.53,1.98-1.44ZM45.83,18.33c1.05-.1,1.73-.99,1.59-1.98s-.98-1.55-1.98-1.46l-4.9.47c-.99.09-1.71.81-1.67,1.83.03.77.73,1.72,1.73,1.62l5.23-.48ZM39.57,28.45c-.78-.66-1.93-.44-2.5.34s-.37,1.77.39,2.41l3.92,3.3c.76.64,1.9.35,2.41-.36.56-.77.43-1.76-.34-2.41l-3.88-3.28ZM12.48,31.26c.78-.66,1.03-1.64.44-2.47-.55-.78-1.72-.99-2.49-.34l-3.86,3.26c-.8.67-.95,1.78-.27,2.55s1.77.75,2.6.04l3.58-3.04ZM17.37,2.09c-.35-.9-1.33-1.29-2.2-.99-.76.26-1.4,1.21-1.06,2.08l1.92,4.99c.35.9,1.34,1.3,2.21.97.72-.27,1.38-1.17,1.03-2.1l-1.9-4.95ZM35.87,3.27c.35-.92-.22-1.89-1.06-2.17s-1.8.04-2.15.92l-1.93,4.97c-.35.91.24,1.87,1.08,2.17s1.81-.09,2.17-1.02l1.88-4.86ZM29.19,47.28c0-.83-.64-1.72-1.58-1.72h-5.26c-.93,0-1.54.92-1.53,1.72s.66,1.69,1.6,1.7l5.03.02c1.04,0,1.74-.81,1.75-1.72ZM31.09,15.99c-.7-.74-1.74-.86-2.5-.18-.65.57-.84,1.71-.14,2.41,1.61,1.61,1.68,4.12.05,5.75-.73.74-.59,1.93.15,2.52.82.65,1.82.48,2.55-.33,2.65-2.93,2.59-7.32-.1-10.17Z"/></svg>