<?xml version="1.0" encoding="UTF-8"?><svg id="Capa_1" xmlns="http://www.w3.org/2000/svg" xmlns:xlink="http://www.w3.org/1999/xlink" viewBox="0 0 50 50"><defs><style>.cls-1{fill:url(#Degradado_sin_nombre_5);}</style><linearGradient id="Degradado_sin_nombre_5" x1="2.52" y1="25" x2="47.48" y2="25" gradientUnits="userSpaceOnUse"><stop offset="0" stop-color="#ed7325"/><stop offset="1" stop-color="#f9b519"/></linearGradient></defs><path class="cls-1" d="M5.55,23.48v3s3.68.04,3.68.04c1.34.02.95,3.26,3.37,6.8.51.74.38,1.6-.24,2.22l-2.17,2.16,2.08,2.09,2.28-2.27c.5-.5,1.35-.6,1.95-.2,1.23.82,2.5,1.28,3.8,2.01,1.12.64,2.05,1.94,3.06,2.88l.19,2.2,1.55.08c.94.05,1.49.86,1.43,1.68-.08.99-.92,1.36-1.9,1.34l-2.57-.05c-.78-.02-1.52-.53-1.54-1.39l-.06-2.5c-.43-.45-1.18-1.37-1.69-1.63l-2.9-1.45-2.61,2.59c-.51.51-1.49.45-2-.06l-4.16-4.16c-.65-.65-.72-1.57-.05-2.25l2.45-2.47c-.8-1.56-1.36-2.91-1.89-4.63l-3.48-.02c-.75,0-1.58-.57-1.58-1.38l-.02-6.08c0-.75.6-1.52,1.41-1.53l3.67-.04c.53-1.72,1.1-3.08,1.88-4.64l-2.54-2.58c-.5-.51-.45-1.49.05-2l4.15-4.16c.66-.66,1.58-.72,2.25-.05l2.46,2.44c1.56-.8,2.92-1.35,4.63-1.88l.05-3.67c.01-.83.78-1.4,1.53-1.4h5.92c.73,0,1.52.58,1.53,1.4l.03,3.64c1.6.54,3.08,1.12,4.65,1.92l2.47-2.46c.57-.57,1.53-.64,2.13-.04l4.37,4.39c.45.45.37,1.46-.05,1.88l-2.58,2.61c.81,1.54,1.37,2.9,1.9,4.63l3.46.02c.93,0,1.6.65,1.6,1.57v4.39c0,.9-.71,1.55-1.5,1.55-.83,0-1.51-.64-1.51-1.54v-2.97s-3.11.03-3.11.03c-2.36.03-1.17-2.84-3.95-6.86-.53-.76-.4-1.59.24-2.23l2.16-2.15-2.07-2.09-2.4,2.37c-.56.56-1.5.38-2.1-.03-3.59-2.46-6.71-1.84-6.71-3.44v-3.56s-3.01.02-3.01.02v3.54c-.02,1.58-3.22,1.02-6.57,3.35-.94.65-1.8.64-2.61-.19l-2.03-2.06-2.08,2.09,2.36,2.4c.56.57.37,1.51-.04,2.11-2.42,3.53-1.88,6.71-3.45,6.72h-3.54ZM25.01,15.99c-4.96,0-8.99,4.02-8.99,8.99s4.02,8.99,8.99,8.99,8.99-4.02,8.99-8.99-4.02-8.99-8.99-8.99ZM25,30.96c-3.3,0-5.98-2.68-5.98-5.98s2.68-5.98,5.98-5.98,5.98,2.68,5.98,5.98-2.68,5.98-5.98,5.98ZM33.04,47.05l13.92-13.92c.66-.66.63-1.56.17-2.1-.49-.58-1.5-.84-2.09-.25l-13.03,13.03-6.1-6.07c-.6-.6-1.8-.23-2.14.34-.38.62-.35,1.42.22,1.98l7.09,7.07c.52.52,1.5.38,1.96-.08Z"/></svg>