<?xml version="1.0" encoding="UTF-8"?><svg id="Capa_1" xmlns="http://www.w3.org/2000/svg" xmlns:xlink="http://www.w3.org/1999/xlink" viewBox="0 0 50 50"><defs><style>.cls-1{fill:url(#Degradado_sin_nombre_5);}</style><linearGradient id="Degradado_sin_nombre_5" x1="1" y1="25" x2="49" y2="25" gradientUnits="userSpaceOnUse"><stop offset="0" stop-color="#ed7325"/><stop offset="1" stop-color="#f9b519"/></linearGradient></defs><path class="cls-1" d="M7.83,1c.37.33.63.91.63,1.43l.02,1.38h12.76s.05-1.93.05-1.93c0-.24.47-.78.69-.88h6.11c.91.73.57,1.56.66,2.81h12.77s.07-1.93.07-1.93c0-.25.42-.77.65-.89h6.75s0,6.83,0,6.83l-.84.63h-5.59c-.37,0-.99-.47-.99-.79l-.02-2-7.63.06c7.18,3.45,11.84,10.31,12.25,18.31l1.94.06c.25,0,.77.43.88.66v6.11s-.84.67-.84.67h-5.58c-.56-.05-1.02-.52-1.02-1.08v-5.37c0-.54.49-1.01,1-1.02l1.77-.02c-.49-8.87-6.89-16.28-15.61-18.04.1.87.07,1.98-.48,2.39-2.27.07-4.35.07-6.58,0-.39-.73-.43-1.47-.38-2.39-8.7,1.77-15.11,9.17-15.59,18.04l1.76.02c.51,0,1,.48,1,1.02v5.37c0,.55-.46,1.02-1.02,1.07H1.84s-.84-.73-.84-.73v-6.11c.34-.37.91-.62,1.43-.63l1.4-.03c.4-7.99,5.07-14.85,12.24-18.3l-7.63-.06v1.78c0,.5-.49,1-1.02,1.01H1.84s-.84-.69-.84-.69V1s6.83,0,6.83,0ZM2.85,2.85v3.75s3.73,0,3.73,0v-3.75s-3.73,0-3.73,0ZM23.12,2.85v3.75h3.75v-3.75h-3.75ZM43.42,2.85v3.75s3.73,0,3.73,0v-3.75s-3.73,0-3.73,0ZM6.58,25.93h-3.73v3.73h3.73v-3.73ZM47.15,25.93h-3.73v3.73h3.73v-3.73ZM31.65,49h-.57s-.65-.85-.65-.85v-7.62s-10.87,0-10.87,0v7.62s-.71.85-.71.85h-.57s-.56-.71-.56-.71l-.03-8.01c-1.25-.82-1.91-2.19-1.33-3.56.54-1.28,1.88-2.01,3.48-1.73-.65-3.07-2.2-5.38-4.45-7.52l1.66-3.22c.18-.35.97-.53,1.28-.36.38.2.56.95.35,1.32l-1.06,1.88c2.08,2.2,3.53,4.77,4.1,7.85h6.57c.57-3.08,2.03-5.65,4.09-7.85l-6.42-11.64-.04,6.89c1.66.61,2.51,2.08,2.17,3.7-.29,1.43-1.59,2.52-3.09,2.52s-2.9-1.17-3.13-2.71.62-2.93,2.21-3.51l-.03-6.9-2.09,3.78c-.24.44-.91.66-1.33.44-.34-.18-.54-.88-.33-1.25l3.89-7.06c.11-.21.59-.51.82-.52s.7.3.83.54l8.49,15.4c.18.33.09.94-.15,1.18-2.05,1.96-3.5,4.33-3.94,7,1.79-.22,3.02.64,3.47,1.91.49,1.37-.22,2.59-1.38,3.42l-.04,7.77c0,.29-.42.83-.62.93ZM26.32,25.39c0-.73-.59-1.32-1.32-1.32s-1.32.59-1.32,1.32.59,1.32,1.32,1.32,1.32-.59,1.32-1.32ZM31.06,38.71c.57,0,1-.65.91-1.13-.08-.42-.56-.79-1.08-.79h-11.76c-.63,0-1.08.44-1.1.99,0,.35.46.92.92.92h12.11ZM19.43,20.92c-.5,0-.91.41-.91.91s.41.91.91.91.91-.41.91-.91-.41-.91-.91-.91Z"/></svg>