<?xml version="1.0" encoding="UTF-8"?><svg id="Capa_1" xmlns="http://www.w3.org/2000/svg" xmlns:xlink="http://www.w3.org/1999/xlink" viewBox="0 0 50 50"><defs><style>.cls-1{fill:url(#Degradado_sin_nombre_53);}</style><linearGradient id="Degradado_sin_nombre_53" x1="1" y1="25" x2="49" y2="25" gradientUnits="userSpaceOnUse"><stop offset="0" stop-color="#1d3c6f"/><stop offset=".26" stop-color="#1d3c6f"/><stop offset=".76" stop-color="#03769c"/><stop offset="1" stop-color="#0090c2"/></linearGradient></defs><path class="cls-1" d="M1,18.72v-6.92c.3-2.08,1.95-3.73,4.13-3.74l3.67-.02v-1.04c.03-1.39,1.1-2.48,2.54-2.48h27.34c1.43,0,2.51,1.09,2.53,2.48v1.04s3.68.02,3.68.02c2.19.01,3.87,1.68,4.12,3.85l-.04,6.51c-.1,2.02-1.7,3.58-3.7,3.82v16.91s-.09.76-.09.76l.91,2.74c.25.77-.14,1.56-.85,1.79-.77.25-1.53-.13-1.8-.94l-3.1-9.35c-.22-.66-.05-1.27.47-1.65s1.12-.34,1.67,0v-10.2s-2.53,0-2.53,0v16.41s-29.89,0-29.89,0v-16.42s-3.37.01-3.37.01v10.87c.54.01,1,.19,1.25.52.29.38.4.85.25,1.32l-3.14,9.5c-.27.81-1.11,1.15-1.86.86-.69-.27-1.02-1.04-.77-1.79l1.48-4.45v-17.07c-1.58-.52-2.61-1.82-2.91-3.34ZM39.6,6.97c0-.53-.42-.85-.93-.85H11.33c-.55,0-.94.38-.93.89v1.03s29.21,0,29.21,0v-1.07ZM38.35,37.12v-18.01c-.1-1.23-.49-2.31-1.14-3.31l-1.46-1.61H14.24s-1.46,1.61-1.46,1.61c-.63.98-1,2.02-1.14,3.22v18.1s26.71,0,26.71,0ZM36.05,17.46c0-.37-.3-.78-.77-.78H14.81c-.51,0-.86.35-.86.78,0,.45.32.81.85.81h20.45c.55,0,.8-.44.8-.81Z"/></svg>