<?xml version="1.0" encoding="UTF-8"?><svg id="Capa_1" xmlns="http://www.w3.org/2000/svg" xmlns:xlink="http://www.w3.org/1999/xlink" viewBox="0 0 50 50"><defs><style>.cls-1{fill:url(#Degradado_sin_nombre_53);}</style><linearGradient id="Degradado_sin_nombre_53" x1="1" y1="25" x2="49" y2="25" gradientUnits="userSpaceOnUse"><stop offset="0" stop-color="#1d3c6f"/><stop offset=".26" stop-color="#1d3c6f"/><stop offset=".76" stop-color="#03769c"/><stop offset="1" stop-color="#0090c2"/></linearGradient></defs><path class="cls-1" d="M40.98,30.98H9.02s0-17.93,0-17.93l-2.02-.1V.99s36.02,0,36.02,0v11.93s-2.02.07-2.02.07v18ZM37.03,27.03V9.02s2.01-.04,2.01-.04l-.02-4.01H10.97s0,4.03,0,4.03l1.99.07v17.97s24.07,0,24.07,0ZM1,47.02c0,1.09.88,1.98,1.97,1.98h37.81c4.48,0,7.95-3.22,8.2-7.57.23-4-2.87-8.32-7.34-8.32l-38.67-.06c-1.09,0-1.98.88-1.98,1.97h0c0,1.09.88,1.97,1.97,1.98l38.65.04c2.29,0,3.5,2.31,3.42,4.16-.08,1.71-1.31,3.81-3.47,3.81l-38.6.03c-1.09,0-1.97.88-1.97,1.97v.02ZM5.4,39.02c-1.1,0-1.98.89-1.98,1.98s.89,1.98,1.98,1.98,1.98-.89,1.98-1.98-.89-1.98-1.98-1.98ZM41.01,39.02c-1.1,0-1.98.89-1.98,1.98s.89,1.98,1.98,1.98,1.98-.89,1.98-1.98-.89-1.98-1.98-1.98ZM14.3,39.02c-1.1,0-1.98.89-1.98,1.98s.89,1.98,1.98,1.98,1.98-.89,1.98-1.98-.89-1.98-1.98-1.98ZM32.11,39.02c-1.1,0-1.98.89-1.98,1.98s.89,1.98,1.98,1.98,1.98-.89,1.98-1.98-.89-1.98-1.98-1.98ZM23.2,39.02c-1.1,0-1.99.89-1.99,1.99s.89,1.99,1.99,1.99,1.99-.89,1.99-1.99-.89-1.99-1.99-1.99ZM27.12,6.84h-5.33l-1.57,10.18,3.45-.66-3.45,8.79,9.56-11.9-4.78.55,2.12-6.96Z"/></svg>