<?xml version="1.0" encoding="UTF-8"?><svg id="Capa_1" xmlns="http://www.w3.org/2000/svg" xmlns:xlink="http://www.w3.org/1999/xlink" viewBox="0 0 50 50"><defs><style>.cls-1{fill:url(#Degradado_sin_nombre_53);}</style><linearGradient id="Degradado_sin_nombre_53" x1="4.24" y1="25" x2="45.76" y2="25" gradientUnits="userSpaceOnUse"><stop offset="0" stop-color="#1d3c6f"/><stop offset=".26" stop-color="#1d3c6f"/><stop offset=".76" stop-color="#03769c"/><stop offset="1" stop-color="#0090c2"/></linearGradient></defs><path class="cls-1" d="M33.62,48.94c-.12.21-.64.66-.83.54l-.81-.49-6.93-11.97-6.89,11.7c-.13.22-.58.57-.82.6s-.78-.33-.91-.56l-3.45-6.07-7.87-.02c-.39,0-1.06-.8-.83-1.21l7.31-13c-1.09-.66-1.35-1.44-1.21-2.42l.59-4.09-3.03-3.35c-.8-.89-.55-2.04.21-2.83l2.9-3.03-.55-4.28c-.14-1.07.48-2.1,1.55-2.29l4.42-.78,2.25-3.97c.61-1.09,1.74-1.11,2.74-.62l3.72,1.83,4.12-1.88c.91-.42,2.03.07,2.47.88l2.11,3.93,4.76,1c.8.17,1.31,1.4,1.2,2.13l-.63,4.38,2.79,2.97c.96,1.02.99,2.19,0,3.22l-2.82,2.94.49,4.37c.09.76-.3,1.54-1.06,2.13l7.16,12.55-.05,1.01c-.01.23-.74.39-.98.39l-7.62.02-3.49,6.25ZM29.9,32.6l2.1-3.84c.19-.36.92-.98,1.28-1.04l4.47-.73-.54-5.45,3.65-3.81-3.58-3.96.7-5.39-5.25-1.09-2.67-4.76c-1.54.73-3.18,1.59-4.86,2.12-1.64-.47-3.27-1.43-4.83-2.18l-2.64,4.61c-1.68.44-3.46.72-5.35,1.04l.56,5.43-3.61,3.9,3.02,3.32c.27.3.49,1.2.43,1.58l-.63,4.42,5.4,1.05,2.57,4.73,3.88-1.85c.66-.31,1.68-.22,2.33.11l3.57,1.79ZM22.96,33.33l-2.12.94c-.87.38-1.98-.11-2.41-.91l-2.13-3.93-2.78-.51-6.69,11.85,7.23.02,3.3,5.6,6.42-11.09c-.1-.56-.49-1.41-.81-1.96ZM32.77,46.59l3.3-5.8h7.24s-6.63-11.68-6.63-11.68l-2.94.49-2.16,3.9c-1.35,2.44-4.08-.38-7.01-1.19l8.19,14.28ZM34.7,17.53c0,5.33-4.32,9.66-9.66,9.66s-9.66-4.32-9.66-9.66,4.32-9.66,9.66-9.66,9.66,4.32,9.66,9.66ZM32.8,17.53c0-4.28-3.47-7.75-7.75-7.75s-7.75,3.47-7.75,7.75,3.47,7.75,7.75,7.75,7.75-3.47,7.75-7.75ZM24.51,20.62l4.86-4.88c.33-.33.44-1.13.2-1.45-.25-.35-1.25-.47-1.54-.18l-4.5,4.51-1.44-1.42c-.27-.27-1.06-.34-1.37-.14s-.49,1.23-.19,1.53l2.46,2.43c.27.26,1.22-.12,1.52-.42Z"/></svg>