<?xml version="1.0" encoding="UTF-8"?><svg id="Capa_1" xmlns="http://www.w3.org/2000/svg" xmlns:xlink="http://www.w3.org/1999/xlink" viewBox="0 0 50 50"><defs><style>.cls-1{fill:url(#Degradado_sin_nombre_5);}</style><linearGradient id="Degradado_sin_nombre_5" x1=".57" y1="25" x2="49.43" y2="25" gradientUnits="userSpaceOnUse"><stop offset="0" stop-color="#ed7325"/><stop offset="1" stop-color="#f9b519"/></linearGradient></defs><path class="cls-1" d="M30.88,37.71l-4.21,1.87c-.85.38,0,2.75-.43,3.88-.38,1.02-4.01.78-6.44.71-.76-.02-1.37-.73-1.4-1.45l-.14-3.23c-1.71-.59-2.99-1.09-4.55-1.84-.41-.2-1,0-1.29.3l-2.23,2.2c-1.94-.69-4.21-3.09-5.38-4.86-.78-1.18,2.08-2.33,2.41-3.85l-1.47-3.56c-.22-.52-.44-1.61-1.17-1.58-.92.04-2.27.11-3.11-.06-.44-.09-.91-1.15-.91-1.61l.04-4.88c0-.71.78-1.35,1.45-1.37l3.14-.09,1.41-3.53c.19-.48.87-1.62.49-2.01l-1.91-1.94c-1.36-1.38,1.18-3.41,3.27-5.31.71-.65,1.55-1.11,2.41-.29l2.03,1.95c.48.2,1.49-.4,1.99-.6l3.43-1.42.04-2.83c0-.37.16-1.12.45-1.31,1.1-.74,7.22-.61,7.38.22.51,2.58-.44,3.79,1.02,4.28s2.5.93,3.85,1.58c1.24.59,1.94-1.35,3.6-2.45,1.13.16,1.9,1.02,2.65,1.76,1.54,1.52,3.53,3.19,2.44,4.29l-2.14,2.15c-.32.33.15,1.13.33,1.47.7,1.3,1.07,2.43,1.6,3.93,2.11.28,4.5-.45,4.65,1.56.19,2.52.34,6.53-.99,6.54l-2.52.02c-1.86.01-1.45,2-2.91,4.53l-1.42-1.59.65-.4-.88.14c-.14.02-1.77-1.44-2.28-2.62.29-.78.48-1.23.57-1.78.82-5.19-1.49-10.17-5.82-12.73s-10.27-2.07-14.12,1.29-5.2,8.83-3.29,14.07c.74,2.03,2.7,3.97,4.59,5.26,3.15,2.16,7.47,2.71,11.07,1.14l4.05,4.06ZM41.4,45.32c-1.19-1.02-.31-2.89.43-3.91s1.97-2.06,3.19-1.33l4.1,2.45c.29-1.22.47-2.5.06-3.6-1.33-3.55-5.26-5.09-8.75-3.47l-9.53-9.53c1.11-2.02.92-4.09-.28-5.86-2.06-2.94-6.86-4.41-9.72-1.84l3.5,2.27c.93.6,1.52,1.53,1.12,2.77-.32,1-1.02,2.04-1.83,2.75-.75.66-1.82.61-2.61.12l-3.66-2.26c-.64,1.79-.44,3.61.62,5.04,1.92,2.59,5.17,3.39,8.06,2.01l9.47,9.51c-1.22,2.35-.84,4.89.98,6.74,2.28,2.31,6.63,3.38,8.98.97-1.45-1.02-2.92-1.78-4.13-2.82Z"/></svg>