<?xml version="1.0" encoding="UTF-8"?><svg id="Capa_1" xmlns="http://www.w3.org/2000/svg" xmlns:xlink="http://www.w3.org/1999/xlink" viewBox="0 0 50 50"><defs><style>.cls-1{fill:url(#Degradado_sin_nombre_5);}</style><linearGradient id="Degradado_sin_nombre_5" x1="1" y1="25" x2="49" y2="25" gradientUnits="userSpaceOnUse"><stop offset="0" stop-color="#ed7325"/><stop offset="1" stop-color="#f9b519"/></linearGradient></defs><path class="cls-1" d="M13.6,11.88l2.65-1.66v6.6s7.78-4.64,7.78-4.64l3.14-1.96v6.61s6.57-3.89,6.57-3.89V1s15.26,0,15.26,0v48s-48,0-48,0v-29.56s.68-.4.68-.4l11.93-7.16ZM11.89,24.5v-6.57s-6.53,3.86-6.53,3.86v22.84s39.26,0,39.26,0V5.37s-6.51,0-6.51,0v9.93s-1.93,1.12-1.93,1.12l-10.17,6.1-3.19,1.99v-6.61s-8.12,4.87-8.12,4.87l-2.82,1.73ZM9.72,27.18v4.38h4.37v-4.38h-4.37ZM18.45,27.18v4.38h4.37v-4.38h-4.37ZM27.17,27.18v4.38h4.37v-4.38h-4.37ZM35.91,27.18v4.38h4.37v-4.38h-4.37ZM9.72,35.92v4.38h4.37v-4.38h-4.37ZM18.45,35.92v4.38h4.37v-4.38h-4.37ZM27.17,35.92v4.38h4.37v-4.38h-4.37ZM35.91,35.92v4.38h4.37v-4.38h-4.37Z"/></svg>