<?xml version="1.0" encoding="UTF-8"?><svg id="Capa_1" xmlns="http://www.w3.org/2000/svg" xmlns:xlink="http://www.w3.org/1999/xlink" viewBox="0 0 50 50"><defs><style>.cls-1{fill:url(#Degradado_sin_nombre_5);fill-rule:evenodd;}</style><linearGradient id="Degradado_sin_nombre_5" x1="1" y1="25" x2="49" y2="25" gradientUnits="userSpaceOnUse"><stop offset="0" stop-color="#ed7325"/><stop offset="1" stop-color="#f9b519"/></linearGradient></defs><path class="cls-1" d="M47.63,5.85l-6.82-3.94c-1.38-.79-2.79-.43-3.59.96l-2.08,3.61H6.25c-2.88,0-5.25,2.59-5.25,5.47v31.33c0,2.89,2.34,5.22,5.22,5.22h31.31c2.88,0,5.49-2.37,5.49-5.25v-24.19s5.56-9.63,5.56-9.63c.8-1.39.41-2.79-.96-3.59ZM40.4,43.25c0,1.44-1.43,2.64-2.87,2.64H6.22c-1.44,0-2.61-1.17-2.61-2.61V11.95c0-1.44,1.2-2.84,2.64-2.84h27.36s-2.96,5.13-2.96,5.13H11.51c-.73,0-1.31.59-1.31,1.31s.59,1.31,1.31,1.31h17.63s-3.03,5.25-3.03,5.25h-14.59c-.73,0-1.31.59-1.31,1.31s.59,1.31,1.31,1.31h13.08l-1.96,3.39-.02,1.86h-11.1c-.73,0-1.31.59-1.31,1.31s.59,1.31,1.31,1.31h11.08s-.04,5.25-.04,5.25h-11.04c-.73,0-1.31.59-1.31,1.31s.59,1.31,1.31,1.31h12c.32,0,1.01-.25,1.3-.4l9.19-5.41,6.4-11.09v19.64ZM31.86,33.15l-6.86,4.01.04-7.95,9.85-17.06,6.82,3.94-9.85,17.06ZM45.65,9.26l-2.63,4.55-6.82-3.94,2.63-4.55c.61-1.14.7-1.16,1.79-.48l4.55,2.63c1.11.65,1.16.62.48,1.79Z"/></svg>