<?xml version="1.0" encoding="UTF-8"?><svg id="Capa_1" xmlns="http://www.w3.org/2000/svg" xmlns:xlink="http://www.w3.org/1999/xlink" viewBox="0 0 50 50"><defs><style>.cls-1{fill:url(#Degradado_sin_nombre_53);}</style><linearGradient id="Degradado_sin_nombre_53" x1="2.5" y1="25" x2="47.5" y2="25" gradientUnits="userSpaceOnUse"><stop offset="0" stop-color="#1d3c6f"/><stop offset=".26" stop-color="#1d3c6f"/><stop offset=".76" stop-color="#03769c"/><stop offset="1" stop-color="#0090c2"/></linearGradient></defs><path class="cls-1" d="M40.2,47.5h-.79c-.89-.15-1.73-.49-2.43-1.19l-11.98-11.97-12.02,12.01c-.68.68-1.53,1-2.39,1.15h-.79c-.95-.12-1.8-.55-2.52-1.27l-3.68-3.69c-.63-.64-.93-1.43-1.1-2.25v-.97c.18-.84.49-1.64,1.15-2.3l12.02-12.02-8.07-8.07c-.19-.19-.3-.42-.43-.66L2.5,4.09v-.62c.31-.75,1.08-1.19,1.9-.84l12.24,4.69,8.35,8.34,12.03-12.01c1.53-1.53,3.99-1.56,5.5-.05l3.86,3.86c1.51,1.51,1.48,3.97-.05,5.5l-12.01,12.03,12.01,12.03c1.54,1.55,1.51,3.94.06,5.51l-3.86,3.86c-.65.65-1.48,1.04-2.34,1.1ZM30.53,13.88l2.87,2.89c.5.5.36,1.36-.11,1.79s-1.2.49-1.74.06l-2.88-2.88-1.81,1.81,5.58,5.58,12.06-12.07c.52-.52.41-1.35-.07-1.82l-3.69-3.69c-.48-.48-1.3-.57-1.81-.07l-.95.94,2.79,2.8c.54.54.49,1.39-.03,1.89s-1.31.5-1.83-.02l-2.79-2.78-1.86,1.86.94.95c.49.53.48,1.31-.01,1.83-.45.46-1.28.57-1.79.07l-1-.98-1.87,1.87ZM13.53,8.96l-7.41-2.83,2.83,7.42,4.58-4.59ZM15.9,10.33l-1.86,1.86,24.81,24.81,1.86-1.86L15.9,10.33ZM12.18,14.05l-1.86,1.86,24.81,24.81,1.86-1.86L12.18,14.05ZM8.17,36.25l2.82,2.83c.52.52.41,1.36-.04,1.81-.52.51-1.33.52-1.86,0l-2.8-2.79-.83.85c-.5.51-.41,1.32.07,1.81l3.65,3.65c.49.49,1.31.66,1.86.11l12.07-12.06-5.58-5.59-1.92,1.91,2.79,2.79c.51.54.5,1.32.05,1.82s-1.34.62-1.86.09l-2.84-2.83-1.85,1.86.94.95c.53.54.47,1.38-.05,1.87s-1.32.48-1.86-.05l-.91-.9-1.85,1.86ZM40.78,44.43l3.67-3.67c.48-.47.57-1.31.08-1.81l-1.95-1.96-5.59,5.58,1.91,1.91c.52.52,1.35.49,1.88-.06Z"/></svg>