<?xml version="1.0" encoding="UTF-8"?><svg id="Capa_1" xmlns="http://www.w3.org/2000/svg" xmlns:xlink="http://www.w3.org/1999/xlink" viewBox="0 0 50 50"><defs><style>.cls-1{fill:url(#Degradado_sin_nombre_53);}</style><linearGradient id="Degradado_sin_nombre_53" x1="8.7" y1="25" x2="41.3" y2="25" gradientUnits="userSpaceOnUse"><stop offset="0" stop-color="#1d3c6f"/><stop offset=".26" stop-color="#1d3c6f"/><stop offset=".76" stop-color="#03769c"/><stop offset="1" stop-color="#0090c2"/></linearGradient></defs><path class="cls-1" d="M38.53,47.27c-.07.44-.1,1.03-.27,1.34s-1.17.51-1.46.31l-1.49-1.04c-.51-.36-.89-.99-1.14-1.5l-2.5-1.6c-1.19-.76-2.81-1.14-4.36-2.19-.75-.51-1.91-.94-2.52-1.55l-1.91-1.87c-.5-.49-1.02-1.44-1.34-2.09.18-.32.43-.72.46-.96.03-.27-.33-.73-.51-1.02l-1.87-3.08c-.35-.57-.25-1.53-1.27-1.65l-.21-1.15c-.45-.71-.89-1.37-1.19-2.09l-1.3-3.03c-.41-1.18-.97-2.2-1.94-3-.49-1.32-1.14-2.66-2.4-3.32-.82-.43-1.66-.97-2.3-1.53l.91-.64c.17-.12-.23-.67-.37-.82l-.43-.45c-.09-.1.16-.43.25-.56-.25-.33-.62-.77-.66-1.09-.11-.76,1.39-2.41,2.74-3.14.12.51.21,1.2.19,1.54l-.76.2c-.13.04.27.41.35.49l-.26.36c-.05.07.24.28.3.22.12-.12.41-.53.56-.46l.71.34c.15.07.51.1.67.14.15.04.88,1.96,1.46,1.23.27-.33.68-.83.78-1.12l.75-2.13c.26-.73,1.48-1.97,2.53-2.23,2.11-.52,3.99-1.82,4.95-3.82l.58-1.21c.34-.7-.26-1.44-.88-1.9l1.27-.2c2.31.74,1.82,2.19,3.18,2.71.78.29,1.15.8,1.22,1.58l.71.3c.18.07.1.52.1.87,0,.66,2.35,1.03,3.72-.14l.87.54c.18.12.65-.2.94-.38l2.52,1.29-1.8,2.91c.96,0,1.23.12,1.68.7l.29.37c.06.08-.1.37-.19.33l-.38-.18c-.79-.37-1.3-.38-2.05.14-.48.33-1.76.24-2.32.54-.9.47-1.82,1.13-2.59,1.68l-.77,2.27c-.08.23.19.87.07,1.06s-.52.37-.79.5c-.75.34-1.03.96-.74,1.64l-.58.46c-.14.11.29.55.47.68.49,1.96,2.36,3.23,2.11,3.55l-.55.71,2.21.37.48,1.28c.61,0,1.73.06,2.26-.1l1.75-1.36-.16,3.89c.97.76,1.67-.31,2.8.15l1.93,3.39c.1.18.34.73.21.89l-.58.71-.15,2.36c1.02,1.95-2.01,2.56-.38,3.92-.42.43-.73,1.03-.55,1.58.23.73.56,1.08,1.4,1.27-.6.91-1.28,1.8-2.01,2.57l.21.72c.05.16-.52.4-.69.52Z"/></svg>