<?xml version="1.0" encoding="UTF-8"?><svg id="Capa_1" xmlns="http://www.w3.org/2000/svg" xmlns:xlink="http://www.w3.org/1999/xlink" viewBox="0 0 50 50"><defs><style>.cls-1{fill:url(#Degradado_sin_nombre_53);}</style><linearGradient id="Degradado_sin_nombre_53" x1="1" y1="25" x2="49" y2="25" gradientUnits="userSpaceOnUse"><stop offset="0" stop-color="#1d3c6f"/><stop offset=".26" stop-color="#1d3c6f"/><stop offset=".76" stop-color="#03769c"/><stop offset="1" stop-color="#0090c2"/></linearGradient></defs><path class="cls-1" d="M26.87,48.46c-1.11.05-2.12-.26-3.16-.62l-12.69-4.38c-3.48-1.2-7.05-.77-10.01,1.57l.02-9.79,8.66-2.99c1.64-.64,3.34-.95,5.09-.68l11.19,1.29,7.19.85c.91.11,1.45,1.01,1.36,1.76-.1.8-.81,1.44-1.74,1.44h-4.34s-10.11,0-10.11,0c-.63,0-1.04.42-1.02.95.07,1.71,3.75.33,6.49,1.04,1.34.35,2.76,2.26,4.86,2.61,1.11.18,2.11-.01,3.05-.66l14.14-9.7c.99-.68,2.12-.66,2.82.3.56.77.46,1.93-.44,2.61l-17.34,13.07c-1.18.89-2.57,1.28-4,1.35ZM42.81,31c-.65-.46-1.46-.53-2.07-.24l-5.1,2.38c.48.78.66,1.36.71,2.27l6.46-4.41ZM27.16,38.86l1.65.86c.81.42,1.82-.21,2.45-.9l-2.8-.08c-.36,0-.72-.16-1.3.13ZM21.74,1.54c-1.42.03-2.61.92-2.88,2.35v19.91c.23,1.44,1.41,2.37,2.86,2.38h2s11.42-.03,11.42-.03c1.36,0,2.57-1.23,2.58-2.62l.03-16.45h-3.94c-1.09,0-1.87-.81-1.87-1.9V1.54s-7.87,0-7.87,0h-2.31ZM20.86,9.77c-.19-1.36,1.65-.95,3.85-.97l6.75-.05c.73,0,1.12.41,1.06,1.01-.05.48-.45.79-1.06.79l-6.69-.03c-2.09-.01-3.75.37-3.9-.75ZM21.98,15.73c-.61,0-1-.22-1.11-.71-.08-.37.09-1.07.64-1.08l5.73-.05c.62,0,1.01.2,1.12.62.17.6-.16,1.22-.99,1.22h-5.4ZM20.86,20.01c-.02-.28.06-.71.43-.83.78-.27,1.56-.09,2.26-.1l7.91-.04c.67,0,1.08.36,1.07.96-.01.36-.3.84-.86.84l-6.76.04c-.11,0-.24-.07-.34-.12h-.71c-1.21-.03-2.9.56-2.99-.75ZM33.83,1.96l-.06,3.29c1.16.04,2.07.12,3.22-.1l-3.16-3.2ZM24.56,20.76c.09.05.23.12.34.12-.08-.08-.22-.12-.34-.12Z"/></svg>