<?xml version="1.0" encoding="UTF-8"?><svg id="Capa_1" xmlns="http://www.w3.org/2000/svg" xmlns:xlink="http://www.w3.org/1999/xlink" viewBox="0 0 50 50"><defs><style>.cls-1{fill:url(#Degradado_sin_nombre_5);}</style><linearGradient id="Degradado_sin_nombre_5" x1="2.7" y1="25" x2="47.3" y2="25" gradientUnits="userSpaceOnUse"><stop offset="0" stop-color="#ed7325"/><stop offset="1" stop-color="#f9b519"/></linearGradient></defs><path class="cls-1" d="M30.6,15.35c0,4.61,3.74,8.35,8.35,8.35s8.35-3.74,8.35-8.35h-1.32l-5.36-10.67h5.53c.6,0,1.09-.49,1.09-1.09s-.49-1.09-1.09-1.09H3.79c-.6,0-1.09.49-1.09,1.09s.49,1.09,1.09,1.09h5.69l-5.36,10.67h-1.32c0,4.61,3.74,8.35,8.35,8.35s8.35-3.74,8.35-8.35h-1.32l-5.36-10.67h11.2v34.34c-6.16.35-11.54,3.6-14.78,8.42h15.56c.1.03.2.06.31.06s.21-.03.31-.06h15.56c-3.24-4.82-8.62-8.07-14.78-8.42V4.68h11.1l-5.36,10.67h-1.33ZM6.56,15.35l4.59-9.13,4.59,9.13H6.56ZM38.95,6.22l4.59,9.13h-9.17l4.59-9.13Z"/></svg>