<?xml version="1.0" encoding="UTF-8"?><svg id="Capa_1" xmlns="http://www.w3.org/2000/svg" xmlns:xlink="http://www.w3.org/1999/xlink" viewBox="0 0 50 50"><defs><style>.cls-1{fill:url(#Degradado_sin_nombre_53);}</style><linearGradient id="Degradado_sin_nombre_53" x1=".6" y1="25" x2="49.4" y2="25" gradientUnits="userSpaceOnUse"><stop offset="0" stop-color="#1d3c6f"/><stop offset=".26" stop-color="#1d3c6f"/><stop offset=".76" stop-color="#03769c"/><stop offset="1" stop-color="#0090c2"/></linearGradient></defs><path class="cls-1" d="M18.17,17.04l5.9-14.68c.34-.84,1.52-.84,1.86,0l5.9,14.68c.14.36.48.6.86.62l15.78,1.08c.9.06,1.26,1.19.57,1.76l-12.13,10.15c-.29.25-.42.64-.33,1.01l3.85,15.34c.22.87-.74,1.57-1.5,1.09l-13.4-8.4c-.32-.2-.74-.2-1.06,0l-13.4,8.4c-.76.48-1.72-.22-1.5-1.09l3.85-15.34c.09-.37-.03-.76-.33-1.01L.96,20.51c-.69-.58-.33-1.7.57-1.76l15.78-1.08c.38-.03.72-.27.86-.62Z"/></svg>