<?xml version="1.0" encoding="UTF-8"?><svg id="Capa_1" xmlns="http://www.w3.org/2000/svg" xmlns:xlink="http://www.w3.org/1999/xlink" viewBox="0 0 50 50"><defs><style>.cls-1{fill:url(#Degradado_sin_nombre_53);}</style><linearGradient id="Degradado_sin_nombre_53" x1="1.2" y1="25" x2="48.8" y2="25" gradientUnits="userSpaceOnUse"><stop offset="0" stop-color="#1d3c6f"/><stop offset=".26" stop-color="#1d3c6f"/><stop offset=".76" stop-color="#03769c"/><stop offset="1" stop-color="#0090c2"/></linearGradient></defs><path class="cls-1" d="M25.32,1l11.98,6.97.03,13.19,11.43,6.62.04,13.35c-.02.26-.21.98-.44,1.11l-11.6,6.77h-.78s-10.98-6.46-10.98-6.46l-11.06,6.46h-.79s-11.52-6.76-11.52-6.76c-.22-.16-.42-.87-.44-1.13l.04-13.35,11.43-6.62.03-13.19L24.74,1h.58ZM19.3,10.76l9.56-5.51-3.84-2.23-9.55,5.51,3.84,2.24ZM25.02,14.04l9.53-5.51-3.85-2.21-9.52,5.51,3.84,2.21ZM24.07,26.67v-11.03s-9.56-5.5-9.56-5.5v11.03s9.56,5.51,9.56,5.51ZM25.94,26.67l9.54-5.51v-11.03s-9.55,5.53-9.55,5.53v11.01ZM7.93,30.51l9.51-5.5-3.85-2.23-9.56,5.52,3.9,2.21ZM30.74,30.51l9.53-5.51-3.86-2.22-9.54,5.51,3.87,2.22ZM13.58,33.82l9.55-5.52-3.83-2.22-9.51,5.5,3.79,2.23ZM36.41,33.82l9.55-5.52-3.83-2.22-9.51,5.5,3.79,2.23ZM12.65,46.4l.02-10.98-9.55-5.5v11.05s9.53,5.43,9.53,5.43ZM24.08,40.92l-.03-11-9.54,5.51v11.03s9.57-5.54,9.57-5.54ZM35.47,46.4l.02-10.98-9.56-5.51v11.05s9.54,5.44,9.54,5.44ZM46.89,40.92l-.03-11-9.53,5.5v11.03s9.56-5.53,9.56-5.53ZM43.35,41.37c.3-.18.46-.97.26-1.31-.17-.3-.9-.47-1.2-.29l-3.47,1.99c-.36.2-.52.91-.32,1.29s.92.53,1.34.29l3.4-1.97ZM45.19,38.45c-.5,0-.91.41-.91.91s.41.91.91.91.91-.41.91-.91-.41-.91-.91-.91Z"/></svg>