<?xml version="1.0" encoding="UTF-8"?><svg id="Capa_1" xmlns="http://www.w3.org/2000/svg" xmlns:xlink="http://www.w3.org/1999/xlink" viewBox="0 0 50 50"><defs><style>.cls-1{fill:url(#Degradado_sin_nombre_53);}</style><linearGradient id="Degradado_sin_nombre_53" x1="5" y1="25" x2="45" y2="25" gradientUnits="userSpaceOnUse"><stop offset="0" stop-color="#1d3c6f"/><stop offset=".26" stop-color="#1d3c6f"/><stop offset=".76" stop-color="#03769c"/><stop offset="1" stop-color="#0090c2"/></linearGradient></defs><path class="cls-1" d="M30.88,23.01c3.53-2.04,5.92-5.85,5.92-10.21,0-6.51-5.29-11.8-11.8-11.8s-11.8,5.29-11.8,11.8c0,4.36,2.39,8.17,5.92,10.21-8.17,2.52-14.12,10.14-14.12,19.12,0,.6.02,1.15.08,1.68.04.42.3.8.68.99,5.54,2.75,12.2,4.2,19.25,4.2s13.71-1.45,19.25-4.2c.38-.19.64-.56.68-.99.05-.53.08-1.08.08-1.68,0-8.98-5.95-16.6-14.12-19.12ZM15.67,12.8c0-5.14,4.18-9.33,9.33-9.33s9.33,4.18,9.33,9.33-4.18,9.33-9.33,9.33-9.33-4.18-9.33-9.33ZM42.52,42.89c-5.07,2.38-11.11,3.64-17.52,3.64s-12.45-1.26-17.52-3.64c-.01-.24-.02-.5-.02-.76,0-8.71,6.39-15.93,14.72-17.29l1.1,1.87-3.02,14.48,4.73,2.66,4.73-2.66-3.02-14.48,1.1-1.87c8.33,1.35,14.72,8.58,14.72,17.29,0,.27,0,.52-.02.76Z"/></svg>