<svg xmlns="http://www.w3.org/2000/svg" viewBox="0 0 510 152.52"><path d="M84.49 47.51s-4.22-2.91-11.94-4.37c-10.22-1.93-32.02-1.66-40.76-17.61C27.42 17.47 28 10.97 28.15 5c0 0 3.92 2 14.68 3.18 7.19.79 41.83.52 41.66 39.33" style="fill:#5eb423"/><path d="M251.76 50.85v19.94c-45.43-18.63-43.83 46.88-.59 26.65 0 6.01.59 13.71.59 19.72-90.86 29.92-93.34-92.07-.01-66.31M96.31 18.66h32.26v101.35H96.31zm45.76.15h34.31v24.13h-34.31zm0 31.3h34.31v70.42h-34.31zM470.9 83.79c0 11.74-3.5 15.02-9.98 15.02s-8.08-6.39-8.08-6.39V74.64s1.62-6.38 8.08-6.38 9.98 3.28 9.98 15.02v.52Zm-10.05-34.04c-4.68 2.37-7.8 5.51-9.65 7.83v-7.67h-31.06v97.61h31.06v-39.2c1.89 2.34 5.05 5.6 9.65 8.29 7.76 4.53 43.02 5.54 44.15-27.05V76.79c-1.14-32.59-34.99-31.7-44.15-27.05m-406.54 48s-3.9 8.09-12.95 8.09S28.23 84.57 54.31 88.9zm-1.84-20.39s-29.32-7.73-41.63 8.3c-11.45 14.9-5.72 33.47 14.27 35.52 18.49 1.89 28.31-9.35 28.31-9.35l.29-.25v8.44h31.2V73.89s-.46-18.97-24.92-23.71c-15.05-2.92-41.58.4-46.38 2.87l-.29 18.49S24.07 66 38.94 66.3c7.13.15 15.14 1.6 14.56 10.92l-1.02.14Zm338.88-24.17c-3.64 3.06-5.68 6.26-6.7 9.17V49.91h-32.49v71.04h34.24V92.8c.28-12.84 6.71-16.13 10.04-17.65 4.8-2.19 14.77-1.89 14.77-1.89V48.59c-12.15-.51-16.63 1.87-19.86 4.58m-90.6 47.18c-7.31 0-8.39-4.41-8.39-17.36s1.39-15.54 8.39-15.54 8.21 2.59 8.21 15.54c.01 12.95-.87 17.36-8.2 17.36m.88-52.27c-24.33 0-44.06 10.15-44.06 36.37 0 28.28 24.75 36.37 44.06 36.37 21.74 0 44.06-8.53 44.06-36.37s-19.74-36.37-44.06-36.37" style="fill:#fd000f"/></svg>