<svg xmlns="http://www.w3.org/2000/svg" viewBox="0 0 510 98.28"><path d="M452.19 29.06c0 5.24-4.24 9.48-9.48 9.48s-9.48-4.24-9.48-9.48 4.24-9.48 9.48-9.48 9.48 4.24 9.48 9.48m23.85-2.39v65.21H505V26.67c0-27.5-50.42-22.29-61.04-12.5 32.29-5.62 32.08 12.5 32.08 12.5m-48.12 46.87c0 26.25 41.67 23.33 43.96 6.88-6.25 3.54-16.46 6.67-16.67-13.33s9.38-15.62 15.63-21.67c-12.29 2.71-42.92 3.67-42.92 28.12M19.79 19.58c-5.24 0-9.48 4.24-9.48 9.48s4.24 9.48 9.48 9.48 9.48-4.24 9.48-9.48-4.24-9.48-9.48-9.48m33.33 7.09v65.21h28.96V26.67c0-27.5-50.41-22.29-61.04-12.5 32.29-5.62 32.08 12.5 32.08 12.5M5 73.54c0 26.25 41.67 23.33 43.96 6.88-6.25 3.54-16.46 6.67-16.67-13.33s9.38-15.62 15.63-21.67C35.63 48.13 5 49.09 5 73.54m381.04-43.12v61.46h28.75V29.06c0-33.65-42.08-24.9-49.58-7.81 21.67-6.88 20.83 9.17 20.83 9.17m-53.12 0v61.46h28.75V29.06c0-33.65-42.08-24.9-49.58-7.81 21.67-6.88 20.83 9.17 20.83 9.17m-53.55 61.45h28.96V5l-28.96 2.71v84.17Zm-48.54 1.05L260 89.8V5l-29.17 2.92zm-55.21-19.38c0 28.13 45.83 23.33 51.04 3.54-22.29 8.75-21.88-7.29-21.88-7.29V5l-29.17 2.92v65.63Zm-12.08-44.58V6.04C136.46 5 135.62 27.5 133.96 34.79c12.89-9.17 29.58-5.83 29.58-5.83m-63.12 62.91h28.96V6.01l-28.96 1.91v83.96Z" style="fill:#fa0082"/></svg>