<svg xmlns="http://www.w3.org/2000/svg" viewBox="0 0 510 110.67"><path d="M215.02 35.18h-17.17V11.59h-11.59v16.56c0 6.01-18.64 8.06-28.76 8.06-11.59 0-28.76-2.05-28.76-7.47V6.17h19.08v20.37c2.49 1.32 6.02 2.05 9.69 2.05 3.96 0 7.48-.88 10.13-2.2V6.17h61.93v6.01h-14.53v23Zm241.7 0H439.7l20.69-29.01h25.24L505 35.18h-19.37l-2.2-4.4h-24.07zm21.72-11.43-6.16-10.55-6.31 10.55zm-39.48 11.43h-50.04l25.09-24.32h-24.65V6.17h51.95l-26.56 21.54h24.21zm-121.36 0h-19.96V24.19c-3.67 6.89-17.9 12.01-34.93 12.01-19.66 0-35.81-7.03-35.81-15.53s16.14-15.68 35.81-15.68c17.02 0 31.26 5.13 34.93 12.01V6.17h19.22l26.27 16.7V6.17h19.22v29.01h-19.22L317.6 18.77zm69.12 0h-18.2V6.17h18.2zM262.71 12.62c10.27 0 18.49 3.52 18.49 8.06s-8.22 7.91-18.49 7.91-18.34-3.52-18.34-7.91 8.22-8.06 18.34-8.06M80.59 35.18H63.42L84.26 6.17h25.09l19.37 29.01H109.5l-2.2-4.4H83.09l-2.49 4.4Zm21.58-11.43L96.15 13.2l-6.46 10.55h12.47Zm-46.8 11.43H36L20.04 6.17h19.37l15.95 29.01ZM18.49 10.65 5 35.18h19.37l4.09-7.44-9.98-17.09Zm34.57 18.16L66.02 7.56 51.46 25.92l1.59 2.9Zm.64 1.16 1.93 3.51L69.88 8 53.71 29.97Zm-2.86-5.19L62.53 6.86l-13.1 15.36zm-1.91-3.47 9.36-14.83-10.92 11.99zm-2.23-4.06 6.31-9.99-7.7 7.46zm279.88 49.84c-.34-.46-.55-.98-.69-1.51-.31-1.2-.48-2.38-.6-3.61l-.43-4.7c-.04-.43-.09-.85-.27-1.25l-.89 2.21c-.72 1.8-1.18 3.66-1.55 5.55-.1.52-.04 1-.32 1.47-.22.36-.67.64-1.14.43-.18-.08-.32-.43-.33-.62l-.1-1.87c-.77 1.35-1.99 2.85-3.6 3.33-.71.21-1.46.12-2.06-.29-.29-.2-.66-.44-.83-.74l-1.13-2.05c-.55.95-1.08 1.81-1.81 2.59-.44.47-.79.52-1.07.85-.64.3-1.35.48-2.08.57-.37.05-.79-.07-1.14-.17-.8-.24-1.4-.69-2.02-1.18-.27-.22-.56-.41-.73-.73-.68-1.28-1.22-2.62-1.42-4.05-.36-2.55.07-5.12 1.2-7.47.57-1.19 1.39-2.18 2.47-3.02 1.35-1.05 3.03-1.6 4.83-1.63.34 0 .71.02 1.01.14l1.23.5.83.58c1.19.67 1.97 1.94 2.33 3.13.21.69-.2 1.31-.94 1.55-.27.09-.36.23-.39.48l-.09.83.03 1.16-.49 1.54c-.51 2.27.42 5.82 2.53 4.98 1.03-.41 1.77-1.21 2.26-2.13l.44-.83-.15-1.01c-.07-.51.24-.91.69-1.21l.11-5.61c.01-.62.27-1.52.67-1.5s.82.16 1.06.43c.15.18.16.58.12.81l-.41 2.6c-.17 1.06-.09 2.1.09 3.22l1.71-4.84c.24-.68.82-1.66 1.49-1.65.84.02 1.2.65 1.26 1.43l.15 1.91.71 7.87c.04.47.22.89.58 1.27 2.21-2.25 2.97-5.61 3.58-8.49.07-.31.3-.56.04-.93l-3.17.43c-.45.06-.73-.3-.71-.67-.09-.37.05-.71.47-.85.09-.42.39-.72.84-.87.58-.14 1.16-.22 1.75-.29l1.26-.15.59-2.49.81-3.36c.08-.35.22-.68.46-.97.12-.15.46-.16.66-.12.43.1.67.63.65 1.02l-.11 2.43-.49 3.01c-.01.09-.14.27-.08.33s.26.13.37.13l4.2.15 1.09.14c.13-.15.32-.35.51-.38.22-.04.46.05.64.17.47.4.53.94.32 1.48.01.59-.03 1.19-.14 1.77-.14.27-.21.52-.29.81l-.13.45-.21 2.41c.32.99.64 1.93 1.13 2.85.45.74 1 1.38 1.79 1.81 1.53.84 3.39.54 4.49-.72.59-.68.99-1.43 1.28-2.26.34-1 .53-2 .67-3.04 0-.01.17-.1.2-.08.12.09.25.35.26.53.04 1.07.16 2.13-.02 3.19s-.87 2.04-1.45 3.03l2.38-2.42 2.84-3.11c.79-.87 1.64-1.62 2.57-2.36l2.76-2.19.13-.09s-.1-.07-.13-.08l-2.61-.65c-.9-.21-1.8-.27-2.74-.23-.73.03-1.36.25-1.94.64l-.72.48c-.23.16-.63.19-.91.09-.21-.08-.53-.28-.5-.58.04-.32.32-.64.62-.86a9.4 9.4 0 0 1 3.68-1.67c1.28-.27 2.59-.17 3.84.13l1.98.47c.99.24 2.04.29 3.04.05l.86-.28c.35-.11.74.09.89.33.18.29.09.67-.2.9-.43.35-.98.53-1.5.77-1.78.83-5.46 3.8-6.91 5.24l-4.26 4.64c.33.22.94-.08 1.69.08l3.04.64c.84.18 1.65.4 2.52.41.67.01 1.3-.21 1.92-.38.48-.13.86-.34 1.24-.65s.87-.61 1.41-.5c.29.06.44.37.45.57.02.28-.1.54-.36.71l-2.28 1.44c-.88.56-3.11 1.14-4.39.85l-4.17-.92c-.55-.12-1.07-.22-1.63-.16-.85.09-1.66.24-2.44.56-.28.12-.62.36-.91.38-.5-.04-.72-.51-.65-.91l-.77.56c-1.36.61-2.94.46-4.2-.27-1.63-.94-2.63-2.66-3.15-4.33l-.05-.07c-.45 1.04-.75 2.03-1.46 2.9l-1.5 1.59c-.2.21-.6.39-.9.48-1.37.42-2.54-.92-3.06-2.1-.47-1.04-.73-2.1-.91-3.23v-.14s-.08-.07-.09-.05l-.06.17c-.61 1.67-1.69 4.15-3.2 5.13-.55.36-1.24.29-1.64-.25Zm-15.78-3.65 1.31-2.27c.31-.53.36-1.13.41-1.73l.36-4.29c.11-1.33.96-1.83.34-2.41-.7-.65-1.63-1.16-2.65-1.33-1.56-.27-3.88 1.22-4.84 2.5-2.1 2.79-1.96 5.88-.68 8.95.33.8.87 1.48 1.57 2 .77.57 1.74.65 2.57.14.65-.4 1.24-.89 1.62-1.55Zm28.15-4.07.29-3.52-1.07-.14-4.3-.23c-.11 0-.37.08-.41.16-.26.61-.53 1.3-.49 1.98l.17 3.42c.06 1.16.5 2.24 1.01 3.29.17.34.47.67.87.78 1.72.47 3.49-4.25 3.94-5.75Zm-84.81-.08.57-.61c.61-.65 1.19-1.26 1.62-2.03.06-.1.27-.25.4-.23.27.22.56.62.51.98-.08.62-.34 1.22-.7 1.75-.5.73-1.02 1.42-1.66 2.05-.39.39-.93.61-1.36.97-.26.22-.25.61-.38.91-.53 1.26-1.36 2.45-2.59 3.25-.44.28-.97.49-1.47.67-.69.24-1.48.29-2.22.27-3.03-.11-5.2-2.58-6.06-5.13-.56 1.19-1.19 2.28-2.04 3.3a4.47 4.47 0 0 1-2.88 1.59c-.8.03-1.51-.25-2.1-.74-1.92-1.59-2.78-4.83-2.87-7.16-.17-4.43.43-8.82 1.65-13.11.29-1.02.62-1.96 1.07-2.9.33-.7 1.08-1.77 1.74-1.65l1.58.28c.17.03.43.24.52.39.35.64.69 1.24.91 1.92 1.11 3.32.36 8.13-1.01 11.41-.67 1.6-1.67 3.03-2.83 4.35-.75.86-1.55.92-1.46 1.38.26 1.31.97 3.13 2.43 3.43.55.11 1.1-.08 1.56-.38 1.03-.66 1.78-1.63 2.14-2.73s.83-2.2 1.09-3.35c.23-1.02.27-2.01.73-2.98.28-.58.55-1.14 1.05-1.61 1.03-.96 2.5-1.52 4-1.43.36.02.71.26 1.07.3.42-.09.81-.36 1.24-.48a3.84 3.84 0 0 1 3.83 1.09c1.35 1.48 1.64 3.7 1.66 5.6 0 .24.06.43.24.66Zm-20.2-1.7 1.56-2.12c.39-.53.69-1.1.93-1.72.91-2.35 1.43-5.48.77-7.89-.21-.78-.9-2.31-1.47-2.3s-1.13 1.15-1.38 1.83c-.75 2.05-1.25 4.13-1.56 6.29-.26 1.82-.32 3.57-.35 5.39 0 .48.06.94.25 1.37l.96-.41c.11-.06.19-.31.29-.44m13.77 2.13c1.29.97 3.12 1.02 4.67.44.38-1.84.08-4.6-1.44-5.9-.54-.46-1.33-.64-2-.31-.31.15-.43.49-.66.7-.25.23-.66.34-.86.61-.6.79-.89 1.77-.79 2.73.07.68.5 1.27 1.09 1.72Zm3.38 2.88-1.98.07c-1.45-.54-2.45-.83-3.26-2.07-.63-.96-.99-2.03-1.05-3.15-.03-.6.1-1.17.41-1.69l.55-.93c.04-.06 0-.24-.05-.28-.26-.24-1.77-.01-2.52.77-.55.58-.83 1.26-1.04 2-.67 2.37.05 4.87 2.01 6.58.71.62 1.53 1.07 2.51 1.24 1.47.26 3.06-.24 3.89-1.35l.71-.95s.04-.16.02-.19-.14-.06-.21-.05Zm46.61-9.37c.21-.53.49-1.02.85-1.42.4-.44.98-.46 1.48-.19l1.2.66c.47.26.67.71.64 1.2-.04.68-.6 1.27-1.41 1.23l-.98-.55c-.08-.04-.29-.09-.37-.06s-.17.15-.21.24l-1.14 3.06c-.63 1.99-.96 4-1.12 6.06l.12 2.18c.02.38-.04.77-.12 1.16-.09.42-.91.72-1.26.39-.3-.28-.31-.79-.31-1.17l-.07-4.33c-.74 1.91-1.89 3.78-3.86 4.68-.84.37-1.75.33-2.5-.17-.27-.22-.65-.45-.81-.75l-1.1-2.01c-.54.94-1.06 1.78-1.78 2.56-.16.18-.38.33-.57.48l-.53.39c-.63.32-1.35.48-2.07.58-.37.05-.79-.07-1.14-.17-.8-.24-1.4-.69-2.02-1.18-.27-.22-.56-.41-.73-.73-.68-1.28-1.22-2.62-1.42-4.05-.36-2.55.07-5.12 1.2-7.47.57-1.19 1.39-2.18 2.47-3.02 1.35-1.05 3.03-1.6 4.83-1.63.34 0 .71.02 1.01.14l1.23.5.83.58c1.19.67 1.97 1.94 2.33 3.13.21.69-.2 1.31-.94 1.55-.27.09-.36.23-.39.48l-.09.83.03 1.16-.49 1.54c-.51 2.27.43 5.82 2.53 4.98 1.04-.42 1.78-1.24 2.28-2.17l.42-.78-.15-.95c-.08-.53.23-1.07.8-1.3.13-.05.41.05.56.12l.12-1.24c.06-.62-.9-.27-.94-1.04-.06-1.18-.06-2.35.06-3.53.08-.77.43-2.03 1.01-1.94.43.07.87.18 1.25.33.52.2.57.76.49 1.2l-.38 2.08c-.06.34.06.7.13 1.07l1.05-2.69Zm-12.82 10.21 1.31-2.27c.31-.53.36-1.13.41-1.73l.36-4.29c.11-1.33.96-1.83.34-2.41-.7-.65-1.63-1.16-2.65-1.33-1.56-.27-3.88 1.22-4.84 2.5-2.1 2.79-1.96 5.88-.68 8.95.33.8.87 1.48 1.57 2 .77.57 1.74.65 2.57.14.65-.4 1.24-.89 1.62-1.55Zm-73.72 1.46c.41-.43.76-.92.83-1.49.19-1.67-1.38-3.33-2.79-4.4-2.53-1.91-5.43-3.09-8.44-4.25l-4.07-1.57-2.34-.78c-1.13-.38-2-1.05-3.23-1.52-1.1-.42-2.02-.98-2.91-1.68-1.2-.95-2.66-2.24-1.46-3.48.54-.56 1.26-.98 2.08-1.24 4.78-1.54 9.97-1.72 14.89-.57 1.99.47 3.25 1.11 4.74 2.36l-.03.9c.21.44.75.77 1.29.8.42.02.77-.27.98-.56 1.24-1.72-1.69-3.51-3.73-4.11-3.08-.9-6.29-1.36-9.56-1.31-2.47.03-4.84.35-7.24.78-1.11.2-2.06.56-3.08.98-1.27.52-2.36 1.27-3.03 2.38-.33.54-.41 1.11-.13 1.68 1.18 2.44 4.76 3.69 7.44 4.66l8.31 3c1.82.66 3.52 1.42 5.19 2.31 1.78.95 3.69 2.35 4.36 4.11s-.81 3.13-2.7 3.76c-.9.3-1.79.51-2.76.64-3.84.5-10.96.61-13.48-2.23-.86-.97-.96-2.21-.35-3.3.13-.24.1-.54-.12-.69-.7-.25-1.47-.22-2.13.11-.48.56-.71 1.27-.62 1.98.21 1 .66 1.91 1.33 2.72.26.32.6.54.92.8.49.38.97.72 1.59.95 1.03.38 2.06.64 3.18.82 4.61.73 9.49.66 13.94-.69 1.23-.37 2.3-.97 3.14-1.85Zm172.85-5.6c.16.36.17.82.08 1.18-.24.94-.57 1.81-1.03 2.68-1 1.91-3.44 4.46-5.7 3.05-.26-.22-.62-.43-.78-.72l-1.13-2.05c-.54.94-1.06 1.78-1.78 2.56-.17.18-.38.33-.57.48l-.53.39c-.63.32-1.35.48-2.07.58-.37.05-.79-.07-1.14-.17-.8-.24-1.4-.69-2.02-1.18-.27-.22-.56-.41-.73-.73-.68-1.28-1.22-2.62-1.42-4.05-.36-2.55.07-5.12 1.2-7.47.57-1.19 1.39-2.18 2.47-3.02 1.35-1.05 3.03-1.6 4.83-1.63.37 0 .75.01 1.06.16.39.19.77.33 1.18.45l.83.61c1.17.62 1.99 1.97 2.33 3.12.21.69-.2 1.31-.94 1.55-.27.09-.36.23-.39.48l-.09.83.03 1.16-.49 1.54c-.51 2.27.43 5.82 2.53 4.98 1.08-.43 1.87-1.28 2.32-2.26l.37-.66-.14-1.05c-.07-.5.27-1.09.86-1.23.24-.06.75.19.86.42m-10.39 4.14 1.31-2.27c.31-.53.36-1.13.41-1.73l.36-4.29c.11-1.33.96-1.83.34-2.41-.7-.65-1.63-1.16-2.65-1.33-1.56-.27-3.88 1.22-4.84 2.5-2.1 2.79-1.96 5.88-.68 8.95.33.8.87 1.48 1.57 2 .77.57 1.74.65 2.57.14.65-.4 1.24-.89 1.62-1.55Zm-101.49-4.28-.2-1.85c.24-.47.59-.86 1.02-1.22.07-.06.1-.24.06-.32l-.97-1.57c-.51-.83-1.28-1.34-2.26-1.65-.6-.19-1.13-.2-1.65.16-2.38 1.63-3.25 4.51-3.18 7.14.04 1.59.39 3.59 1.53 4.77.61.63 1.48.74 2.28.3 1.04-.56 1.77-1.48 2.16-2.53l1.21-3.25Zm-49.82 3.25c.67-1.14 1.2-2.24 1.68-3.43.03-.07.2-.18.28-.18.1 0 .23.18.22.29-.18 1.43-.54 2.82-1.12 4.18-.5 1.19-1.37 2.18-2.53 2.89-2.25 1.38-5.3 1.29-6.75-.9-.5-.75-.78-1.57-.84-2.47-.17-2.58.46-5.09 1.69-7.41.69-1.31 1.64-2.76 2.97-3.57.32-.2.77-.41 1.17-.36.6.07 1.17.23 1.72.44.99.38.93 2.02.77 3.09-.37 2.46-1.49 4.79-3.2 6.74-.63.72-1.34 1.28-2.16 1.81-.11.07-.25.21-.26.3-.07.54 1.75 1.51 3.65.86 1.2-.41 2.09-1.24 2.7-2.27Zm-4.69-2.35c1.41-1.43 3.06-4.66 2.13-6.24-.12-.2-.39-.38-.58-.41-.88-.12-2.39 1.45-2.75 2.28l-.96 2.19c-.25.58-.35 1.19-.36 1.82l-.04 1.74c0 .08.12.26.2.28.26.09 1.88-1.16 2.37-1.66Zm123.6-11.21-1.17-.32c-.44-.12-1.48 1.13-.75 2.28.19.29.52.48.86.52s.73-.05 1.01-.31c.66-.63.64-1.54.06-2.17Zm27.82 34.08c-17.62-1.55-35.52-2.55-53.21-2.69-14.32-.09-28.68.34-42.94 1.74.13-8.13.34-16.04.62-17.62l.66-4.48c.07-.48.32-.73.68-1.05.24-.2.52-.7.54-1.02.05-.8-.18-1.53-.36-2.29a7.35 7.35 0 0 0-1.72-3.3c-1.28-1.4-3.25-2.42-5.16-1.58-1.77.77-2.93 2.58-3.63 4.21-.77 1.82-1.12 3.69-1.18 5.65-.06 2.16.52 4.86 2.28 6.33.66.55 1.46.78 2.35.6 1.13-.22 2.15-.78 2.79-1.66l1.12-1.55c.13.26.03.44 0 .7-.19 1.37-.35 9.21-.49 17.2-5.14.53-10.27 1.18-15.38 1.98-17.6 2.66-34.77 7.48-51.58 13.26-8.4 2.87-16.79 5.77-25.3 8.31 18.71-5.16 36.86-12.26 55.81-16.58 4.76-1.09 9.85-2.17 14.65-3.01 7.23-1.27 14.49-2.25 21.79-2.99-.14 8.07-.25 16.05-.33 17.44-.06 1.04.08 3 .51 3.84.15.29.46.45.78.45 1.08 0 1.29-1.64.78-2.34-.27-.36-.45-.63-.45-1.1 0-1.64.06-10.03.19-18.44 23.09-2.24 46.42-2.1 69.56-1.18 15.16.65 31.3 1.84 46.49 3.13-6.34-.68-13.51-1.4-19.88-1.95Z" style="fill:#0f3c64;fill-rule:evenodd"/></svg>