<svg xmlns="http://www.w3.org/2000/svg" viewBox="0 0 510 225.18"><path d="M6.68 94.2 5 76.96c3.65-.76 8.85-1.57 15.11-1.68 6.09-.1 14.85-.25 24.57 3.51 3.34 1.29 13.37 5.32 21.21 15.41 9.83 12.64 13.71 31.54 6.71 47.31-3.59 8.09-8.91 12.89-12.06 15.66-16.61 14.65-37.41 15.09-45.02 14.86l-1.53-16.79c2.1-.02 5.18-.13 8.85-.61 7.56-.99 15.48-2.02 21.97-6.71 7.42-5.36 13.3-15.74 12.21-27.16-1.21-12.68-10.37-19.97-12.67-21.67-6.82-5.05-13.92-5.85-18.92-6.41-8.1-.91-14.74.41-18.77 1.53Z" style="fill:#fbcd20"/><path d="M100.93 13.96c4.95-2.99 9.89-5.97 14.84-8.96 3.54 4.77 6.07 9.03 7.79 12.19 3.24 5.98 6.58 12.4 7.64 20.12 1.99 14.6-5.4 26.43-7.49 29.67-9.18 14.25-22.96 18.91-27.18 20.27-2.96.95-10.23 3-19.68 2.35-2.94-.2-13.18-1.15-24.09-7.64-14.39-8.55-20.81-21.3-23.06-26.44 4.85-2.84 9.7-5.68 14.54-8.52 1.61 3.02 4.13 7.15 7.93 11.46 3.53 4 7.78 8.82 14.29 11.73 9.37 4.19 21.01 3.3 30.21-1.95 2.03-1.16 12.89-7.35 15.72-19.77 1.88-8.24-.69-15.2-2.35-19.68-2.6-7.04-6.46-11.96-9.11-14.84Z" style="fill:#82589e"/><path d="m56.48 203.5-16.7-3.6c.63-5.67 1.74-10.27 2.69-13.53 1.75-6.02 3.94-13.51 10.25-20.89.59-.69 1.5-1.74 2.76-2.99 7.35-7.31 15.45-10.19 18.51-11.24 16.72-5.77 35.84-1.59 48.34 7.09 3.08 2.13 5.28 4.21 6.25 5.17 2.63 2.58 10.67 10.68 13.22 23.55 1.21 6.1.71 10.88.12 16.46-.74 7-2.32 12.7-3.66 16.68-5.75-1.26-11.5-2.53-17.25-3.79.82-2.34 1.79-5.63 2.41-9.64.82-5.28 2.06-13.29-.96-21.03-5.37-13.77-20.89-18.12-22.35-18.5-1.79-.47-15.24-3.8-27.03 4.08-5.74 3.84-8.71 8.73-10.57 11.89-4.81 8.15-5.79 15.99-6.01 20.3Z" style="fill:#2597d3"/><path d="M213.17 78.16c3.71 4.12 7.43 8.24 11.14 12.36a65.4 65.4 0 0 1-11.7 10.59c-2.91 2.05-8.81 6.14-17.12 8.61-3.48 1.03-15.13 4.32-29.21.22-3.04-.89-18.7-5.76-28.54-21.29-4.98-7.86-6.42-15.2-6.86-17.91-.27-1.66-1.63-10.61 1.26-20.71 5.63-19.67 23.25-29.2 26.87-31.07l12.03 12.03a63.3 63.3 0 0 0-9.24 7.28c-6.16 5.87-11.49 10.95-13.29 19.17-2.98 13.59 6.11 24.73 6.86 25.61 1.71 2.03 3.3 3.33 4.2 4.06 9.08 7.36 19.22 7.79 20.99 7.84 9.29.26 15.99-3.38 19.45-5.32 6.67-3.73 10.87-8.47 13.15-11.48Z" style="fill:#ed7a1e"/><path d="m179.35 193.71-8.62 13.39a73 73 0 0 1-12.5-7.96c-5.11-4.04-13.11-10.35-18.02-21.4-1.38-3.1-4.65-10.7-4.06-20.85.94-15.98 10.77-26.26 13.85-29.39 1.48-1.5 7.12-7.02 16.36-10.96 1.07-.46 9.27-3.97 19.25-4.22 20.9-.51 37.28 12.92 41.5 16.58-3.22 4.48-6.44 8.96-9.66 13.43a62.7 62.7 0 0 0-10.78-6.86c-7.18-3.6-15.4-7.72-25.47-6.02-10.41 1.76-16.79 8.75-18.47 10.64-2.52 2.83-9.72 11.91-8.4 23.79.7 6.28 3.48 10.8 4.62 12.59 3.06 4.85 6.77 7.73 11.06 11.06 3.66 2.85 6.97 4.86 9.34 6.17Z" style="fill:#7bb647"/><path d="M427.09 166.9h8c4.96 0 5.81.05 6.93.58 2.27 1.06 4.29 3.28 4.9 6.42.54 2.78-.2 6.06-2.44 8.06-1.31 1.17-2.64 1.92-4.49 1.92h-9.84v8.03h-3.06zm3.05 2.91v11.09h9.81c2.5-1.11 4.12-3.28 4.11-5.54 0-2.77-2.31-4.82-3.31-5.05-3.36-.77-7.19-.49-10.61-.51Zm24.12 5.02c6.37-3.78 15.28 1.96 13.32 9.49-5.02.08-10.04-.1-15.05.08.94 5.83 8.39 6.39 12.27 3.13.63.65 1.26 1.31 1.89 1.96-3.71 3.17-9.67 4.13-13.73 1.09-5.22-3.76-4.52-12.91 1.3-15.75m-1.65 6.89c4.02.12 8.05.05 12.07.05-.05-7.05-11.46-6.74-12.07-.05m19.13 10.49c.97-.04 1.94-.08 2.93-.1.27-3.86-.24-7.76.26-11.6.9-3.61 5.26-3.95 8.2-2.8.35-.89.68-1.79 1-2.69-3.05-1.79-7.33-1.46-9.39 1.63-.1-.8-.21-1.6-.31-2.39-.94 0-1.88.01-2.8.03 0 5.97-.16 11.95.12 17.91Zm31.01-5.16v4.77h-2.16v-2.86c-.39.57-1.2 1.59-2.57 2.38-.59.34-1.8.94-3.43 1.04-.89.05-3.24.04-5.29-1.63-2.8-2.28-2.75-5.77-2.74-6.19v-10.23h3.12v9.68c0 2.09.59 3.76 1.82 4.7 1.11.85 2.38.85 2.84.86.46 0 2 .02 3.41-1.1 1.59-1.26 1.86-3.03 1.91-3.42v-10.73h3.09v12.72Zm-2.65-20.34h-3.87l-2.84 5.27h2.57l4.15-5.27ZM349.35 52.11H367c.07 12.82.03 26.19 0 39 4.39-5.19 9.77-9.93 16.4-11.85 11.81-3.22 25.16.14 33.98 8.75 13.47 13.24 14.52 36.87 3.28 51.82-8.75 11.75-25.06 16.04-38.74 11.84-5.94-1.93-10.76-6.18-14.93-10.73.03 3.63.1 7.27-.04 10.9-5.85 0-11.7.24-17.55-.14-.06-33.14-.12-66.44-.06-99.58Zm34.54 41.18c-10.01 2-17.69 11.94-17.11 22.24-.54 8.05 3.85 16.12 10.71 20.17 8.4 4.97 20.11 3.62 26.82-3.65 7.56-8.42 7.84-22.32 1.08-31.3-4.96-6.4-13.71-9.27-21.5-7.46m-104.57 46.94c15.49 17.77 46.45 17.51 61.76-.41-3.56-3.38-7.14-6.76-10.77-10.06-3.58 3.15-7.4 6.23-11.94 7.82-7.39 2.57-17.98 1.22-24.85-6.5-6.54-7.35-7.98-18.72-2.5-27.47 5.69-9.09 16.35-11.4 22.26-10.47 1.54.24 5.06 1.07 8.73 3.02 3.47 1.85 5.92 4.04 7.47 5.65 3.8-3.63 7.59-7.32 11.05-11.29-2.81-2.69-13.19-12-28.68-12.39-14.76-.37-32.59 7.39-39.08 24.3-4.97 12.93-1.97 28.02 6.56 37.8Zm163.29-.9c15.1 18.61 46.92 18.77 62.39.51-3.48-3.4-7.01-6.75-10.56-10.08-3.39 2.7-6.68 5.67-10.73 7.35-8.42 3.32-18.89 1.71-25.28-4.99-9.84-9.99-8.03-28.95 4.25-36.11 9.94-6.25 22.99-2.54 30.61 5.72 4.07-3.31 7.54-7.34 11.09-11.19-16.03-17.66-47.55-16.52-62.15 2.4-10.61 12.98-10.5 33.59.37 46.37Z" style="fill:#fff"/></svg>