<svg xmlns="http://www.w3.org/2000/svg" viewBox="0 0 510 110.85"><path d="M262.41 88.58c0 4.61-3.05 7.68-7 8.21-3.7.49-8.76-2.08-8.78-6.51l-.18-35.68c-.03-5.94-1.57-11.25-7.17-12.16-9.46-1.54-14.99 2.18-19.92 10.1l-.02 36.78c0 4.26-3.65 7.25-7.48 7.52-3.45.24-8.29-2.33-8.3-6.57l-.11-54.58c.13-4.3 3.49-7.49 7.45-7.68s7.86 2.72 8.48 7.27c10.92-11.47 30.94-10.71 39.3 2.99 5.51-7.32 13.71-10.74 22.7-10.91 8.33-.16 15.51 3.46 19.84 10.63 2.82 4.69 4.14 10.08 4.13 15.71l-.05 35.89c0 4.31-3.97 7.13-7.79 7.28s-7.97-2.69-8-7l-.21-37.24c-.02-3.25-1.16-7.4-4.09-9-4.7-2.56-11.1-1.98-15.5.84-3.08 1.97-5.11 4.77-7.34 7.71v36.4Zm-104.56-6.43c-7.1-1.29-12.62-6.45-13.78-13.62h40.92c4.16 0 7.69-3.1 7.79-7.31.16-7.52-1.95-14.82-6.21-20.94-6.27-8.99-16.38-13.07-27.21-12.94-13.47.16-24.87 7.87-29.28 20.69-2.95 8.59-3.2 17.83-.8 26.71 5.21 19.28 24.5 25.2 43.51 21.95 5.37-.92 10.48-3.1 14.97-6.06 2.97-1.96 3.53-5.81 2.11-8.51s-5.22-4.9-8.59-3.4c-7.7 3.42-15.27 4.92-23.43 3.44ZM143.96 55.1c.88-8.19 7.73-13.74 15.89-13.85 8.3-.23 15.63 4.89 16.94 13.81zm300.58 24.11c.79 7.6 6.23 14.45 14.34 16.92 10.19 3.11 21.37.86 30.36-5.54 1.2 4.05 4.34 6.51 8.4 6.23 3.35-.23 7.37-2.97 7.36-6.98l-.05-37.81c0-6.19-2.81-12.13-6.99-16.44-11.18-11.52-31.31-9.41-45.37-3.16-3.68 1.64-4.67 6.33-3.13 9.25 1.95 3.69 5.66 4.6 9.41 3.24 6.8-2.47 13.93-3.12 21.03-2.15 6.1.84 9.62 5.73 9.14 11.73l-17.35.09c-5.59.03-11.07 1.4-16.13 4.02-8.05 4.16-11.91 11.86-11.01 20.58Zm20.72 3.26c-2.17-.61-4-2.47-4.5-4.05-.73-2.34-.71-5.36 1.17-6.96 2.16-1.85 5.11-3.14 8.04-3.21l19.15-.47.17 7.28c-6.11 6.7-15.24 9.89-24.02 7.42ZM329.4 96.33c10.06 2.78 20.78.55 29.67-5.67 1.26 4.14 4.62 6.58 8.81 6.14 3.52-.37 7.06-3.33 7.05-7.44l-.14-37.31c-.04-12.23-9.28-21.83-21.25-23.95-10.7-1.9-21.65.09-31.46 4.58-3.54 1.62-4.25 6.3-2.66 9.18 1.85 3.35 5.54 4.4 9.18 3.12 6.85-2.39 13.91-3.32 21.11-2.18 6.55 1.04 9.15 5.3 9.36 11.67l-17.66.14c-14.45.11-28.43 8.76-27.05 23.98.75 8.28 6.44 15.36 15.05 17.74Zm5.99-13.74c-3.35-.86-5.15-3.7-5.25-6.8-.18-5.81 7.32-7.87 13.82-7.9l15.12-.06.04 7.34c-6.19 6.64-15.02 9.66-23.73 7.42m98.88-14.71c-2.59-4.67-7.11-8.02-12.13-9.4L406 54.03c-2.25-.62-5.07-1.36-6.79-2.81-2.28-1.91-1.1-5.55 1.15-6.89 6.59-3.94 17-2.28 24.82-.15 3.85 1.05 7.53-1.48 8.54-4.82 1.11-3.65-1-7.47-4.75-8.73-9.82-3.3-20.23-4.46-30.19-1.86-12.77 3.34-19.71 16.44-14.3 28.43 1.82 4.03 5.69 6.84 9.68 8.72 8.71 4.12 19.1 4.58 25.97 8.45 1.21.68.85 3.69.16 4.76-.65 1-2.26 2.34-3.82 2.72-8.09 1.99-16.35.73-23.91-2.57-3.88-1.69-7.97-.27-9.66 3.21s-.56 7.62 3.16 9.46c15.41 7.63 40.04 9.07 48.27-6.37 2.97-5.57 2.88-12.4-.07-17.71Z" style="fill:#3c465f"/><path d="M88.97 12.03C88.97 8.15 92.12 5 96 5s7.03 3.15 7.03 7.03-3.15 7.03-7.03 7.03-7.03-3.15-7.03-7.03m3.22 14.61c15.23 19.19 13.99 47.16-3.75 64.9-17.7 17.7-45.58 18.98-64.77 3.86zm-2.32 31.44a6.93 6.93 0 0 0-9.8.02L52.06 86.21c-2.7 2.71-2.69 7.1.02 9.8s7.1 2.69 9.8-.02l28.01-28.11c2.7-2.71 2.69-7.1-.02-9.8m-9.02-41.87L13.2 84.09C.51 65.1 2.55 39.18 19.31 22.42c16.73-16.73 42.56-18.8 61.54-6.21M52.21 30.68c2.7-2.71 2.69-7.1-.02-9.8a6.93 6.93 0 0 0-9.8.02L14.38 49.01c-2.7 2.71-2.69 7.1.02 9.8s7.1 2.69 9.8-.02z" style="fill:#50b464"/></svg>