<svg xmlns="http://www.w3.org/2000/svg" id="Capa_2" viewBox="0 0 510 433.98"><defs><style>.cls-1{fill:#fff}.cls-2{fill:#e2002b}</style></defs><path d="M41.65 384.01c-.86 3.04-1.4 5.76-2.94 8.33-1.68 2.86-4.25 5.07-7.54 5.87-9.13 2.21-16.3-5-18.11-14.37-1.66-8.6.02-17.47 4.57-24.91.86-1.4 2.52-1.71 3.86-1.03 1.19.61 1.97 2.42 1.1 3.87-3.73 6.24-5.32 13.5-3.95 20.69.46 2.43 1.26 4.57 2.65 6.57 2.23 3.22 6.5 4.96 10.08 3s5.36-11.1 5.38-15.76l.07-16.88c0-1.95 2.12-2.87 3.68-2.8s3.32 1.34 3.64 3.29l3.59 22.07c1.6 12.65-.7 25.08-6.98 36.05-1.64 2.87-3.65 5.22-6.21 7.24-6.57 5.18-15.79 4.93-22.1-.52-3.74-3.23-7.59-7.88-7.41-12.72.06-1.51 1.03-2.46 2.3-2.59 3.81-.4 1.95 6.36 7.57 10.64s12.72 3.91 17.59-1.16c7.85-8.16 10.58-23.7 9.16-34.88m61.53 10.59 6.03-11.14c1.21 7.14 2.99 14.8 10.19 14.6 3.36-.71 6.73-3.27 5.91-5.84-.21-.65-.97-1.83-1.93-1.79-1.64.07-2.69 2.62-4.4 2.49-1.38-.1-2.39-2.61-2.79-4.88-1.28-7.24-.81-14.41.86-21.57.32-1.36.19-2.73-.61-3.57a3.4 3.4 0 0 0-3.55-.9c-4.07 1.36-2.57 6.06-4.65 11.2-2.62 6.48-5.86 12.58-10.04 18.16-1.51 2.02-3.01 3.82-5.37 5.27-.91-2.77-.48-5.55.12-8.39 1.48-7.12 3.9-13.85 6.5-20.62.72-1.86-.03-3.32-1.79-4.13-1.52-.7-3.14-.48-4.06 1.07-1.04 1.77-1.9 3.64-2.39 5.71l-4.41 18.81c-.73 3.11-.31 6.35.68 9.28 1.04 3.08 3.88 4.36 7.12 3.3 3.74-1.22 6.4-3.94 8.58-7.09Zm120.93.82c-3.71-.64-1.4-8.37.11-12.83 4.48 1.92 9.17.81 12.56-2.46 4.62-4.45 9.75-13.57 7.31-19.22-1.14-2.64-3.59-3.72-6.37-3.02-2.93.74-5.47 2.42-7.65 4.71-5.3 5.56-9.56 12.11-12.37 19.28-1.65 4.21-2.04 8.61-.75 12.8 1.14 3.71 4.13 6.2 7.96 6.52 3.65.31 7.14-.55 10.36-2.41 6.77-3.9 11.85-10.08 14.24-17.54.23-.73.05-1.48-.34-1.96-.48-.6-2.25-.94-3.31-.49-.67.28-3.92 9.71-15.19 15.72-2.1 1.12-4.38 1.4-6.57.89Zm7.98-18.21c-1.79 1.15-3.9 1.55-5.92.56 2.16-4.63 5.27-8.32 8.62-11.9 1.4-1.5 2.77-2.91 4.93-3.64 1.6 5.27-3.24 12.15-7.63 14.99ZM65.68 401.89c8.42-2.24 14.37-14.1 17.06-22.36 1.62-4.96 1.27-10.32-.97-14.91-2.08-4.26-6.87-5.43-10.93-3.37-1.81.92-3.65 1.55-4.84 3.43-2.25-.13-4.07 1.11-5.33 3.08-4.6 7.19-8.74 19.92-6.11 28.11 1.55 4.83 6.3 7.31 11.12 6.03Zm-5.77-7.39c-1.92-8.32 2.07-16.26 7.07-22.99.74-1 1.43-1.95 1.79-3.17 1.24-1.22 2.62-2.2 4.28-2.74 4.5-1.48 5.34 6.11 3.62 11.73s-4.08 10.34-7.36 14.84c-1.46 2-3.24 3.62-5.66 4.43-1.87.62-3.32-.32-3.73-2.09Zm93.47-7.24c-2.44-14.83 1.45-34.95 5.25-49.81.47-1.85-.21-3.47-2.05-4-1.15-.33-3.09.27-3.52 1.91-4.21 15.99-7.73 35.3-5.72 51.62.68 5.53 2.56 12.8 7.6 14.63 2.98 1.09 5.99.07 8.71-1.25 1.74-.84 2.51-2.65 1.63-4.32-2.19-4.16-7.2 2.08-9.38-1.03-1.57-2.24-2.09-5.04-2.53-7.75Zm43.66 13.8c1.73.02 3.13-2.53 4.14-4.89l8.38-19.51c1.59-3.71 3.44-7.19 6.03-10.2.76-.88 1.5-1.49 1.4-2.71-.07-.82-.7-1.98-1.86-2.11-3.9-.44-8.37 7.3-10.39 11.61l-6.98 16.97-6.94-18.1c-.89-2.33-1.78-4.58-3.8-6.12-1.28-.72-2.56-.27-3.58.61-.88.75-1.56 2.16-.81 3.48 4.12 7.25 7.61 14.64 9.69 22.93.86 3.42 2.48 8.01 4.72 8.03Zm-17.26-5.53c-1.19.14-1.81 2.09-3.15 1.62-2.3-.82-3.38-7.64-3.48-11.66-.15-6.23 1.37-12.04 3.33-17.82.61-1.81-.39-3.73-1.86-4.26-5.32-1.91-6.69 10.04-7.37 16.06-.62 5.56-.08 10.86 1.94 16.04.74 1.88 1.67 3.6 3.12 4.96 2.23 2.11 5.18 2.32 7.76.73 1.65-1.02 2.48-2.78 1.33-4.72-.38-.65-1.05-1.03-1.63-.96Zm-.8-49.46c-1.93-.24-3.59.96-4.08 3.01-.5 2.11.93 4.19 2.78 4.52 2.25.4 4.01-.79 4.32-3.3.28-2.22-1.11-3.99-3.02-4.23" class="cls-1"/><path d="M66.6 160.78c.39-12.31 6.37-21.64 13.88-30.88 6.46-7.96 13.26-15.27 20.52-22.55 9.55-9.58 20.04-21.15 26.37-32.98 7.78-14.55 7.32-31.41-4.81-43.13-14.96-14.46-44.15-15.01-64.11-12.72.59-7.01 10.3-9.79 16.97-11.3 16.61-3.76 38.09-2.62 54.36 2.71 31.25 10.24 50.28 36.81 56.11 68.58 1.8 9.83 2.74 19.28 2.45 29.35-.52 18.57-3.97 36.73-10.46 54.07-1.7 4.54-3.62 8.58-6.16 12.58-24.49 8.87-73.12 16.68-95.13 4.16-6.56-3.73-10.23-10.33-9.99-17.89" class="cls-2"/><path d="M69.27 181.36c14.51 16 44.64 16.7 65.61 14.34-.45 6.9-9.99 9.69-16.63 11.23-17.04 3.95-39.33 2.67-55.95-3.09-30.76-10.66-49.29-37.22-54.91-68.71-1.7-9.53-2.6-18.65-2.35-28.41.49-18.69 3.93-36.98 10.47-54.42 1.7-4.55 3.59-8.6 6.16-12.59 6.61-2.38 12.98-4.16 19.83-5.67 18.97-4.18 42.82-7.03 61.72-3.23 4.91.99 9.55 2.38 13.82 4.88 13.38 7.81 11.1 24.1 4.33 36.57-5.68 10.46-20.35 25.95-29.33 34.95s-19.69 20.88-25.9 32.4c-7.45 13.82-7.65 29.86 3.14 41.75ZM477.95 195.14c-4.34.35-8.18.03-12.36-.87l-.02 21.49h-18.82v-82.67c5.65-2.75 11.66-4.01 17.88-4.48 5.57-.42 10.92-.53 16.3.72 9.93 2.09 17.59 8.93 20.65 18.57 3.3 10.41 2.65 24.08-2.71 33.69-4.39 7.75-11.85 12.77-20.92 13.56Zm5.55-46.06c-.88-3.57-2.92-6.8-6.1-8.4-3.69-1.85-7.9-1.62-11.81-.38v43.06c4.29 1.28 8.88 1.16 12.5-1.36 8.23-5.74 7.76-23.39 5.41-32.91Zm-167.9-19.62v52.03c-3.58 1.44-7.26 1.87-10.85 1.08s-5.66-3.68-5.87-7.32v-45.79l-18.85.01-.02 43.31c-.06 9.84 3.35 17.36 12.74 20.74 13.07 4.28 29.12 1.62 41.72-3.86v-60.18l-18.88-.01Zm118.22 50.29c-5.69 12.71-17.87 17.68-31.34 15.31-7.94-1.4-14.33-6.26-18.09-13.37-5.59-10.56-5.85-26.33-1.11-37.24 5.38-12.39 16.54-17.43 29.81-15.84 9.15 1.1 16.6 6.58 20.49 14.91 4.92 10.53 4.99 25.65.25 36.22Zm-15.64-9.62c.61-5.97.62-11.86-.11-17.83-.79-6.46-3.29-12.54-9.76-12.36-5.77.16-8.26 5.85-9.03 11.7-.85 6.39-.86 12.74-.1 19.13s3.24 12.1 9.47 12.07c6.52-.03 8.86-6.22 9.53-12.71m-171.55 12.48c7.77.6 14.95-1.46 22.09-4.84l.02 13.54c-9.71 4.06-20.26 5.43-30.52 3.42-9.76-1.91-17.21-8.51-20.43-17.79-3.39-9.79-3.24-22.88.94-32.4 5.87-13.36 19.2-18.22 33.2-15.51 16.11 3.56 20.37 18.86 19.67 33.98l-36.55 5.38c.68 7.34 3.56 13.59 11.58 14.21Zm7.93-26.7c-.04-4-.37-7.28-1.65-10.5-1.45-3.71-4.69-6.2-8.72-6.02-9.81-.04-10.77 10.91-10.39 19.9zm109.96-7.42c.32-3.52 2.31-6.05 5.61-6.98 2.33-.73 4.74-.72 7.37-.47l2.2-12.28c-10.2-1.12-24.46-.63-30.49 8.12-2.32 3.37-3.52 7.34-3.53 11.6l-.1 45.95h18.92l.02-45.93Zm12.49 156.52h18.18l-.06-46.29c-.45-6.52-3.72-11.84-9.43-14.73-3.48-1.79-7.11-2.66-11.08-3.1-10.57-1.17-21.08.74-30.85 5.02v59.1h18.12v-51.68c2.82-1.31 6-1.67 9.06-1 3.54.77 5.78 3.4 6.04 7.28zm-362.3-4.8c-8.19-6.73-8.63-22.67 2.4-29.84 7.3-4.74 16.6-6.11 25.29-7.08.3-4.94-.21-8.91-4.84-10.34-2.77-.77-5.61-.69-8.52-.3-4.45.67-8.52 2.05-12.69 3.74l-2.71-11.26c8.54-3.75 17.72-5.12 26.94-4.35 12.4 1.34 19.89 9.28 19.9 21.81l.03 37.4c-9.74 6.11-23.75 7.35-34.88 5.18-4.09-.8-7.78-2.37-10.92-4.96m15.34-6.32c3.51 2.78 8.36 2.82 12.35.97l.06-23.05c-8.57.73-15.66 3.94-15.69 13.03-.01 3.25.46 6.82 3.28 9.05m257.78 6.65c-8.63-6.71-9.02-22.69 1.58-29.89 7.31-4.97 16.93-6.39 25.69-7.37.24-5.05-.31-9.11-5.1-10.39-2.7-.67-5.41-.63-8.21-.25-4.44.67-8.52 2.03-12.73 3.76l-2.79-11.24c10-4.51 25.22-6.57 35.16-2.25 8.27 3.59 11.69 11.42 11.7 20.38l.03 36.67c-9.58 6.14-23.68 7.38-34.78 5.22-3.91-.76-7.46-2.24-10.54-4.63Zm17.02-5.36c3.35 1.33 7.19 1.31 10.27-.42v-22.95c-7.36.64-14.46 3.18-15.47 10.89-.68 5.21.4 10.58 5.2 12.48m176.43-1.7c7.4.54 14.19-1.56 20.89-4.72l.04 13.13c-8.9 3.92-18.6 5.2-28.2 3.64-9.8-1.97-17.4-8.41-20.7-17.93-3.28-9.46-3.23-20.01.14-29.47 4.88-13.68 17.87-19.58 31.93-17 15.77 3.28 20.09 18.02 19.49 33.21l-34.92 5.46c.92 7.44 3.4 13.2 11.32 13.68Zm7.24-25.9c0-7.73-1.68-15.81-9.54-16.12-9.61-.38-10.55 10.33-10.15 19.37zM157.99 284.8c-.32-5.84-3.06-10.73-7.75-14.18l-9.12-5.32c-2.07-1.21-4.3-2.18-5.78-4.12-1.33-1.74-1.11-4.12-.08-5.93.92-1.62 2.76-2.58 4.87-2.83 4.27-.42 8.27.94 12.28 2.94l4-10.78c-7.25-3.5-15.08-4.64-22.86-3.67-10.61 1.85-18.37 9.64-17.31 20.62.48 4.94 2.66 9.16 6.53 12.26 2.42 1.94 5.2 3.21 7.9 4.78l5.58 3.24c2.47 1.84 3.33 4.83 1.97 7.65-1.17 2.43-3.6 3.79-6.38 3.97-4.46.13-8.66-1.04-12.71-3.07l-4.51 11.19c9.46 5.36 23.86 6.24 33.29 1.15 6.69-3.61 10.49-10.32 10.08-17.88Zm79.79.01c-.86-15.58-16.86-17.61-22.12-23.05-1.62-1.67-1.67-4.03-.78-6.05.83-1.89 2.78-3.05 5.11-3.27 4.26-.46 8.27.94 12.25 2.92l4.02-10.79c-7.24-3.51-15.08-4.63-22.86-3.68-10.37 1.82-17.99 9.14-17.32 19.91.37 5.87 3.15 10.73 7.96 14.05l9.27 5.18c1.93 1.08 3.91 2.28 4.86 4.31s.57 4.25-.67 6.05c-3.5 5.09-12.63 2.96-18.51-.03l-4.54 11.18c9.46 5.36 23.89 6.26 33.3 1.16 6.69-3.63 10.45-10.32 10.03-17.88Zm-126.43-.01c-.88-16.09-18.06-17.74-22.65-23.61-1.35-1.73-1.1-4.13-.07-5.95.92-1.62 2.76-2.58 4.88-2.84 4.27-.41 8.27.95 12.29 2.95l4.04-10.79c-7.49-3.56-15.53-4.73-23.49-3.57-6.23 1.29-11.69 4.46-14.71 10.11-3.27 6.1-2.67 13.8 1.38 19.38 2.22 3.07 5.26 4.96 8.49 6.74l7.73 4.25c2.99 2.03 3.98 5.56 1.98 8.68-3.47 5.4-12.66 3.2-18.71.2l-4.5 11.19c9.45 5.35 23.86 6.24 33.28 1.15 6.7-3.62 10.48-10.32 10.07-17.89Zm152.85-31.14 10.86-.03.04-11.89-10.87-.04-.04-18.05-18.07 4.66.07 61.4c.67 8.39 6.12 14.64 14.35 15.87 4.87.73 9.69.26 14.52-1.35l.04-11.34c-1.7.36-3.48.72-5.36.67-3.21-.09-5.17-2.34-5.47-5.79l-.05-34.11Zm159.7 8.82c1.22-3.48 3.44-6.17 6.48-8.07 4.75-2.39 10.29-2.18 14.9.8l4.12-10.16c-4.79-3.19-10.19-4.34-15.82-4.45-11.82-.64-22.26 5.9-26.77 16.79-4.13 9.99-3.94 23.6.62 33.38 6.44 13.84 21.14 17.91 35.45 13.97 2.44-.67 4.76-1.59 6.62-3.17l-4.24-10.98c-4.25 2.91-9.78 3.46-14.39.94-9.16-5-10.35-19.42-6.97-29.06Zm-255.95-20.77v63.32h18.09v-63.32zm18.91-18.18c-.03-2.35-1.16-4.55-3.17-6.16-4.11-3.29-10.26-3.09-14.08.58-1.93 1.85-2.76 4.23-2.41 6.9.27 2.02 1.53 4.15 3.6 5.52 3.88 2.57 9.17 2.53 12.96-.46 2.13-1.68 3.12-4.01 3.1-6.37Z" class="cls-1"/><path d="M444.77 396.57c-2.65 1.68-6.2.79-7.96-1.55-1.42-1.88-1.58-3.97-2.11-6.41l-7.28 8.76c-1.42 1.71-3.25 3.01-5.28 3.87-2.61 1.11-5.3.18-6.48-2.45-3.01-6.73.55-21.74 3.99-29.28 1.68-3.67 4.34-6.71 7.94-8.23 5.17-2.17 10.98.51 12.28 5.84.37 1.51-.21 2.66-1.54 3.08 1.18.19 1.98.11 2.67.64.56.43.71 1.31.56 2.23l-2.34 14.21c-.5 3.02.33 7.07 2.6 6.99s1.74-2.41 3.49-3.19c.5-.22 1.8-.31 1.99.53.4 1.81-.8 3.9-2.52 4.99Zm-9.41-16.18 1.12-7.54c.15-1.02.53-1.71 1.41-2.55-1.74-.52-1.75-1.62-2.19-2.83-1.05-2.87-4.56-3.64-7.18-2.19-2.38 1.32-4.12 3.47-5.28 6.07-2.97 6.63-4.46 13.86-4.69 21.16-.06 1.86.21 3.66 1.17 5.22 2.3-.65 3.81-2.19 5.36-3.8 3.92-4.09 7.06-8.68 10.29-13.55Zm44.71 16.93c8 1.96 17.99-8.15 21.91-15.43.46-.85.54-1.34 1.38-1.46.52-.07 1.89.22 1.6 1.2-2.22 7.65-7.55 13.88-14.49 17.64-2.68 1.45-5.48 2.08-8.5 2-4-.1-7.13-2.71-8.09-6.65-1-4.13-.32-8.36 1.36-12.36 3.03-7.22 9.81-18.05 16.52-21.58 1.68-.88 4.02-1.55 5.77-.62 5.78 3.09.8 14.37-4.94 20.13-3.17 3.18-8.63 4.63-12.46 1.93-1.75 3.79-2.55 7.71-2.69 11.77-.05 1.65 1 3.02 2.62 3.42Zm15.72-28.74c.59-1.46 1.4-3.81.44-5.19-.84-.91-2.96.38-3.66 1.26l-9.41 11.79c-.76.95-1.4 1.99-1.43 3.15 5.71 2.39 11.91-5.71 14.06-11Zm-112.18 24.01c-.44-2.71.07-5.35 1-7.98 2.51-7.13 10.12-22.17 17.38-20.53 2.52.57 4.52 5.25 7.08 2.7.85-.85.7-2.52-.38-3.48-5.53-4.94-12.14-3.43-17.31 1.98-5 5.23-8.68 11.68-10.92 18.59-1.17 3.59-1.29 7.35-.22 10.79 1.29 4.16 4.72 6.51 8.95 6.59 3.19.06 5.9-1.11 8.62-2.8 4.4-2.74 7.66-6.61 10.67-10.84.57-.8.79-1.46.37-2.23-.24-.44-1.37-1.31-1.79-.67-4.35 6.44-10.97 12.38-19.04 12.01-2.48-.12-4-1.85-4.37-4.11Zm75.13-2.85c-.25-9.5 3.61-17.17 9.43-24.37 1.53-1.9 3.94-3.72 5.24-2.95 1.02.61.45 3.15 2.02 3.17.54 0 1.4-.2 1.62-.95.44-1.53-.23-3.3-1.16-4.35-1.09-1.22-2.78-1.63-4.5-1.52-6.06.38-9.86 8.99-12.52 14.85l.45-7.92c.08-1.43-.35-3.21-1.86-3.77-1.62-.61-3.81 1.22-3.61 3.12 1.13 10.63 1.05 21.04-.05 31.72-.14 1.37-.09 3.03.98 3.9 1.38 1.12 4.26.09 4.21-1.85l-.24-9.08Zm-174.11-23.38c-2.54-.51-3.86 3.45-4.13 6.64l-1.33 15.32c-.39 4.56.94 12.29 4.43 12.77s7.67-6.33 9.39-10.24l5.26-11.97c-.16 8.97.54 18.33 8.71 22.24 7.68 3.67 13.09-4.37 15.44-11.99 2.49-8.04 2.48-16.42.74-24.66-.78-3.71-2.7-7.51-5.86-7.06-1.07.15-2.06.97-2.69 2.03s-.44 2.25.58 2.94c.84.58 1.93.4 2.73-.57 1.09 2.02 1.48 3.99 1.82 6.17 1.11 7.13.81 14.31-1.57 21.11-1.7 4.84-5.15 10.54-9.59 8.34-5.2-2.57-6.79-10.28-6.25-15.82l1.55-15.9c.13-1.36-1.94-1.64-2.92-1.5s-1.93 1-2.28 2.34c-2.38 9.2-5.93 17.97-10.78 26.19-1.29 2.18-3.6 4.52-4.49 3.89-1.18-.84-.66-6.68-.09-10.14l2.9-17.72c.23-1.41-.79-2.25-1.57-2.41m51.55 31.05c7.98 1.5 17.59-8.23 21.49-15.36.42-.77.52-1.43 1.19-1.59.48-.12 2.08.07 1.89.85-2.32 9.63-12.22 19.73-22.2 20-4.24.11-7.68-2.23-8.79-6.39-1.05-3.92-.57-8.06 1-11.97 2.87-7.14 7.13-13.68 12.51-19.14 1.97-2 4.3-3.43 6.9-4.04 2.43-.57 4.49.52 5.27 2.84 1.79 5.31-2.82 13.42-7.02 17.55-3.22 3.17-8.66 4.73-12.5 1.94-1.7 3.8-2.59 7.73-2.68 11.85-.04 1.78 1.24 3.15 2.94 3.47Zm15.84-33.96c-.77-.93-2.95.31-3.64 1.16l-8.69 10.74c-.99 1.23-1.81 2.52-2.27 4.16 7.65 3.54 17.09-13.04 14.6-16.06" class="cls-2"/></svg>