<svg xmlns="http://www.w3.org/2000/svg" viewBox="0 0 510 70.67"><path d="M434.17 36.24h22.08l-11.16-17.28zM205.34 63.68h36.08v-7.64l-7.64-.76c-2.28-.24-3.51-2.04-3.51-4.79V21.77l29.96 39.64c1 1.52 3.04 2.28 4.79 2.28h28.44V20.76c0-2.04.52-4.84 3.32-5.08l7.88-.76V7.04h-36.08v7.6l7.88 1.04c2.8.24 3.32 2.8 3.32 5.32v27.91L250.06 9.55c-1.28-1.52-2.8-2.52-4.84-2.52h-39.88v7.88l7.41.76c2.75.47 3.8 1.76 3.8 5.32v28.72c0 3.51-1.04 5.03-3.8 5.55l-7.41.76v7.64Zm-48.75-48c-12.91 0-20.32 4.79-20.32 19.56s7.41 19.8 20.32 19.8 20.08-4.84 20.08-19.8-7.36-19.56-20.08-19.56m-46.43 19.56c0-17.8 14.43-30.24 46.43-30.24s46.24 12.44 46.24 30.24-14.48 30.43-46.24 30.43-46.43-12.44-46.43-30.43M5 63.68h45.48v-7.64l-7.88-.76c-1.8-.24-3.56-1.28-3.56-5.08v-9.12h35.04v8.64c0 2.52-.52 5.03-3.56 5.32l-7.88.76v7.88h45.48V55.8l-8.12-.76c-1.57-.28-3.32-1.52-3.32-4.56V21c0-3.04 1-5.08 3.56-5.32l7.88-.76V7.04H62.64v7.6l7.88 1.04c2.8.24 3.56 2.52 3.56 5.32v8.64H39.04v-8.88c0-3.32 1.52-4.84 3.8-5.08l7.64-.76V7.04H5.24v7.88l7.64.76c2.8.24 3.8 2.52 3.56 5.32v28.72c0 3.28-.76 5.32-3.8 5.55L5 56.03v7.64Zm351.69-10.92h-14.48v-34.8h14.48c13.96 0 19.56 3.04 19.56 17.52s-5.6 17.28-19.56 17.28m8.64-45.72h-55.88v7.88l6.88.47c2.8.52 3.8 2.33 3.8 4.84v30.48c0 2.28-1 4.32-3.28 4.56l-7.41 1.04v7.36h55.88c25.92 0 37.08-12.44 37.08-29.2 0-14.76-11.16-27.44-37.08-27.44Zm32.52 56.64v-7.64l7.88-.76c2.52-.52 3.56-2.8 4.04-3.28l19.04-31.24c1.52-2.28 0-4.61-1.99-4.84l-9.92-1V7.04h43.44c2.52 0 4.04 1.76 5.08 3.28l25.35 38.88c2.04 3.04 3.56 5.55 6.12 5.84l8.12.76v7.88h-48.99v-7.64l6.08-.76c3.04-.24 5.6-1.76 3.04-5.32l-2.28-3.56h-34.8l-2.8 4.32c-1.52 2.52 0 4.32 2.56 4.56l6.36.76v7.64h-36.32Z" style="fill:#e20613"/></svg>