<svg xmlns="http://www.w3.org/2000/svg" id="Capa_3" viewBox="0 0 410 251.63"><defs><style>.cls-2{fill:#e20613}</style></defs><path d="M264.1 50.94h-42.02v-.01h-30.63v.01h-45.23l-5.77 29.13h44.67l-25.94 119.41h30.63l25.94-119.41h44.01z" class="cls-2"/><path d="m146.52 90.13 3.98-20.11H95.96L92.7 90.13h15.57l-12.74 58.68H79.75l-3.98 20.11h53.81l3.98-20.11h-17.64l12.75-58.68zM322.72 75.76h-18.94l-6.86 56.45-38.29-56.45h-8.87l-15.65 91.87h18.94l8.8-51.67 43.26 63.18z" class="cls-2"/><path d="M187.94 23.12c93.72-10.79 174.81 24.9 181.12 79.72s-64.55 108-158.27 118.79-174.81-24.9-181.12-79.72 64.55-108 158.27-118.79M5 122.88c0 65.11 87.66 117.88 195.79 117.88s195.79-52.78 195.79-117.88S308.92 5 200.79 5 5 57.78 5 122.88" style="fill:#48b8c6"/><path d="M219.84 228.76c-94.94 10.93-177.13-25.57-183.57-81.52s65.3-110.17 160.24-121.1 177.13 25.57 183.57 81.52-65.3 110.17-160.24 121.1M405 128.75c0-65.11-87.66-117.88-195.79-117.88S13.43 63.64 13.43 128.75s87.66 117.88 195.79 117.88 195.79-52.78 195.79-117.88Z" style="fill:#f37920"/><path d="M215.16 225.49c-94.94 10.93-177.13-25.57-183.57-81.52S96.89 33.8 191.83 22.87s177.13 25.57 183.57 81.52-65.3 110.17-160.24 121.1m183.09-101.3C398.25 59.8 311.06 7.6 203.5 7.6S8.75 59.8 8.75 124.19 95.94 240.78 203.5 240.78s194.75-52.2 194.75-116.59" class="cls-2"/></svg>