<svg xmlns="http://www.w3.org/2000/svg" viewBox="0 0 510 137.59"><rect width="500" height="127.59" x="5" y="5" rx="11.46" ry="11.46"/><path d="M16.46 16.46h477.08v104.66H16.46z" style="fill:#ff0"/><path d="m93.77 98.13-.05-41.25L82.7 98.13H69.5L58.59 57.04l-.08 41.09H41.64V39.69h25.47l9.15 36.25 9-36.26h25.47v58.45H93.78Zm344.06-61.12c-16.87 0-30.54 14.23-30.54 31.78s13.67 31.78 30.54 31.78 30.54-14.23 30.54-31.78-13.67-31.78-30.54-31.78m-1.19 48.18c-4.4-.35-7.93-2.96-9.6-7.22-2.12-5.44-2.01-13.53.43-18.85 1.98-4.32 5.87-6.86 10.47-6.82 6.42.05 10.61 4.22 11.75 10.68.7 3.97.6 7.99-.29 11.91-1.53 6.75-5.99 10.83-12.76 10.3m-40.46-13.83c2.91-2.22 4.82-5.35 5.46-9.08 1.2-8.51-.95-16.57-8.75-20.39-3.23-1.45-6.57-2.19-10.2-2.19l-32.29-.02v58.44h17.82V77.51l5.18.02 10.89 20.6h19.89l-13.75-23.56c2.17-.95 3.99-1.88 5.73-3.2Zm-15.64-6.53c-1.27.38-2.6.66-3.97.66l-8.35.02V51.93l8.53.03c1.35 0 2.68.31 3.92.69 1.55.69 2.72 1.81 3.2 3.51.98 3.44.1 7.35-3.33 8.66Zm-91.11 22.21c1.56-3.73 1.98-7.8 1.31-11.8-.99-5.94-5.34-9.64-10.6-11.71-2.47-.97-4.95-1.69-7.57-2.19l-7.9-1.5c-2.72-.51-6.13-1.4-6.25-3.96-.12-2.68 2.22-3.61 4.9-4.01 5.76-.21 12.76.89 16.18 5.92l11.22-9.69c-7.55-9.3-21.46-11.68-32.52-9.69-8.33 1.49-15.84 6.35-17.3 15.42-1.08 6.69.56 12.65 6.03 16.52 3.12 2.21 6.61 3.61 10.35 4.35l9.41 1.86c2.81.56 6.57 1.48 6.88 4.04s-1.72 4.02-4.37 4.68c-6.91 1.12-16.29-.49-19.71-7.35l-13.59 9.11c4.55 6.48 10.84 10.01 18.25 11.74 8.99 1.79 19.55 1.78 27.57-3.05 3.41-2.05 6.13-4.91 7.71-8.68ZM159.92 98.13h19.1l-21.01-58.45H137.8l-21.49 58.44 19.09.02 2.48-8.09h19.58zm-18.23-21.16 6.13-20.55 5.97 20.53zm85.23-15.78h-24.91v-8.67h26.66V39.68h-44.48v58.44h46.87V85.46h-29.12v-11.6h25zm102.45-7.09h14.25V39.68H297.3v14.41h14.32v44.03h17.75V54.09Z"/></svg>