<svg xmlns="http://www.w3.org/2000/svg" viewBox="0 0 510 264.58"><path d="M495.8 48.66c5.06.02 9.17-4.06 9.2-9.12v-.07c0-5.15-4.07-9.25-9.2-9.25s-9.19 4.1-9.19 9.25 4.04 9.19 9.19 9.19m0-2.16c-4.01 0-7.01-2.95-7.01-7.02s3.01-7.06 7.01-7.06 7.01 2.92 7.01 7.06-3.07 7.02-7.01 7.02m2.11-6.39c1.7-.12 2.59-.83 2.59-2.62 0-2.52-1.51-2.92-3.72-2.92h-4.64v9.57h2.14v-4.03h1.49l2.14 4.03h2.31zm-3.63-1.46v-2.4h2.05c.94 0 2.18 0 2.18.98 0 1.19-.6 1.42-1.69 1.42h-2.55ZM172 234.9C79.85 201.35 28.19 105.8 46.99 12.5H7.36C-7.5 111.69 48.85 210.92 146.74 246.53c102.19 37.2 214.25-7.81 263.79-101.24-45.67 83.29-146.5 123.1-238.52 89.61ZM461.65 31.03V52.7h-9.91v.02c-19.23 0-34.81 15.59-34.81 34.81s15.58 34.82 34.81 34.82c10.46 0 19.84-4.63 26.22-11.93h.01V31.03zm-.03 71.65a18.5 18.5 0 0 1-9.89 2.9c-10.18 0-18.46-8.28-18.46-18.46s8.28-18.46 18.46-18.46h9.89v34.03ZM305.19 52.65c-10.47 0-19.85 4.63-26.23 11.93v.02l-.03 79.39h16.35v-21.7h9.91c19.23 0 34.82-15.59 34.82-34.82s-15.59-34.82-34.82-34.82m0 53.27h-9.88V71.89c2.93-1.86 6.34-2.9 9.88-2.9 10.18 0 18.45 8.29 18.45 18.46s-8.27 18.46-18.45 18.46Zm-35.02-41.43c-6.38-7.27-15.73-11.86-26.16-11.86-19.23 0-34.82 15.58-34.82 34.82s15.59 34.81 34.82 34.81h.11l9.85-9.86-.02 9.85h16.23V64.5h-.02Zm-16.22 38.63c-2.97 1.9-6.42 2.9-9.95 2.9-10.25 0-18.58-8.34-18.58-18.58s8.34-18.6 18.58-18.6c3.66 0 7.07 1.07 9.95 2.9zm113.73-23.75 16.15 16.09h24.88c1.6-3.69 3.11-8.87 2.19-16.09-1.95-14.99-14.78-26.58-30.3-26.63-19.13 0-34.69 15.56-34.69 34.7s15.64 34.8 34.76 34.8c8.03 0 15.8-2.79 22-7.89l-11.58-11.58c-3.06 2.11-6.7 3.24-10.42 3.25h-.06c-10.26 0-18.59-8.34-18.59-18.58s8.33-18.6 18.59-18.6c6.53.04 12.03 4.52 13.78 10.53h-26.7ZM105.73 53.39c.64-2.06 2.5-3.44 4.64-3.44s4 1.39 4.65 3.47c0 .02 16.64 62.1 18.44 68.82h19.38l-19.95-74.46c-.83-2.66-2.12-5.15-3.83-7.36-4.51-5.85-11.32-9.21-18.69-9.21s-14.18 3.36-18.69 9.21c-1.7 2.2-3 4.68-3.82 7.33-.01.01-18.1 67.53-19.97 74.49h19.38l18.46-68.86Zm85.48-5.6c-.84-2.66-2.13-5.15-3.83-7.37-4.52-5.85-11.33-9.21-18.7-9.21s-14.18 3.36-18.69 9.21c-1.69 2.2-2.99 4.68-3.81 7.33l-2.4 8.94 9.68 36.21 10.59-39.52c.64-2.06 2.5-3.44 4.64-3.44s4 1.39 4.65 3.47c0 .02 16.64 62.1 18.43 68.82h19.38l-19.94-74.46Zm79.09-15.03h-6.97l-2.03-4.65h-10.06l-1.8 4.65h-6.36L255.64 5h2zm-10.2-7.36-3.97-9.18-3.9 9.18zm27.07.73c0 2.1-.79 3.8-2.36 5.08q-2.37 1.92-5.85 1.92c-1.09 0-2.39-.1-3.91-.31s-2.87-.61-4.04-1.2v-4.89c.93.49 1.98.92 3.16 1.28s2.54.54 4.1.54q1.665 0 2.7-.45c1.035-.45 1.03-.85 1.03-1.63 0-.53-.29-.95-.87-1.28-.57-.33-1.58-.55-3.01-.67-2.56-.2-4.35-.8-5.38-1.78s-1.54-2.29-1.54-3.94c0-1.87.78-3.4 2.35-4.61s3.49-1.81 5.78-1.81c1 0 2.07.09 3.21.26s2.1.39 2.9.65v4.95c-.95-.42-1.94-.74-2.96-.96-1.05-.21-2.11-.32-3.18-.31-.91 0-1.63.15-2.14.44s-.77.63-.77 1.02c0 .73.37 1.21 1.1 1.44.75.24 1.53.38 2.31.42 2.46.15 4.3.74 5.54 1.76 1.23 1.01 1.85 2.38 1.85 4.1Zm25.75 0c0 2.1-.79 3.8-2.37 5.08s-3.53 1.92-5.85 1.92c-1.09 0-2.39-.1-3.91-.31s-2.87-.61-4.04-1.2v-4.89c.93.49 1.98.92 3.16 1.28s2.55.54 4.1.54c1.12 0 2.01-.15 2.7-.45.68-.3 1.03-.85 1.03-1.63 0-.53-.29-.95-.86-1.28-.58-.33-1.58-.55-3.01-.67-2.56-.2-4.35-.8-5.38-1.78s-1.54-2.29-1.54-3.94c0-1.87.78-3.4 2.35-4.61s3.5-1.81 5.78-1.81c1 0 2.07.09 3.21.26s2.1.39 2.9.65v4.95c-.95-.42-1.94-.74-2.96-.96-1.05-.21-2.11-.32-3.18-.31-.92 0-1.63.15-2.14.44s-.77.63-.77 1.02c0 .73.37 1.21 1.1 1.44.75.24 1.53.38 2.31.42 2.46.15 4.3.74 5.54 1.76 1.23 1.01 1.85 2.38 1.85 4.1Zm35.26 6.63h-5.79v-12.1c0-.71-.25-1.33-.76-1.87s-1.3-.81-2.39-.81c-.89 0-1.69.16-2.38.49-.67.3-1.27.73-1.77 1.26v13.04h-5.79v-12.1c0-.71-.25-1.33-.76-1.87-.5-.54-1.29-.81-2.38-.81-1.02 0-1.88.2-2.58.59-.7.4-1.21.78-1.53 1.16v13.04h-5.79V13.51l5.79-.42v1.87l2.24-1.31c.74-.43 1.47-.72 2.18-.87.72-.16 1.45-.23 2.19-.23 1.33 0 2.47.26 3.41.77.94.52 1.66 1.22 2.17 2.12l3.12-1.8c.64-.37 1.34-.65 2.06-.83.76-.18 1.54-.28 2.33-.28 2 0 3.58.59 4.72 1.77s1.72 2.73 1.72 4.66v13.79Zm25.18-2.92-4.51 3.52c-.67-.2-1.29-.55-1.81-1.02s-.86-1-1.02-1.6l-3.55 1.92c-.14.07-.37.15-.71.22-.34.08-.61.12-.84.12-2.73 0-4.99-.89-6.77-2.67s-2.67-4.25-2.67-7.42.92-5.49 2.78-7.44c1.85-1.95 4.21-2.93 7.08-2.93 1.15 0 2.22.22 3.21.65 1 .43 1.65.82 1.97 1.16l3.29-1.15 1.12.3v12.31c0 1.08.2 1.93.6 2.57.39.64 1.01 1.12 1.86 1.46Zm-7.94-2.72v-8.36c-.41-.47-.91-.86-1.47-1.15-.61-.32-1.35-.48-2.23-.48-1.26 0-2.31.44-3.14 1.32s-1.25 2.34-1.25 4.37c0 1.62.39 2.91 1.16 3.89.78.98 1.86 1.46 3.27 1.46.8 0 1.55-.12 2.25-.38.7-.25 1.17-.48 1.41-.68Zm24.8-7.88c-.37-.27-.87-.51-1.53-.72s-1.43-.31-2.32-.31c-1.04 0-1.92.15-2.63.45s-1.31.67-1.78 1.11v12.98h-5.79V13.51l5.79-.42v1.93l1.82-1.07a9 9 0 0 1 1.95-.83c.73-.22 1.4-.33 2.02-.33.65 0 1.17.04 1.57.12s.7.16.91.26v6.08Zm12.51 10.14-4.21 3.74c-1.74-.68-3.04-1.67-3.9-2.98-.87-1.31-1.3-2.86-1.3-4.68v-8.4h-1.93V13.5h1.93V7.1l5.79-.42v6.82h3.02v3.56h-3.02v6.85c0 1.37.33 2.5.98 3.41.65.9 1.53 1.59 2.64 2.05Zm30.21.46-4.51 3.52c-.67-.2-1.29-.55-1.81-1.02s-.86-1-1.02-1.6l-3.55 1.92c-.14.07-.38.15-.71.22-.34.08-.61.12-.84.12-2.73 0-4.99-.89-6.77-2.67s-2.67-4.25-2.67-7.42.92-5.49 2.78-7.44c1.85-1.95 4.21-2.93 7.08-2.93 1.1 0 2.19.21 3.21.65 1 .43 1.65.82 1.97 1.16l3.29-1.15 1.12.3v12.31c0 1.08.2 1.93.59 2.57.4.64 1.02 1.12 1.86 1.46ZM425 27.12v-8.36c-.37-.44-.87-.83-1.48-1.15-.6-.32-1.35-.48-2.22-.48-1.26 0-2.31.44-3.14 1.32s-1.25 2.34-1.25 4.37c0 1.62.39 2.91 1.16 3.89.78.98 1.87 1.46 3.27 1.46.8 0 1.55-.12 2.25-.38s1.17-.48 1.41-.68Zm26.06-.99c0 2.1-.79 3.8-2.37 5.08s-3.53 1.92-5.85 1.92c-1.09 0-2.39-.1-3.91-.31s-2.87-.61-4.04-1.2v-4.89c.93.49 1.98.92 3.16 1.28s2.54.54 4.1.54q1.665 0 2.7-.45c.68-.3 1.03-.85 1.03-1.63 0-.53-.29-.95-.87-1.28-.57-.33-1.58-.55-3.01-.67-2.56-.2-4.35-.8-5.38-1.78s-1.54-2.29-1.54-3.94c0-1.87.78-3.4 2.35-4.61s3.49-1.81 5.78-1.81c1 0 2.07.09 3.21.26s2.1.39 2.9.65v4.95c-.95-.42-1.94-.74-2.96-.96-1.05-.21-2.11-.32-3.18-.31-.91 0-1.63.15-2.14.44s-.77.63-.77 1.02c0 .73.37 1.21 1.1 1.44.75.24 1.53.38 2.31.42 2.46.15 4.3.74 5.54 1.76 1.23 1.01 1.85 2.38 1.85 4.1Z" style="fill:#e20613"/></svg>