<svg xmlns="http://www.w3.org/2000/svg" id="Capa_3" viewBox="0 0 510 186.74"><defs><style>.cls-2{fill:#fff}</style></defs><path d="M503.1 7.58A7.6 7.6 0 0 0 497.39 5H12.61a7.627 7.627 0 0 0-7.56 8.57l8.27 65.86-7.75 72.46c-.23 2.15.47 4.29 1.91 5.9a7.62 7.62 0 0 0 7.06 2.39c43.79-8.2 89.9-14.3 136.62-18.15v36.33a3.38 3.38 0 0 0 3.65 3.37c33.31-2.66 66.91-4.17 100.18-4.48 33.28.31 66.87 1.82 100.18 4.48 1.97.16 3.65-1.39 3.65-3.37v-36.33c46.73 3.85 92.84 9.95 136.62 18.15a7.616 7.616 0 0 0 7.06-2.39 7.62 7.62 0 0 0 1.91-5.9l-7.75-72.46 8.27-65.86c.27-2.17-.4-4.35-1.85-5.98Z" style="fill:#026342"/><path d="m490.74 79.17 8.33-66.35c.13-1.01-.66-1.9-1.68-1.9H12.61c-1.02 0-1.81.89-1.68 1.9l8.33 66.35q.03.195 0 .39l-7.81 72.95c-.12 1.13.87 2.05 1.99 1.84 73.72-13.81 156.66-22.26 241.55-23.02 84.89.77 167.83 9.22 241.55 23.02 1.11.21 2.11-.71 1.99-1.84l-7.81-72.95q-.015-.195 0-.39Z" class="cls-2"/><path d="M99.03 105.97c-3.61.44-7.21.9-10.81 1.37.05-13.31.11-26.62.16-39.94-4.8 7.97-9.59 16.19-14.38 24.7-1.7.17-3.4.35-5.09.53-4.66-7.61-9.32-15.47-14-23.61-.02 14.38-.04 28.76-.07 43.14-3.59.57-7.18 1.15-10.77 1.75 0-16.73.02-33.45.02-50.18 0-3.61-.18-6.18-.54-7.73-.57-2.91-1.83-4.8-3.79-5.67v-1.6l16-.06c5.55 9.73 11.08 19.07 16.6 28.06 5.55-9.75 11.11-19.12 16.67-28.17 3.41 0 6.83-.02 10.24-.03-.09 19.14-.18 38.29-.26 57.43Zm71.59-32.16c-.03 7.19-2.6 13.37-7.69 18.73-5.71 5.98-13.38 9.45-22.98 10.33-8.73.8-15.91-1.12-21.55-6.11-5.65-4.97-8.44-11.78-8.4-20.2s2.93-15.55 8.66-21.12 12.98-8.23 21.76-8.22c8.93 0 16.2 2.59 21.83 7.59s8.42 11.28 8.39 19Zm-11.94.46c.03-5.51-1.68-10-5.12-13.53-3.44-3.52-7.84-5.3-13.21-5.23s-9.78 1.98-13.23 5.82-5.19 8.74-5.22 14.6c-.03 5.75 1.69 10.45 5.15 13.98 3.46 3.54 7.83 5.04 13.09 4.63 5.37-.42 9.8-2.55 13.28-6.36 3.48-3.8 5.23-8.42 5.26-13.93Zm55.67 22.97c-10.87.32-21.74.79-32.61 1.39.06-12.89.11-25.79.17-38.68.01-2.78-.16-4.77-.53-5.96q-.855-3.375-3.84-4.38v-1.23c5.08 0 10.17-.01 15.25-.02-.05 14.03-.11 28.07-.16 42.1 7.24-.29 14.49-.53 21.73-.71 0 2.5-.01 4.99-.02 7.49Zm21.28-.45c-3.63.05-7.25.11-10.88.19.02-12.48.05-24.96.07-37.44 0-2.69-.17-4.64-.54-5.84-.57-2.18-1.86-3.57-3.85-4.17v-1.19h15.25l-.06 48.46Zm53.42-41.04q-7.98-.045-15.96-.06l.06 41.14c-3.63-.06-7.25-.09-10.88-.12 0-13.68-.02-27.36-.03-41.05h-16.03v-7.34c14.27 0 28.54 0 42.81.01 0 2.47.01 4.94.02 7.41Zm50.85 44.08c-4.04-.29-8.09-.55-12.14-.8-1.83-4.14-3.65-8.26-5.48-12.35-7.22-.31-14.43-.58-21.65-.8-1.68 3.88-3.35 7.74-5.03 11.59-3.53-.13-7.05-.24-10.58-.33 7.39-16.07 14.76-32.27 22.1-48.79 3.17 0 6.35 0 9.52.01 7.73 16.69 15.49 33.78 23.25 51.46Zm-20.94-20.46c-2.12-4.88-4.23-9.72-6.35-14.54-.68-1.53-1.2-3.15-1.57-4.86-.41 1.7-.92 3.31-1.53 4.82-1.95 4.73-3.89 9.44-5.84 14.13 5.1.13 10.19.29 15.29.46Zm63.88 23.92c-10.83-1.11-21.68-2.09-32.53-2.92l-.21-39.99c-.02-2.87-.21-4.93-.58-6.18-.59-2.33-1.89-3.85-3.88-4.54V48.4c5.08 0 10.17.02 15.25.03l.24 44.73c7.23.52 14.46 1.1 21.68 1.73.01 2.8.03 5.59.04 8.39Zm21.9 2.36c-3.61-.43-7.21-.85-10.82-1.25-.07-14.34-.15-28.68-.22-43.02-.02-3.09-.21-5.34-.59-6.73-.59-2.51-1.89-4.12-3.89-4.81v-1.35c5.08.01 10.17.03 15.25.04zm64.45 8.99c-4.01-.68-8.02-1.35-12.03-1.99q-2.7-8.07-5.4-15.93c-7.17-.86-14.35-1.67-21.53-2.43-1.66 4.6-3.33 9.15-4.99 13.65-3.5-.47-7.01-.93-10.51-1.37 7.3-18.41 14.62-37.66 21.96-57.95l9.52.03c7.71 20.79 15.38 42.72 22.99 65.99Zm-20.73-27.28c-2.1-6.2-4.2-12.32-6.3-18.34-.68-1.92-1.2-3.93-1.56-6.06-.41 2.1-.92 4.07-1.53 5.9-1.94 5.77-3.88 11.47-5.82 17.09 5.08.45 10.15.92 15.22 1.4Z" style="fill:#f1072a"/><path d="M196.61 158.08c0 2.67-.66 4.92-1.97 6.73-1.48 2.06-3.53 3.09-6.16 3.09l-7.2-.03v-14.72c0-2.37-.5-3.76-1.48-4.15v-.73h8.69q3.96 0 6.18 3.09c1.3 1.79 1.95 4.04 1.95 6.73Zm-5.27-.04c0-1.37-.21-2.53-.64-3.49-.65-1.46-1.74-2.19-3.28-2.19h-1.15v11.33h1.15c1.54 0 2.63-.73 3.28-2.19.43-.94.64-2.09.64-3.46m19.25 9.83h-10.95v-14.72c0-2.37-.5-3.76-1.48-4.15v-.73h12.25v4.37h-5.76v3.31h5.56v3.95h-5.56v3.59h5.94zm14.19-5.44c0 1.78-.55 3.22-1.66 4.32-1.18 1.16-2.77 1.74-4.76 1.74-2.29 0-3.94-.51-4.96-1.54l-.02-5.55c1.27 1.81 2.7 2.72 4.28 2.72 1.36 0 2.04-.52 2.04-1.57 0-.69-.47-1.34-1.4-1.94l-2.37-1.49c-1.82-1.2-2.73-3.02-2.73-5.47 0-1.7.54-3.1 1.62-4.21 1.17-1.18 2.77-1.77 4.81-1.77 1.91 0 3.38.49 4.43 1.46v5.05c-1.2-1.38-2.47-2.08-3.83-2.08-1.26 0-1.88.44-1.88 1.32q0 .84 1.26 1.74c1.26.86 2.18 1.51 2.77 1.94 1.61 1.22 2.42 2.99 2.42 5.33Zm18.81-4.35c0 2.67-.66 4.92-1.97 6.73-1.48 2.06-3.53 3.09-6.16 3.09l-7.2-.03v-14.72c0-2.37-.5-3.76-1.48-4.15v-.73h8.69q3.96 0 6.18 3.09c1.3 1.79 1.95 4.04 1.95 6.73Zm-5.28-.04c0-1.37-.21-2.53-.64-3.49-.65-1.46-1.74-2.19-3.28-2.19h-1.15v11.33h1.15c1.54 0 2.63-.73 3.28-2.19.43-.94.64-2.09.64-3.46m19.26 9.83h-10.95v-14.72c0-2.37-.5-3.76-1.48-4.15v-.73h12.25v4.37h-5.76v3.31h5.56v3.95h-5.56v3.59h5.94zm20.05 0h-5.45v-14.72c0-2.37-.54-3.76-1.62-4.15v-.73h7.07zm17.67-12.09c0 3.52-1.01 6.46-3.04 8.83q-2.865 3.315-7.23 3.87l-2-3.76q2.415-.33 4.17-1.77 1.77-1.425 2.22-3.42c-.74.54-1.64.81-2.69.81-1.51 0-2.74-.48-3.7-1.43-1.1-1.07-1.65-2.56-1.65-4.49 0-2.06.72-3.72 2.16-4.99q1.935-1.71 4.59-1.71c2.11 0 3.81.67 5.07 2.02 1.4 1.48 2.11 3.49 2.11 6.03Zm-5.58-1.12c0-1.18-.19-2.01-.56-2.5-.25-.32-.57-.48-.94-.48q-.735 0-1.17.81c-.22.43-.33.94-.33 1.51 0 1.57.49 2.36 1.47 2.36q.885 0 1.5-.84.03-.51.03-.87Zm22.13 6.98c0 2.09-.71 3.79-2.13 5.08q-1.95 1.77-4.62 1.77c-2.11 0-3.81-.68-5.07-2.05-1.4-1.51-2.11-3.57-2.11-6.17 0-3.5 1.07-6.41 3.22-8.75 1.91-2.08 4.24-3.32 7-3.73l2 3.76c-1.61.22-2.97.77-4.08 1.64-1.12.87-1.86 1.95-2.23 3.24.74-.54 1.63-.81 2.66-.81 1.51 0 2.75.49 3.73 1.46 1.08 1.08 1.62 2.61 1.62 4.57Zm-5.35.46c0-1.6-.48-2.4-1.43-2.4-.59 0-1.08.28-1.48.84v.47c0 1.41.2 2.4.6 2.96.23.32.54.47.91.47q1.41 0 1.41-2.34Zm23.71 1.48h-2.18v4.29h-5.45v-4.29h-7.23v-3.23l6.44-12.09h6.24v11.36h2.18v3.95Zm-7.35-3.87v-5.5h-.18c-.12.52-.32 1.08-.61 1.68l-1.9 3.81h2.69Z" class="cls-2"/></svg>