<?xml version="1.0" encoding="utf-8"?>
<!-- Generator: Adobe Illustrator 30.6.0, SVG Export Plug-In . SVG Version: 9.03 Build 0)  -->
<svg version="1.1" baseProfile="tiny" id="Capa_1" xmlns="http://www.w3.org/2000/svg" xmlns:xlink="http://www.w3.org/1999/xlink"
	 x="0px" y="0px" viewBox="-2.85 -2.99 1070 1100" overflow="visible" xml:space="preserve">
<path fill="#6A523A" d="M621.61,389.54l7.96,14.31c-22.16,12.36-48,15.51-69.98,15.54c-26.36-0.01-47.39-4.68-50.06-5.29
	c-5.32-0.92-10.7-1.38-16.09-1.37c-25.05-0.04-43.49,10.01-47.2,12.26c-0.53,0.32-0.66,0.41-0.66,0.41l-9-13.7
	c0.75-0.45,23.24-15.31,56.86-15.37c6.03,0,12.42,0.49,19.11,1.65l0.25,0.05l0.24,0.06c0.02-0.02,4.96,1.19,13.41,2.44
	c8.44,1.24,20.18,2.48,33.16,2.48C579.99,403.04,603.3,399.84,621.61,389.54z M566.6,509.23l0.38,0c2.01-0.01,4-0.25,5.96-0.72
	c3.07-0.82,30.69-8.71,84.24-84.43l-13.35-9.48c-26.15,37.05-45.58,56.81-58.08,67.12c-6.25,5.16-10.77,7.96-13.52,9.42
	c-1.05,0.56-2.13,1.05-3.24,1.47c-0.82,0.17-1.48,0.23-2.01,0.23c-2.22-0.2-2.63-0.32-4.63-4.53c-1.61-4.01-2.34-10.68-2.31-16.85
	c-0.01-4.41,0.3-8.6,0.62-11.65c0.31-3.04,0.61-4.81,0.59-4.82l1.58-9.7l-9.8,0.19c-22.41,0.53-50.48,10.03-73.72,19.22
	c-23.14,9.22-41,18.28-41.15,18.35l7.38,14.63c13.03-6.45,26.31-12.37,39.81-17.75c18.75-7.53,41.22-14.98,58.65-17.31
	c-0.18,2.65-0.32,5.65-0.32,8.83c0.02,7.27,0.59,15.37,3.42,22.79l0,0C549.49,501.4,556.49,509.23,566.6,509.23z M633.21,519.78
	c6.64-9.31,17.42-23.51,29.29-35.86c12.37-13.52,34.07-27.18,43.24-29.17l-12.75-11.39c-20.31,5.24-38.97,24.75-54.39,42.7
	c-15.15,18.02-25.99,34.82-26.11,34.99l-0.35,0.54l-0.28,0.63l-1.05,1.48c-2.91,4.79-6.29,8.67-11.64,13.1
	c-2.68,2.26-5.21,4.2-7.06,5.54c-1.86,1.35-2.94,2.04-2.94,2.05c-12.37,8.1-29.98,14.18-48.77,18.61
	c-5.53-18.39-14.18-30.88-24.44-38.58c-10.69-8.05-22.63-10.57-32.93-10.55c-16.71,0.06-29.76,6.16-32.09,7.27l-67.52,28.01
	l6.26,15.15l67.99-28.21l0.3-0.15c0,0,0.49-0.25,1.75-0.78c3.76-1.6,13.16-4.92,23.31-4.89c7.8,0.02,15.81,1.81,23.11,7.28h0
	c6.8,5.12,13.41,13.77,18.17,28.83c-9.21,1.7-18.43,3.04-27.21,4.07c-13.74,1.62-27.53,2.75-41.35,3.38
	c-10.6,0.47-17.04,0.46-17.05,0.47h0.01v16.4c0.2-0.01,27.12,0,60.32-3.97c33.27-4.05,72.63-11.65,99.03-28.57
	c0.16-0.24,2.66-1.79,6.28-4.55c0.91,0.29,7.76,2.42,18.85,2.42l0.2,0c15.85,0,40.27-4.6,67-24.74l1.14-21.55
	c-24.04,18.01-42.13,28.77-68.35,29.9c-1.39,0-2.68-0.05-3.88-0.12c2.52-2.98,4.96-6.29,7.11-9.92
	C628.64,526.29,630.9,523.02,633.21,519.78z M67.94,598.58c0.01-0.1,0.03-0.19,0.04-0.29c0.27-3.4,3.67-17.23,13.11-20.76
	l121.1-49.62c0.75-0.22,4.29-1.19,10.2-1.19c14.39,0.07,43.23,5.52,80.91,44.31l11.74-11.42h-0.01
	c-39.93-41.36-73.74-49.36-92.64-49.28c-9.53,0-15.14,1.94-15.88,2.21l-12.65,5.18l-45.26-45.39c-1.47-2.42-6.49-11.98-6.42-22.97
	c-0.01-2.77,0.3-5.52,0.91-8.2c26.41,20.75,59.52,29.29,60.01,29.6l4.28-15.82c-0.01-0.01-4.86-1.31-12.45-4.17
	c-11.4-4.27-28.55-11.97-42.27-22.87c-13.85-11.01-23.62-24.41-23.57-40.56c0-2.78,0.3-5.7,0.91-8.77
	c3.53,2.94,7.86,5.77,13.09,8.42c4.41,2.65,30.07,18.52,55.75,18.8c4.46,0,8.98-0.53,13.38-1.82l0.34-0.1l0.33-0.12
	c0.02-0.01,4.77-1.88,11.68-3.8c6.88-1.93,15.78-3.78,22.95-3.75c1.81-0.03,3.62,0.1,5.41,0.39l0.17,0.03l0.18,0.03
	c0.01,0,2.36,0.29,6.61,1.08c12.74,2.34,41.3,9.5,61.28,24.83l13.71-11.21c-30.31-22.88-75-30.28-79.23-30.92v-0.01
	c-2.7-0.45-5.41-0.62-8.12-0.62c-17.7,0.11-36.69,7.25-40.07,8.5c-2.59,0.74-5.5,1.11-8.61,1.11c-10.08,0.06-22.32-3.97-31.71-8.23
	c-4.71-2.12-8.74-4.24-11.55-5.83c-2.82-1.58-4.31-2.55-4.31-2.54l-0.35-0.22l-0.31-0.15c-16.25-8.69-17.15-14.87-17.25-17.5
	c0-1.38,0.38-2.73,1.1-3.91c21.28-21.5,74.33-23.81,81.95-23.44c0.64,0,0.9,0.01,0.91,0.01l0.39-16.39c-0.07,0-0.5-0.01-1.3-0.01
	c-9.12,0.38-64.37,0.01-94.02,28.76l-0.28,0.28l-0.24,0.29c-0.57,0.77-4.78,5.81-4.87,14.42c-0.02,2.3,0.32,4.69,1.07,7.12
	c-3.64,8.77-5.36,17.25-5.35,25.27c-0.01,15.41,6.29,28.67,15.07,39.22c0.69,0.82,1.4,1.63,2.12,2.42
	c-2.72,6.44-4.12,13.37-4.1,20.39c0.11,18.81,9.18,31.99,9.57,32.71l0.44,0.65l41.61,41.73l-92.66,37.97
	c-11.05,4.77-16.76,13.95-19.67,21.2c-2.94,7.34-3.43,13.29-3.49,13.81l-0.02,0.31v40.77v0h16.34L67.94,598.58z M587.78,611
	c-0.65,0-0.84-0.01-0.84-0.01H469.09c-27.32,0.03-47.79,7.89-48.32,8.05l-0.54,0.2l-1.76,0.55c-4.07,1.34-9.8,3.36-15.92,4.39
	c-5.66,1.02-10.45,1.56-11.28,1.66c-0.94,0.05-1.84,0.09-2.7,0.09c-14.12,0.07-28.3-7.02-38.83-14.54
	c-4.04-2.88-7.88-6.03-11.52-9.4l17.58-13.83l-10.09-12.9l-85.4,67.21l0.54-26.5l-0.13-0.74c-0.14-0.77,0.33-10.72-8.18-22.3
	c-6.57-9.56-18.84-20.1-38.8-23.94l-11.39,13.06c13.32,2.67,27.27,9.27,33.87,16.27l0,0.01c0,0,1.13,1.17,2.54,3.33
	c0.13,0.22,0.28,0.44,0.39,0.66l0.06,0.09c3.36,5.43,5.15,11.69,5.15,18.08l0,0.02l-0.58,34.97l-10.37,8.16l-0.2,0.18
	c-16.82,15.51-47.7,16.85-51.6,16.65h-0.48l-0.18,16.39l0.66,0c5.4-0.2,38.74-0.2,62.29-20.64l81.33-64
	c9.7,9.45,33.48,29.66,63.34,30.1c1.34,0,2.65-0.05,3.94-0.13l0.11-0.01l0.26-0.02c4.2-0.48,8.39-1.09,12.55-1.83
	c6.68-1.27,12.15-2.88,20.22-5.81c0.5-0.17,1.42-0.49,2.82-0.91c6.61-2.06,22.59-6.24,40.63-6.23h117.55c-0.2,0,0.28,0.02,1.13,0.02
	c13.13,0.32,113.43-5.68,176.81-145.33l-14.86-6.81C688.76,608.4,597.4,610.67,587.78,611z M215.85,473.42l-1.51,16.33
	c3.69,0.34,7.96,0.47,12.6,0.47c19.19-0.01,44.82-2.23,50.31-2.72c14.76,20.71,37.95,42.62,70.79,42.73c0.83,0,1.62-0.01,2.39-0.04
	l0,0c0.87,0.03,1.74,0.05,2.61,0.05c9.33,0,38.9-1.82,71.46-23.04l-8.92-13.75c-29.02,18.94-55.29,20.4-62.54,20.4
	c-1.42,0-1.93-0.06-1.93-0.05l-0.45-0.03l-0.37,0.02c-0.8,0.03-1.56,0.04-2.24,0.04c-25.12,0.12-44.56-17.49-58.06-36.66
	c-6.68-9.49-11.7-19.12-15.01-26.3c-1.66-3.6-2.89-6.59-3.7-8.66c-0.81-2.06-1.15-3.09-1.15-3.09l-0.18-0.52l-0.25-0.51
	c-7.17-14.52-21.58-18.21-31.54-18.01c-5.75,0.03-11.46,0.91-16.96,2.61l-21.81,4.6l3.38,16.04l22.71-4.8l0.47-0.16
	c0,0,0.17-0.06,0.78-0.24c3.72-1.06,7.56-1.61,11.43-1.66c7.18,0.2,13.06,1.71,16.73,8.58c0.99,2.75,5.04,13.62,12.47,26.81
	c-10.38,0.81-27.31,1.95-40.41,1.95C222.63,473.83,218.73,473.69,215.85,473.42z M69.71,226.88
	c-31.53,15.81-15.77,47.43-15.77,47.43c20.44,38.06,62.48,16.98,62.48,16.98c25.11,12.3,49.63-16.4,49.63-16.4
	c36.79,2.93,39.71-32.2,39.71-32.2l0,0c-21.43,25.72-50.16,19.24-50.16,19.23c-17.38,29.27-44.48,9.76-44.48,9.76
	c-26.04,19.64-38.92-4.53-38.92-4.53c-9.73-20.91,12.86-32.76,12.86-32.76c7.3-35.54,53.17-27.53,53.17-27.53
	c3.82-13.94,29.88-14.29,29.88-14.29v-4.53c-29.19,0-40.31-28.23-40.31-28.23c-41.71-1.74-43.44-46-43.44-46
	c-21.77-18.01-7.65-36.24-7.65-36.24c14.06-17.4,37.53,1.04,37.53,1.04c45.18-9.06,54.21,35.2,54.21,35.2
	c25.72,0,36.49,39.73,36.49,39.73c-0.35-17.78,14.94-28.58,14.94-28.58c2.78-44.95,42.4-42.86,42.4-42.86
	c20.76-29.54,38.23-4.88,38.23-4.88c10.43,16.38-5.21,34.85-5.21,34.85c8,31.36-22.94,41.12-22.94,41.12
	c0.19,29.09-32.67,37.64-32.67,37.64c38.92,7.66,48.39-26.61,48.39-26.61c33.87-13.47,26.28-49.77,26.28-49.77
	c24.18-33.69-7.59-57.38-7.59-57.38C276.99,36,246.63,68.79,246.63,68.79c-41.2,2.21-43.21,51.53-43.21,51.53
	c-1.75-16.98-23.36-21.08-23.36-21.08c-8.17-39.82-59.56-37.47-59.56-37.47c-36.93-25.74-59.56,2.93-59.56,2.93
	c-24.24,31.12,8.76,59.72,8.76,59.72c-1.75,43.33,49.63,51.53,49.63,51.53c1.73,13.11,15.77,16.4,15.77,16.4
	C80.22,187.65,69.71,226.88,69.71,226.88z M305.61,225.13c0,0-64.81,67.34-83.5,132.33h19.27c0,0,25.69-59.72,37.95-72.61
	c0,0,56.06-62.07,64.23-94.27c0,0,5.46-46.59,26.48-54.2c0,0,22.69-11.76,50.02,5.01l24.52,1.76l-13.43,15.22l16.93,15.22
	c0,0-31.53,8.78-35.03,39.23c0,0,21.6-26.93,62.48-35.72l-26.86-21.08l20.44-28.11l-36.2,1.17c0,0-29.78-17.57-57.81-12.88
	c0,0-39.71,7.03-45.54,55.63C329.55,171.84,324.29,207.56,305.61,225.13z M208.9,187.58c-3.65-3.22-7.77,0.81-7.77,0.82
	c-3.1,2.99,0.35,8.37,0.35,8.37c16.33,25.79,36.84,70.4,36.84,70.4l13.55-18.82C245.26,227.43,208.9,187.58,208.9,187.58
	L208.9,187.58z M857.37,139.69c-3.51,77.3,138.76,6.32,138.76,6.32v-19.68c-71.48,34.43-109.33,30.22-109.33,30.22
	c-30.72-5.78,10.51-84.33,10.51-84.33h-18.92c-13.31,26.7-74.28,111.74-74.28,111.74l12.62,14.76L857.37,139.69z M942.17,218.39
	l75.68-29.52V168.5l-167.49,73.09l12.61,16.86c10.04-16.34,53.26-16.17,53.26-16.17c41.35,2.81,79.9-7.73,79.9-7.73V220.5
	c-18.92,6.32-51.86,6.32-51.86,6.32C923.24,226.82,942.17,218.39,942.17,218.39z M503.24,315.27l-4.2,15.68h81.3l-4.21-15.68H503.24
	z M113.2,105.11c-6.26,6.62,53.87,51.23,53.87,51.23l5.21-10.11C159.42,126.72,113.2,105.11,113.2,105.11z M225.45,159.13
	l7.99,10.46c0,0,33.37-41.47,38.93-64.12C272.36,105.46,262.98,97.09,225.45,159.13z M183.05,228.13l-4.17-10.8
	c-33.01,0.7-68.81,29.62-68.81,29.62C117.71,252.87,183.05,228.13,183.05,228.13z M443.55,258.48c-4.87-3.68-11.9-2.56-15.7,2.49
	c-3.8,5.06-5.12,13.72-0.25,17.4c4.87,3.69,14.1,0.99,17.89-4.07C449.29,269.24,448.42,262.16,443.55,258.48z M405.48,168.52
	c4.03-5.37,3.11-12.89-2.06-16.8c-5.17-3.91-12.64-2.72-16.67,2.65c-4.04,5.37-5.44,14.57-0.27,18.47
	C391.66,176.75,401.45,173.89,405.48,168.52z M562.14,99.89c-6.54,3.01-9.27,11.05-6.11,17.95s11.05,10.03,17.59,7.01
	c6.54-3.03,15.14-12.23,11.97-19.12C582.44,98.84,568.68,96.86,562.14,99.89z M783.87,340.08c-7.19-7.18-2.11,8.76-2.11,8.76
	c27.42,67.67,136.77,141.39,136.77,141.39s5.14,3.51,7.54,1.61c0,0,2.83-1.7-6.03-8.86l0,0
	C868.23,439.17,783.87,340.08,783.87,340.08z M358.74,322.33l-41.46,57.38l17.52,10.54l42.04-61.48c0,0,9.34-12.88,9.34-32.2
	c0,0-0.76-30.22,8.76-39.82c0,0,15.77-20.49,49.63-15.22c0,0,17.52,4.68,29.78-2.34l-9.93,18.15l18.69,8.78
	c0,0-51.38,39.82-30.95,115.94h4.09c0,0-4.67-87.24,56.06-117.69l-28.61-12.88l11.09-31.03c0,0-24.67,10.75-41.46,8.2
	c0,0-44.38-10.54-63.06,5.86c0,0-22.25,14.65-21.6,55.04C368.67,289.54,368.26,309.81,358.74,322.33z M806.51,792.1h-27.86
	c-5.85,0-10.59,4.76-10.59,10.62v232.28c0,5.87,4.74,10.62,10.59,10.62h27.86c5.85,0,10.59-4.76,10.59-10.62V802.73
	C817.11,796.86,812.36,792.11,806.51,792.1z M500.64,185.89c0,0,64.23-17.57,79.41,6.44c0,0,9.93,16.98,9.34,42.74
	c0,0-2.92,105.4,104.52,175.66l2.52-5.46c0,0-89.53-73.39-89.53-181.13c0,0,4.67-81.19-77.85-56.99l12.45-22.64h-25.69l10.79-18.19
	c0,0,4.78-9.81,7.9-18.5c0,0,10.9-36.7,45.94-38.26c0,0,37.42-5.03,61.8,23.52c0,0,24.77,28.01,34.74,38.94
	c0,0,25.53,24.7,42.04,39.03c0,0,105.88,91.34,164.27,203.77c0,0,85.83,165.4,102.77,200.64c0,0,24.37,39.73-22.57,5.46
	c0,0-220.33-134.28-308.3-350.54c0,0-9.09-17.98-5.39,6.78c0,0,10.84,89.24,113.02,196.4c0,0,83.68,88.69,161.37,144.32l33.5,97.12
	c0,0,9.06,20.7-3.62,20.7h-13.04c0,0-9.31,0.85-11.96-7.27l-27.16-78.47c-3.04-7.84-4.46-2.57-4.46-2.57
	c-0.15,1.57-0.33,2.41,0.83,9.1l15.58,73.74c0,0,1.72,9.44-6.89,16.34l-9.42,8.36c0,0-9.27,7.35-12.32-2.54L849,555.13
	c0,0-3.99-14.9-6.89-7.27l25.26,154.96c2.6,20.36,4.43,29.4,5.42,33.26l0.11,0.68c0,0,3.16,14.05,17.95,9.27
	c4.23-1.13,8.14-3.23,11.41-6.15c0.12-0.09,0.22-0.14,0.34-0.23l25.36-25.07l46.01-1.82c0,0,16.68,1.45,2.91-33.78h0l-32.43-87.3
	c5.52,3.55,10.97,6.88,16.31,9.92c0,0,44.96,31.03,56.06,23.42c0,0,13.17-1.78-14.01-60.9c0,0-84.67-187.96-164.66-292.18
	c0,0-49.57-67.07-88.17-100.13c0,0-59.05-53.79-71.24-69.09c0,0-45.11-54.6-93.43-52.7c0,0-51.97-1.17-66.57,50.94
	c0,0-7.3,26.2-33.87,56.21h33.28L500.64,185.89z M631.9,821.7v-18.57c-0.01-5.86-4.75-10.62-10.59-10.62v0H226.67
	c-5.85,0-10.59,4.76-10.59,10.62v157.06c0,3.95-2.05,3.95-2.05,3.95c-2.41,0-3.28-2.42-3.28-2.42c-0.02-0.02-0.05-0.03-0.07-0.04
	l-90.86-158.46c-7.04-11.76-18.1-10.72-18.1-10.72H63.17c-5.85,0-10.59,4.76-10.59,10.62v232.49c0,5.87,4.74,10.62,10.59,10.62
	h27.08c5.85,0,10.59-4.76,10.59-10.62v-162.5c0,0-0.14-2.35,1.87-2.35c0,0,1.95,0.03,3.69,3.36l91.82,162.62
	c0,0,5.33,9.41,15.75,9.41h11.88c0.28,0.02,0.54,0.08,0.82,0.08h27.08c5.85,0,10.59-4.76,10.59-10.62v-203.3h356.96
	C627.16,832.32,631.9,827.57,631.9,821.7z M324.14,461.61c0,0-1.83,15.15,12.17,20.57c4.84,2.22,11.98,4.07,22.44,4.21h0.65
	c19.25-0.03,48.36-6.68,93.54-29.7l-7.4-14.61c-43.77,22.36-70.75,27.95-86.13,27.91c-7.99-0.01-12.84-1.44-15.66-2.73
	c-2.89-1.62-3.34-4.33-3.14-6.44c0.64-4.04,3.53-9.01,8.77-14.18c8.97-8.98,23.73-17.51,36.07-23.43c5.18-2.5,10.44-4.83,15.77-6.99
	c4.02-1.62,6.38-2.44,6.38-2.45l-5.46-15.45c-0.25,0.1-18.7,6.62-37.59,17.35c-9.45,5.37-19.04,11.78-26.68,19.34
	c-7.2,7.2-13.08,15.84-13.65,26.31C324.19,461.43,324.16,461.5,324.14,461.61z M1018.65,959.91c0.01,0,0.52,8.12-7.65,8.12l0,0
	H886.2c1.4,31.91,16.77,44.03,44.37,44.03c17.77,0,31.71-10.34,37.68-20.1c2.23-3.64,5.78-3.66,5.78-3.66h32.9
	c0,0,7.25-0.62,4.44,5.68c-14.68,39.19-43.52,56.01-82.56,56.01c-56.94,0-92.22-39.72-92.22-96.45c0-54.96,37.38-96.81,92.22-96.81
	C987.34,856.74,1018.65,900.25,1018.65,959.91z M970.48,933.69c-4.55-25.52-18.96-39.01-43.06-39.01
	c-31.44,0-40.53,24.82-41.22,39.01H970.48z M465.11,959.91c0,0,0.52,8.12-7.64,8.12H332.66c1.4,31.91,16.77,44.03,44.36,44.03
	c17.78,0,31.72-10.34,37.68-20.1c2.23-3.64,5.79-3.66,5.79-3.66h32.9c0,0,7.25-0.62,4.44,5.68c-14.69,39.19-43.53,56.01-82.56,56.01
	c-56.94,0-92.22-39.72-92.22-96.45c0-54.96,37.37-96.81,92.22-96.81C433.79,856.74,465.11,900.25,465.11,959.91z M416.94,933.69
	c-4.54-25.52-18.96-39.01-43.06-39.01c-31.44,0-40.52,24.82-41.22,39.01H416.94z M1008.66,787.87l-157.18,16.35
	c-2.95,0.3-5.36,3.05-5.36,6.11v15.91c0,3.05,2.43,5.56,5.39,5.57h156.27c0,0,6.25,1.07,6.25-6.19l0,0v-32.77
	C1014.03,789.8,1011.61,787.56,1008.66,787.87z M584.62,937.13c-28.29-6.66-56.24-9.11-56.24-26.97c0-14.72,16.41-16.82,27.59-16.82
	c15.65,0,28.88,4.06,32.81,18.12c0,0,1.51,6.5,9.31,6.09l31-1.16c0,0,8.65,0.32,6.97-7.73l-0.14-0.57
	c-7.32-38.1-41.56-49.79-78.54-49.79c-38.79,0-78.61,11.91-78.61,58.15c0,31.88,28.65,45.1,57.29,51.41
	c35.63,7.7,54.55,9.9,54.55,24.96c0,17.52-15.77,20.98-30.79,20.98c-17.55,0-33.96-5.32-37.43-22.06c0,0-0.6-6.27-9.69-6.27h-30.55
	c-8.41,0-6.94,7.14-6.94,7.14c5.67,42.43,44.49,56.61,84.26,56.61c41.22,0,80.9-13.34,80.9-60.98
	C640.36,954.61,613.61,943.79,584.62,937.13z M746.72,863.66h-34.32v-60.94c0-5.87-4.74-10.62-10.59-10.62h-27.86
	c-5.85,0-10.59,4.76-10.59,10.62v60.94h-11.54c-4.76,0-8.6,3.86-8.6,8.63v18.46c0,0,0,0,0,0c0,4.77,3.85,8.63,8.6,8.63h11.54v91.42
	c0,0-2.97,56.92,57.22,56.92c0,0,12.98,0.58,26.18-2.69h0c8.41-1.78,7.68-9.89,7.69-9.89v-18.65c0-6.97-7.38-5.31-7.38-5.31
	c-12.16,1.14-35.04-0.98-34.66-33.26v-78.54h34.32c4.76,0,8.61-3.86,8.61-8.63V872.3C755.34,867.53,751.48,863.66,746.72,863.66z"/>
</svg>
