<svg xmlns="http://www.w3.org/2000/svg" viewBox="0 0 510 125.47"><path d="M133.33 80.11h11.57c4.51 0 6.23 1.56 6.23 5.37s-1.72 5.23-6.23 5.23h-11.57zm-17.92 38.59h17.93v-15.69h19.2c12.71 0 17.29-7.49 17.29-17.17 0-11.24-4.71-17.6-17.42-17.6h-37v50.47Zm60.33-50.46h48.25v12.3h-30.32v6.79h28.17v12.3h-28.17v6.79h30.32v12.3h-48.25V68.25Zm73.68 11.87h11.57c4.51 0 6.23 1.56 6.23 5.37s-1.72 5.23-6.23 5.23h-11.57zM231.5 118.7h17.93v-15.69h19.2c12.72 0 17.3-7.49 17.3-17.17 0-11.24-4.71-17.6-17.42-17.6h-37v50.47Zm71.77-21.41c-8.77-1.49-12.39-7.14-12.39-14.21 0-13.08 11.51-16.61 26.25-16.61 20.21 0 28.54 5.86 29.18 16.54h-20.85c0-2.05-1.08-3.33-2.73-4.03-1.59-.78-3.62-1.06-5.6-1.06-5.34 0-7.18 1.48-7.18 3.6 0 1.41.57 2.33 2.35 2.61l21.42 3.53c9.03 1.48 14.62 6.15 14.62 14.7 0 12.3-9.03 18.1-29.18 18.1-13.8 0-28.86-2.12-28.93-16.96h21.62c.06 1.69.64 2.83 1.91 3.6 1.33.71 3.3 1.06 6.1 1.06 5.59 0 7.12-1.7 7.12-4.1 0-1.48-.83-2.97-3.24-3.39l-20.48-3.39Zm50.92-29.05h17.93v50.47h-17.93zm84.37 30.81c-1.14 6.64-3.18 12.02-7.63 15.69-4.38 3.68-11.25 5.73-22.18 5.73s-31.02-.85-31.02-27 20.15-27 31.02-27 27.46 1.55 29.82 21.56h-20.22c-.51-3.61-2.67-8.84-9.6-8.84-7.31 0-11.95 4.03-11.95 14.28s4.51 14.28 11.06 14.28c5.66 0 9.03-2.61 10.49-8.69h20.22Zm23.46-5.58c0-10.25 4.64-14.28 11.95-14.28s11.95 4.03 11.95 14.28-4.64 14.28-11.95 14.28-11.95-4.03-11.95-14.28m-19.07 0c0 26.15 20.15 27 31.03 27s31.03-.85 31.03-27-20.15-27-31.03-27-31.03.85-31.03 27M88.32 68.74c1.16-24.21-19.72-51.48-48.19-54.85l.05-.33c28.06 0 49.58 25.98 49.58 46.48-.03 4.27-.36 6.91-.96 8.83l-.47-.12Zm-1.7 3.07c-1.87 2.28-4.22 4.58-6.97 6.76-5.06-29.11-26.45-54.56-41.57-61.99l-.32.23c15.21 12.48 33.35 36.72 40.4 62.91-3.6 2.64-7.49 4.87-11.59 6.63-14.35-16.37-27.73-47.93-32.04-67.96l-.44.13c.1 19.44 13.9 52.45 30.73 68.55a57.8 57.8 0 0 1-11.97 3.31c-16.14-6.39-27.62-26.87-27.62-47.84 0-13.69 4.17-22.16 4.98-23.89l-.34-.14c-.98 1.48-7.09 9.94-7.09 24.73 0 23.71 11.69 41.83 27.21 47.53-5.55.61-11.16.35-16.63-.78l-.12.36c1.66.61 7.29 2.98 15.89 2.98 19.44 0 32.58-12.08 37.87-21.26z" style="fill-rule:evenodd;fill:#fff"/><path d="M47.18 5C32.44 5 15.17 15.63 15.17 25.36c0 3.76 3.44 6.94 10.56 6.94 16.53 0 31.88-11.35 31.88-20.18 0-4.65-4.46-7.11-10.43-7.11Zm5.89 6.83c0 7.44-14.29 16.54-26.24 16.54-5.28 0-8.13-2.08-8.13-5.5 0-7.55 14.45-16.49 25.66-16.49 7.31 0 8.71 3.72 8.71 5.46Z" style="fill-rule:evenodd;fill:#0096d6"/><path d="M9.3 29.86c-.41.72-2.07 3.96-2.07 7.29 0 6.17 6.24 11.9 17.71 11.9 22.07 0 47.56-16.24 47.56-31.32 0-6.77-6.41-10.45-10.85-11.21l-.08.26c1.38.44 6.45 2.79 6.45 8.82 0 12.01-22.51 28.38-44.93 28.38-8.58 0-13.99-4.24-13.99-10.41 0-1.95.41-3.24.51-3.61l-.3-.11Z" style="fill-rule:evenodd;fill:#eb7b30"/><path d="M81.59 18.86c.61.46 4.24 3.49 4.24 9.22 0 19.53-30.6 38.74-57.66 38.74-16.13 0-23.49-7.97-23.16-15.04h.29c.63 3.67 5.87 10.25 19.99 10.25 27.09 0 57.33-19.87 57.33-37.28 0-2.99-.81-4.85-1.27-5.68l.24-.2Z" style="fill-rule:evenodd;fill:#00984a"/><path d="M91.82 37.09c.13.42.79 2.29.79 5.21 0 21.73-30.97 40.33-57.9 40.33-13.86 0-21.1-6.73-22.63-9.47l.25-.18c3.84 3.35 11.39 5.9 20.21 5.9 23.79 0 59.28-18.1 58.97-41.71l.33-.08Z" style="fill:#df002c;fill-rule:evenodd"/></svg>