<svg xmlns="http://www.w3.org/2000/svg" id="Capa_2" viewBox="0 0 510 137.35"><defs><linearGradient id="Degradado_sin_nombre_29" x1="381.59" x2="494.09" y1="76.88" y2="76.88" gradientUnits="userSpaceOnUse"><stop offset="0" stop-color="#5596aa"/><stop offset="1" stop-color="#196e82"/></linearGradient><style>.cls-2{fill:#ff6432}</style></defs><path d="M296.26 62.63v46.99h-7.86V64.79c0-4.35-.67-9.05-4.5-9.94-5.47-1.28-9.69 3.04-12.75 7.76v47h-7.76V49.05l7.73-.01.07 6.23c1.86-1.97 3.5-3.72 5.66-5.19 3.66-2.49 8.21-3.36 12.36-1.82 3.2 1.19 5.19 4 6.58 7.3 5.12-5.28 10.03-9.31 17.53-7.69 6.22 1.43 8.06 8.07 8.06 14.46v47.29h-7.91V64.79c0-4.64-.7-9.36-4.9-10.04-5.35-.87-9.39 3.28-12.31 7.88M34.84 70.45c1.01-3.75 1.02-7.64.15-11.43-1.06-4.59-4.17-8.06-8.54-9.76A26.4 26.4 0 0 0 17 47.52l-12.01-.03v62.52h6.41V81.38c5.5.04 10.75.15 15.75-2.07 3.9-1.72 6.58-4.82 7.67-8.87ZM23.1 75.17c-1.83.57-3.71.93-5.66.93h-6.02V53.31h6.02c2.01.01 3.94.38 5.81.99 2.93 1.09 5.04 3.34 5.82 6.39 1.48 5.79.07 12.37-5.96 14.48Zm162.72 26.66c1.52 4.2 5.01 7.06 9.2 7.95 6.33 1.35 12.44-.75 17.13-5.61l.97 5.44h7.94c-.57-4.53-.96-8.81-.97-13.42l-.03-29.79c0-3.3-.53-6.42-1.52-9.43-1.33-4.07-4.26-7.01-8.22-8.21-3.3-1-6.68-1.23-10.11-.72-4.68.69-8.44 3.52-10.81 7.71-1.57 2.86-2.48 5.95-3 9.18l7.56 1.25c1.14-6.06 2.83-11.34 9.25-11.43 2.32-.07 4.55.36 6.4 1.88 1.3 1.4 2.25 3.25 2.31 5.26l.2 7.44c-8.05 2.19-15.76 5.23-21.72 11.39-5.43 5.61-7.26 13.71-4.58 21.1Zm6.64-5.55c-.39-3.53.68-6.84 2.7-9.68 4.26-5.43 10.58-8.03 17-9.49V96.7c-3.29 3.18-7.19 6.19-11.83 6.5-4.14.07-7.42-2.82-7.87-6.92m140.63 5.55c1.52 4.2 5.01 7.06 9.2 7.95 6.33 1.35 12.44-.75 17.13-5.61l.97 5.44h7.94c-.57-4.53-.96-8.81-.97-13.42l-.03-29.79c0-3.3-.53-6.42-1.52-9.43-1.33-4.07-4.26-7.01-8.22-8.21-3.3-1-6.68-1.23-10.11-.72-4.68.69-8.44 3.52-10.81 7.71-1.57 2.86-2.48 5.95-3 9.18l7.56 1.25c1.14-6.06 2.83-11.34 9.25-11.43 2.32-.07 4.55.36 6.4 1.88 1.3 1.4 2.25 3.25 2.31 5.26l.2 7.44c-8.05 2.19-15.76 5.23-21.72 11.39-5.43 5.61-7.26 13.71-4.58 21.1Zm6.64-5.55c-.39-3.53.68-6.84 2.7-9.68 4.26-5.43 10.58-8.03 17-9.49V96.7c-3.29 3.18-7.19 6.19-11.83 6.5-4.14.07-7.42-2.82-7.87-6.92M65.62 98.82c-1.44 3.19-4.26 5.07-7.6 5.11s-6.26-1.75-7.81-4.92c-2.49-5.68-2.6-12.42-2.71-18.58h28.22c.32-8.45.1-17.52-3.8-24.74-2.81-5.35-8.01-8.06-14.04-8.06-11.94 0-16.62 9.34-18.01 20.02a89 89 0 0 0-.03 23.23c.93 7.14 3.53 15.46 10.33 18.63 4.54 2.12 9.97 2.25 14.56.26 3.91-1.7 6.45-4.99 8.18-8.71 1.51-3.58 2.18-7.22 2.39-11.27h-7.81c-.14 3.32-.61 6.25-1.87 9.03M47.54 73.66c.36-8 1.58-19.81 11.18-19.02 3.15.26 5.6 1.93 6.86 4.81 1.76 4.29 1.79 9.2 1.76 14.2h-19.8Zm113.98 1.15V53.32h19.8v-5.83h-26.21v62.52h6.41V80.54h15.21l-.04-5.75h-15.17Zm-24.28-25.76v46.88c-2.63 4.81-7.06 8.97-12.47 7.94-4.12-.78-4.51-5.23-4.74-9.62V49.04h-7.68v47.93c.21 5.55 1.61 11.54 6.68 13.39 4.31 1.57 8.97.76 12.72-1.9 2.09-1.48 3.76-3.23 5.49-5.13v6.28l7.68-.01V49.04h-7.68Zm-46.4 16.07c.86-1.77 1.84-3.26 3.01-4.78 2.98-3.56 7.22-5.23 11.86-4.6v-7.83c-4.05-.52-7.68.68-10.7 3.24-1.51 1.44-2.69 2.88-4.15 4.73l-.04-6.86-7.76.03v60.55h7.78V65.1Zm150.63 0c.87-1.77 1.85-3.26 3.04-4.78 3.01-3.56 7.28-5.23 11.97-4.6v-7.83c-4.09-.52-7.75.68-10.79 3.24l-4.18 4.73-.04-6.86-7.84.03v60.55h7.86V65.1Z" style="fill:#fff"/><path d="M293.2 124.45c1.18.43 1.95 1.18 2.24 2.41.35 1.91 0 3.96-1.91 4.77-.69.28-1.41.42-2.18.43h-3.19v-14.42h2.96l1.46.11c1.02.18 1.94.8 2.35 1.77a4.4 4.4 0 0 1 .02 3.27c-.31.8-.95 1.31-1.75 1.66m.51-4.13c-.15-.55-.53-.95-1.06-1.15-.47-.16-.97-.25-1.48-.25h-1.53v4.98h1.48q.69 0 1.32-.24c1.31-.51 1.6-2.08 1.26-3.34Zm.22 8.91c.25-.83.25-1.72-.02-2.51-.2-.61-.64-1.03-1.21-1.28-.46-.17-.94-.27-1.45-.27h-1.61v5.59h1.72c.44 0 .86-.09 1.27-.21.62-.22 1.09-.65 1.3-1.31Zm-15.67 2.83h-1.6l-2.17-6.86-2.11.04v6.82h-1.48v-14.42h3c.81 0 1.58.15 2.32.45.94.4 1.6 1.16 1.83 2.16.41 1.95-.1 3.98-2.15 4.63zm-1.77-11.52c-.16-.63-.59-1.09-1.18-1.35-.45-.17-.91-.27-1.4-.28h-1.53v5.02h1.48c.51-.01.99-.11 1.45-.29 1.22-.51 1.5-1.9 1.19-3.11Zm71.54 11.52h-1.6l-2.17-6.86-2.11.04v6.82h-1.48v-14.42h3c.81 0 1.58.15 2.32.45.94.4 1.6 1.16 1.83 2.16.41 1.95-.1 3.98-2.15 4.63zm-1.77-11.52c-.16-.63-.59-1.09-1.18-1.35-.45-.17-.91-.27-1.4-.28h-1.53v5.02h1.48c.51-.01.99-.11 1.45-.29 1.22-.51 1.5-1.9 1.19-3.11Zm-105.71 1.69c.3 2.25.29 5.49-.65 7.55a3.72 3.72 0 0 1-2.34 2.06c-.48.13-.96.22-1.47.22h-2.83v-14.42h2.93c.7 0 1.34.17 1.97.44 1.57.76 2.17 2.47 2.4 4.15Zm-1.39.52c-.07-.69-.19-1.33-.42-1.97-.64-1.74-2.26-2.05-3.97-1.85v11.76c1.66.2 3.26-.11 3.93-1.75.65-1.71.65-4.35.47-6.19Zm85.69-.52c.3 2.25.29 5.49-.65 7.55a3.72 3.72 0 0 1-2.34 2.06c-.48.13-.96.22-1.47.22h-2.83v-14.42h2.93c.7 0 1.34.17 1.97.44 1.57.76 2.17 2.47 2.4 4.15Zm-1.4.52c-.07-.69-.19-1.33-.42-1.97-.64-1.74-2.26-2.05-3.97-1.85v11.76c1.66.2 3.26-.11 3.93-1.75.65-1.71.65-4.35.47-6.19Zm12.57 6.65c-.53 1.65-1.55 2.93-3.38 2.94-2.82.03-3.68-2.99-3.9-5.41-.13-1.43-.13-2.84 0-4.28.23-2.39 1.08-5.28 3.85-5.3s3.58 2.63 3.86 4.95c.26 2.17.23 5.02-.43 7.09Zm-1.36-.56c.44-1.86.44-4.55.25-6.47-.11-1.09-.38-2.62-1.21-3.29s-2.09-.42-2.65.5c-.6 1.01-.77 2.39-.82 3.59-.08 1.74-.05 4 .35 5.67.26 1.12.85 2.15 2.04 2.15s1.77-1.03 2.04-2.15m-28.85-1.42c-.03.8-.07 1.53-.25 2.28-.15.61-.55 1.08-1.16 1.23-1.09.27-2.34 0-2.62-1.18-.17-.73-.25-1.46-.25-2.24v-9.88h-1.49v9.92c.02.79.03 1.51.18 2.27.2 1.01.83 1.81 1.78 2.19 1.54.63 3.7.35 4.62-1.05.31-.47.5-1.01.53-1.57l.11-1.89v-9.88l-1.47.02v9.77Zm-53.23-5.1c-.63-.65-.86-1.55-.62-2.41s.94-1.29 1.77-1.31c1.56-.04 2.08 1.26 2.18 2.67h1.36c-.06-2.11-1.05-3.73-3.21-3.91-1.97-.16-3.56 1.31-3.52 3.3.02 1.04.36 1.98 1.1 2.73.55.55 1.13 1.04 1.77 1.5s1.24.96 1.8 1.52c.87.88 1.17 2.12.74 3.28-.33.91-1.19 1.37-2.13 1.31-1.56-.1-2.01-1.32-2.1-2.77h-1.39c0 1.66.64 3.34 2.26 3.89.82.28 1.69.31 2.53.07 2.24-.64 2.9-3.33 2.08-5.37s-3.21-3.04-4.62-4.5m115.29 2.74-1.6-1.3c-.59-.48-1.21-.89-1.74-1.44-.63-.65-.86-1.55-.62-2.41s.94-1.29 1.77-1.31c1.56-.04 2.08 1.26 2.18 2.67h1.36c-.06-2.11-1.05-3.73-3.21-3.91-1.97-.16-3.56 1.31-3.52 3.3.02 1.04.36 1.98 1.1 2.73.55.55 1.13 1.04 1.77 1.5s1.24.96 1.8 1.52c.87.88 1.17 2.12.74 3.28-.33.91-1.19 1.37-2.13 1.31-1.56-.1-2.01-1.32-2.1-2.77h-1.39c0 1.66.64 3.34 2.26 3.89.82.28 1.69.31 2.53.07 2.24-.64 2.9-3.33 2.08-5.37-.28-.7-.75-1.24-1.28-1.76m-10.37-1.12h-3.67v-4.96h5.01v-1.34h-6.48v14.43h6.66v-1.33h-5.18v-5.46h3.67v-1.33Zm-92.79-5.07h2.9v-1.24h-7.24v1.24h2.89v13.19h1.46v-13.19Zm-19.58-1.23v14.43h1.48v-14.43zm37.15 0v14.43h1.48v-14.43zm29.45 0v14.43h1.48v-14.43zM502.95 46.22c-2.51-5.7-11.77-13.64-19.66-19.68-9.74-7.45-20.51-13.47-32.07-17.56-10.61-3.74-22.63-6.2-28.21-1.03-3.83 3.55-1.8 9.42 3.3 15.89 1.14 1.45 2.44 2.94 3.87 4.42l-10.23 1.12 14.46 3.02.41.08c1.09.22 2.11-.6 2.11-1.72V19.45l-2.97 6.27c-1.27-1.48-2.37-2.99-3.19-4.52-1.88-3.51-2.3-7.08 0-10.48 6.6-9.75 39.31 9 45.86 13.43 6.56 4.43 26.59 19.06 19.14 28.45-7.45 9.4-37.66-5.94-45.82-12.85-2.21-1.88-5.37-4.24-8.55-6.9a6.45 6.45 0 0 1-1.62 2.58c-.3.3-.63.56-.97.79 10.15 8.4 22.54 15.95 31.17 18.85 19.5 6.56 41.99 11.61 32.97-8.86Z" class="cls-2"/><path d="M472.5 42.89c-33.44-1.56-67.26 21.78-67.26 21.78-25.18 16.8-28.8 35.51-17.68 42.87 13.65 9.04 54.1-1.06 79.5-17.54 3.98-2.58 7.74-5.45 11.12-8.45 1.34-1.18 2.62-2.39 3.83-3.61l4.25 12.07-.7-18.28c-.08-2.24-2.19-3.84-4.38-3.32l-20.51 4.91 10.06-.19a64 64 0 0 1-4.76 4.91 72.4 72.4 0 0 1-11.68 8.78c-21.67 13.02-51.98 17.15-61.02 11.03s-5.01-20.74 15.82-34.16c0 0 27.52-18.75 55.16-17.41 15.29.73 17.25 9.08 12.28 18.59l7.96-1.77c2.2-.49 4.31 1.13 4.4 3.38l.12 3.09c8.99-13.15 7.53-25.55-16.51-26.68" style="fill:url(#Degradado_sin_nombre_29)"/><path d="M459.92 46.22c-1.39-.76-2.71-1.52-3.93-2.27-1.8.3-3.58.64-5.34 1.03.9.59 1.79 1.16 2.68 1.72 2.18-.27 4.38-.44 6.59-.49Z" class="cls-2"/></svg>