<svg xmlns="http://www.w3.org/2000/svg" viewBox="0 0 510 120.57"><path d="M9.56 50a7.42 7.42 0 0 1-3.98-9.72s0-.02.01-.03a7.4 7.4 0 0 1 1.9-2.66L43.85 5l26 21.32V23.8a7.537 7.537 0 0 1 7.52-7.52c4.15.01 7.51 3.37 7.52 7.52v20.25c0 4.05-3.28 7.33-7.33 7.33a8 8 0 0 1-5.28-1.97L44.16 25.06 18.26 48.5A8.24 8.24 0 0 1 9.55 50ZM6.45 67.79a7.537 7.537 0 0 1 7.52-7.52h61.45c4.15.01 7.51 3.37 7.52 7.52a7.537 7.537 0 0 1-7.52 7.52H13.98a7.496 7.496 0 0 1-7.52-7.48v-.05Zm101.62-47.74h23.78c13.03.07 18.23 10.81 18.23 17.44 0 4.54-2.44 19.24-18.16 19.56h-7.55v17.52h-16.28zm16.31 12.36v13.82l2.91.15c3.73 0 6.86-2.47 6.86-7.06 0-2.59-1.68-7.06-7.48-6.76zm34.04-12.36h24.08c17.22-.54 19.69 11.47 19.69 15.81 0 6.02-3.08 14.16-10.46 14.48 2.69 1.23 13.4 19.39 15.67 24.23h-18.8c-.86-1.8-8.98-18.5-10.73-18.5h-3.4v18.5h-16.04V20.05Zm16.29 12.09v13.08h4.02c5.58 0 7.28-4.42 7.28-6.59 0-4.44-3.53-6.49-7.6-6.49zM406.09 19.8H430c17.27-.54 19.74 11.52 19.74 15.89 0 6.04-3.08 14.24-10.46 14.53 2.71 1.26 13.45 19.47 15.72 24.35h-18.7c-.86-1.8-8.96-18.5-10.73-18.5h-3.4v18.5h-16.04l-.02-54.77Zm16.31 12.34v13.08h4c5.55 0 7.25-4.42 7.25-6.59 0-4.44-3.53-6.49-7.57-6.49zM239.2 18.89c23.91-.15 28.03 20.77 28.03 28.3s-3.5 28.42-28.03 28.25c-24.52-.17-28.1-20.58-28.1-28.25s3.21-28.12 28.1-28.3m-.32 44.31c3.55 0 12.01-1.41 11.87-15.72-.05-4.71-.44-15.86-11.87-15.72-10.26.15-11.69 8.66-11.92 15.72-.47 14.31 8.34 15.72 11.92 15.72m66.53-18.87 15.22-24.28h14.68v54.52h-15.79V44.35L308.79 61.5h-7.57l-9.82-17.12v30.44h-15.79V19.8h14.53l15.27 24.52Zm70.81-24.53 22.8 54.77h-17.34l-3.36-10.61h-16.83l-3.7 10.61-16.38-.07 21.41-54.7zm-2.27 32.81-4.42-13.08-4.42 13.08h8.83ZM505 20.05l-2.76 13.32h-14.95v41.2h-16.04v-41.2h-15.79V20.05zM26.93 90.61h3.45v23.93h-3.45v-10.36H14.1v10.61h-3.21V90.86h3.21v10.12h12.83V90.62Zm43.62-.08c3.7 0 6.76 1.16 9.23 3.5s3.68 5.25 3.7 8.78-1.23 6.44-3.73 8.73-5.6 3.45-9.37 3.45-6.61-1.16-9-3.45-3.6-5.21-3.6-8.68 1.21-6.51 3.63-8.86 5.45-3.48 9.15-3.48Zm-.1 2.87c-2.91 0-5.3.89-7.18 2.66s-2.81 4.05-2.81 6.81.94 4.91 2.81 6.69 4.24 2.66 7.06 2.66 5.21-.91 7.11-2.71 2.84-4.07 2.84-6.78c.05-2.52-.98-4.93-2.84-6.64-1.87-1.8-4.22-2.69-6.98-2.69Zm62.59-2.55h2.44v23.93h-2.96V97.34l-7.33 10.04h-2.17L115 96.25v18.53h-2.96V90.6h2.84l9.05 13.22 9.1-12.98Zm34.76 0h12.29l-.57 2.71h-9v8.39h8.14v2.22h-8.14v7.65h9.62v2.96H167.8zm100.9.25h12.29l-.57 2.71h-9v8.39h8.14v2.22h-8.14v7.65h9.62v2.96H268.7zm161.6-.49h12.24l-.54 2.71h-8.98v8.39h8.14v2.22h-8.14v7.89h9.62v2.71H430.3V90.6Zm-193.92 19.02v3.85c-2.2 1.41-4.84 2.1-7.8 2.1-2.42 0-4.47-.54-6.14-1.63-1.7-1.13-3.08-2.69-4-4.51a13.4 13.4 0 0 1-1.48-6.24c0-3.55 1.11-6.54 3.36-8.96 2.11-2.37 5.15-3.69 8.31-3.63 2.27 0 4.81.67 7.5 2v3.75c-2.47-1.65-4.93-2.47-7.35-2.47a8.12 8.12 0 0 0-6.17 2.64c-1.63 1.75-2.47 3.97-2.47 6.64s.81 4.88 2.42 6.59 3.68 2.59 6.19 2.59 5.21-.91 7.62-2.71Zm101.4-19.02h3.21v23.93h-2.76l-15-18.43v18.43h-3.21V90.61h2.62l15.15 18.58V90.61Zm35.53 0h19.24l-1.43 2.22h-6.96v21.71h-3.21V92.83h-7.65v-2.22Zm109.54 23.98V90.61h5.48c6.51-.02 7.87 4.37 7.87 6.71s-1.7 5.75-4.74 6.41a9.7 9.7 0 0 1 2.02 2.02c.67.86 6.27 8.78 6.27 8.78h-3.8s-5.16-10.12-7.85-10.12h-2.79v10.12l-2.47.05Zm3.87-21.52h-1.16v8.88h1.48c1.97 0 3.33-.17 4.07-.52.71-.34 1.31-.89 1.7-1.58.41-.74.63-1.57.62-2.42a4.5 4.5 0 0 0-.67-2.42 3.67 3.67 0 0 0-1.92-1.53c-.84-.27-2.2-.42-4.12-.42Z" style="fill:#fff"/></svg>