<svg xmlns="http://www.w3.org/2000/svg" id="Capa_2" viewBox="0 0 510 98.89"><defs><style>.cls-1{fill:#fff}</style></defs><path d="M39.1 64.4c-.75-3.67-2.77-6.87-5.55-9.14 3.65-2.98 5.87-7.45 5.87-12.3 0-8.68-6.97-15.77-15.57-15.79H5v7.31h4.9V64.4H5v7.31h13.28V59.09h4.29c2.65 0 5.02 1.22 6.6 3.13 2.51 3.03 2.37 7.53 2.51 9.5h12.31v-7.31h-4.88v-.02ZM18.26 34.47h4.29c4.72 0 8.57 3.85 8.57 8.56s-3.83 8.7-8.53 8.7h-4.31c0-5.83-.02-12.5-.02-17.27ZM75.19 64.4v-4.53h7.82v11.84h-30.2v-7.33h4.98V34.47h-4.98v-7.31H82.9v11.02h-7.82v-3.71h-8.99v11.24h12.35v7.57H66.09V64.4h9.11Zm92.61 0v-4.53h7.82v11.84h-30.26V64.4h4.98V34.47h-4.98v-7.31h18.49v7.31h-5.21V64.4h9.17Zm-36.08 0-13.45-37.23h-8.18L96.64 64.4h-4.47v7.31h10.65l2.98-8.45h16.75l2.98 8.45h10.65V64.4zm-23.35-8.33 5.81-16.81 5.81 16.81zM231.92 11.74l4.89 6.36c.62-.6 1.31-1.18 1.97-1.71v4.02c-2.16.44-4.96 1.29-6.85 2.06-1.89-.77-4.67-1.6-6.85-2.06v-4.02c.65.55 1.33 1.13 1.96 1.71l4.89-6.36Zm-10.4 8.11v-6.04c-2.99-2.11-7.79-4.07-8.89-4.47-7.74 3.68-14.16 9.39-18.66 16.59 8.11-5.02 17.33-7.26 27.55-6.08m4.97-6.85c.04-.05 5.44-7.08 5.44-7.08s5.4 7.03 5.44 7.08c2.69-2.13 5.91-4.05 9.19-5.57-4.75-1.6-9.6-2.45-14.64-2.43-5.03 0-9.88.83-14.64 2.43 3.31 1.51 6.52 3.43 9.22 5.57Zm-20.35 21.69c2.92-5.02 7.47-9.16 12.32-11.57-10.62-.53-20.5 3.06-28.21 10.06-2.39 6.18-3.13 11.22-3.13 16.34 0 6.68 1.35 11.5 2.53 14.86 1.45-17.22 12.85-26.98 16.48-29.69Zm19.83 21.35c1.61 0 3.08-.56 4.18-1.46v-7.85l-4.97-2.25c-2.16 2.76-3.58 5.51-4.69 8.72 1.2 1.73 3.19 2.85 5.49 2.85Zm-12.99-21.51c-2.94 1.25-5.05 3.75-6.06 6.76-1.84 5.53-1.67 11.27.19 16.84 2.8.97 6 2.85 8.29 4.63-.07-7.77 2.83-15.59 7.47-21.1.02-.12 1.06-5.58 1.12-5.88-2.62-1.9-6.89-2.99-11.01-1.25m-6.03 33.82c-2.28-5.25-6.66-15.83-3.98-25.98q-.075.105-.18.21c-3.22 3.79-11.03 13.37-9.53 29.59 6.96 11.85 19.3 20.1 33.73 21.72-7.01-5.42-15.23-14.48-20.04-25.54m35.38-48.5c10.22-1.18 19.44 1.07 27.55 6.08-4.5-7.2-10.91-12.91-18.66-16.59-1.1.39-5.91 2.36-8.89 4.47zm31.27 13.33c-7.7-6.99-17.58-10.57-28.21-10.06 4.85 2.41 9.4 6.55 12.32 11.57 3.63 2.71 15.03 12.47 16.49 29.69 1.19-3.36 2.53-8.19 2.53-14.87-.02-5.14-.76-10.16-3.13-16.34Zm-36.54 6.87h-10.27l1.04-5.57c-3.11-3.08-7.95-5.27-13.9-3.95 2.37-2.17 4.52-3.56 7.28-4.83 3.59-1.64 6.55-1.25 10.71.65 4.16-1.92 7.1-2.29 10.71-.65 2.76 1.27 4.92 2.66 7.28 4.83-5.95-1.32-10.78.86-13.9 3.95l1.04 5.57Zm18.32 22.56c-2.18 1.11-5.03 2.89-7.37 5.21-.71 3.87-1.72 7.13-3.54 10.32 0 0-5.35 2.8-12.55 2.77-7.2.03-12.55-2.77-12.55-2.77-1.82-3.19-2.81-6.46-3.54-10.32-2.34-2.32-5.19-4.12-7.36-5.21.76 1.66 5.97 18.26 23.46 30.45v-.86.86c17.49-12.19 22.68-28.8 23.46-30.45Zm-23.46 14.76c2.83 0 6-.39 9.76-1.87 2.14-3.66 3.19-8.44 3.19-13.35 0-1.04-.11-2.13-.21-3.13-3.45 2.89-7.88 4.69-12.75 4.69s-9.29-1.8-12.75-4.69c-.12 1-.21 2.1-.21 3.13 0 4.91 1.06 9.69 3.19 13.35 3.81 1.48 6.96 1.87 9.79 1.87Zm11.44-24.18c-1.1-3.21-2.51-5.95-4.69-8.72l-4.98 2.25v7.85a6.68 6.68 0 0 0 4.18 1.46c2.3 0 4.3-1.13 5.49-2.85Zm13.38 4.96c1.86-5.57 2.02-11.31.2-16.84-1.01-3.03-3.12-5.53-6.06-6.76-4.13-1.74-8.39-.67-10.98 1.27.05.28 1.08 5.76 1.11 5.88 4.62 5.51 7.52 13.33 7.47 21.1 2.23-1.8 5.45-3.7 8.25-4.65Zm4.14-15.78c2.67 10.14-1.68 20.73-3.98 25.98-4.82 11.06-13.01 20.11-20.06 25.52 14.43-1.6 26.77-9.85 33.73-21.72 1.52-16.2-6.3-25.8-9.53-29.59-.05-.07-.11-.14-.16-.19M351.09 64.41v-4.53h7.82v11.84h-30.26v-7.31h4.98V34.48h-4.98v-7.31h18.49v7.31h-5.23v29.93zm93.37 0h-13.61l20.96-31.68.12-.18v-5.37H420.8v10.66h7.82v-3.35h12.17l-21.1 31.5v5.73h32.59V60.26h-7.82zM305.42 27.18c8.61 0 15.6 7.09 15.6 15.81 0 2.2-.45 4.53-1.22 6.39-.57 1.4-1.36 2.71-2.33 3.89-.63.78-1.34 1.5-2.11 2.14s-1.6 1.22-2.49 1.7c-2.17 1.2-4.6 1.82-7.23 1.86h-5.75v5.45h5.97v7.31h-19.24v-7.31h4.9V34.5h-4.9v-7.31h18.81Zm-1.24 24.57c4.72 0 8.55-3.93 8.55-8.74A8.56 8.56 0 0 0 310.2 37c-.39-.4-.81-.74-1.26-1.04-.46-.32-.95-.58-1.44-.78-.54-.22-1.07-.4-1.6-.5-.57-.12-1.15-.2-1.72-.2h-4.29v17.27zm102.17 12.66h4.45v7.31h-10.65l-2.98-8.44h-16.75l-2.99 8.44h-10.65v-7.31h4.47l13.47-37.23h8.18zM383 56.08h11.61l-5.81-16.81zm117.53 8.33H505v7.31h-10.65l-2.98-8.44h-16.75l-2.98 8.44h-10.65v-7.31h4.46l13.45-37.23h8.18zm-23.34-8.33h11.62L483 39.27z" class="cls-1"/></svg>