<svg xmlns="http://www.w3.org/2000/svg" viewBox="0 0 510 131.72"><defs><linearGradient id="a" x1="77.56" x2="436.72" y1="188.56" y2="-62.93" gradientUnits="userSpaceOnUse"><stop offset=".5" stop-color="#00e487"/><stop offset="1" stop-color="#1ecbd0"/></linearGradient></defs><path d="M139.08 94.05v-7.89c-.06-.63.4-1.19 1.03-1.25h16.43V44.34h-13.11c-.6.08-1.15-.34-1.23-.94a1 1 0 0 1 0-.24v-7.94c-.08-.59.34-1.13.93-1.2q.15-.015.3 0h22.24c.62-.07 1.18.38 1.25 1v49.91h18.15c.63-.06 1.19.4 1.25 1.03v8.09c0 .79-.42 1.18-1.25 1.18h-44.68c-.83 0-1.25-.39-1.25-1.18m31.69-78.6c0-4.64-3.76-8.4-8.4-8.4s-8.4 3.76-8.4 8.4 3.76 8.4 8.4 8.4h.02c4.63 0 8.38-3.75 8.38-8.38zm112.54 79.1V58.42c.28-8.32 7.26-14.82 15.57-14.54 7.92.27 14.27 6.62 14.54 14.54v36.13c-.05.61.4 1.15 1.01 1.2h8.13c.58.07 1.11-.34 1.18-.92.01-.09.01-.19 0-.28v-36.3a25.02 25.02 0 0 0-6.79-17.3 25.98 25.98 0 0 0-18.38-7.41c-6.05-.23-11.8 2.63-15.26 7.6v-5.43c.07-.58-.34-1.11-.92-1.18a1.3 1.3 0 0 0-.28 0h-7.85c-.83 0-1.25.39-1.25 1.18v58.85c-.07.6.37 1.14.97 1.21.09.01.19 0 .28 0h7.85c.58.08 1.12-.32 1.2-.9q.015-.15 0-.3m153.61-82.49c.14-1-.34-1.98-1.22-2.49a23.8 23.8 0 0 0-13.28-3.48c-12.59 0-18.22 10.43-18.22 20.11v7.8h-12.59c-.85-.13-1.64.46-1.76 1.31-.02.15-.02.31 0 .46v6.44c-.13.85.46 1.64 1.31 1.76.15.02.31.02.46 0h12.59v49.52c-.13.85.46 1.64 1.31 1.76.15.02.31.02.46 0h6.81c.85.13 1.64-.46 1.76-1.31.02-.15.02-.31 0-.46V43.91h19.51c.85.13 1.64-.46 1.76-1.31.02-.15.02-.31 0-.46v-6.4c.14-.84-.43-1.63-1.26-1.76a1.4 1.4 0 0 0-.5 0h-19.56v-7.8c0-6.39 3.23-10.2 8.64-10.2 4.06-.03 8.03 1.28 11.27 3.72.33.24.74.36 1.15.34.81 0 1.38-.71 1.38-1.76v-6.21M338.71 94.1c0 .79.42 1.18 1.25 1.18h44.68c.83 0 1.25-.39 1.25-1.18v-7.94c.06-.63-.4-1.19-1.03-1.25h-18.37V35.2a1.13 1.13 0 0 0-1.05-1.2H343c-.6-.09-1.16.32-1.25.92-.01.09-.02.19 0 .28v7.94c-.04.61.42 1.14 1.03 1.19h13.4V84.9h-16.21c-.63-.06-1.19.4-1.25 1.03v8.09m31.74-78.61c0-4.64-3.76-8.4-8.4-8.4s-8.4 3.76-8.4 8.4 3.76 8.4 8.4 8.4h.02c4.63 0 8.38-3.75 8.38-8.38zM246.68 88.32v7.62c0 11.73-6.14 18.2-17.29 18.2-8.45 0-13.6-3.53-15.33-10.23-.23-.83-.44-1.59-1.76-1.59h-6.91a1.567 1.567 0 0 0-1.76 1.77c1.15 11.92 11.47 19.95 25.68 19.95 16.55 0 27.68-11.06 27.68-27.52V35.29c.07-.6-.37-1.14-.97-1.21-.09-.01-.19 0-.28 0h-7.85c-.66 0-1.2.54-1.2 1.2v5.12c-3.93-3.73-8.81-6.3-14.11-7.43a.916.916 0 0 0-1.11.88v9.26c0 .41.28.76.67.86 9.01 2.81 15.08 11.24 14.87 20.67 0 11.8-8.94 21.38-19.97 21.38s-19.97-9.58-19.97-21.38c-.21-9.24 5.61-17.54 14.36-20.52.39-.12.65-.48.65-.88v-9.45c0-.51-.41-.92-.92-.91-.05 0-.1 0-.15.01-13.9 2.84-24.4 15.88-24.4 31.47 0 17.64 13.46 32.03 29.99 32.03 7.49.01 14.69-2.88 20.09-8.06M66.17 96.4c13.99 0 23.76-7.92 23.76-19.25 0-12.35-10.94-15.26-21.17-16.97-12.84-2.12-14.61-5.84-14.61-9.53 0-5.72 6.03-7.74 11.18-7.74 7.06 0 11.27 2.7 12.54 7.99.23.81.44 1.55 1.76 1.55h6.51c.85.12 1.63-.47 1.75-1.32q.03-.18 0-.36c0-10.58-9.12-17.64-22.68-17.64-14.69 0-21.38 9.1-21.38 17.64 0 10.58 5.5 15.88 19.02 18.15h.39c9.24 1.64 15.88 2.82 15.88 9.47 0 5.64-6.54 8.22-12.63 8.22-7.55 0-12.21-3.63-13.11-10.2-.12-.81-.41-1.62-1.76-1.62h-7.55a1.567 1.567 0 0 0-1.76 1.77c0 11.75 9.77 19.95 23.78 19.95m6.68-91.49h-.16c-.53-.08-1.07.06-1.48.41-.28.29-.42.69-.39 1.09v7.89c-.03.43.28.8.71.85 27.86 2.98 48.03 27.98 45.05 55.84s-27.98 48.03-55.84 45.05-48.03-27.98-45.05-55.84c2.54-23.75 21.3-42.51 45.05-45.05.42-.05.73-.42.71-.85V6.54c.03-.4-.11-.8-.39-1.09-.41-.35-.96-.51-1.5-.42h-.16C25.81 8.74 1.66 38.91 5.38 72.41s33.89 57.65 67.39 53.93 57.65-33.89 53.93-67.39c-3.15-28.38-25.55-50.78-53.93-53.93m396.58 95.43c-1.04 3-2.36 5.89-3.93 8.64a8.54 8.54 0 0 1-3.86 3.37c-.92.47-1.94.72-2.98.72-.42 0-.84-.05-1.25-.12q-2.34-.525-4.59-1.38c-.74-.39-1.55-.64-2.38-.76-.76-.05-1.41.53-1.46 1.29v7.05c-.05 1.01.55 1.94 1.48 2.33 2.81 1.37 5.91 2.04 9.03 1.96 2.91-.2 5.72-1.12 8.18-2.68 2.68-1.67 4.96-3.91 6.69-6.56.88-1.34 1.67-2.74 2.35-4.2 1.45-3.1 23.6-61.55 28.22-74.09.1-.32.15-.65.14-.99a1.26 1.26 0 0 0-1.44-1.32h-7.41c-.87-.11-1.69.43-1.92 1.27l-17.41 45.86-17.94-45.58c-.41-1.11-.9-1.55-2.03-1.55h-7.44c-.76-.05-1.41.52-1.46 1.28v.16c0 .3.07.59.19.86l23.23 59.15zv-.02Z" style="fill:url(#a)"/></svg>