<svg xmlns="http://www.w3.org/2000/svg" id="Capa_3" viewBox="0 0 510 110.85"><defs><style>.cls-4{fill:#e61e32}</style></defs><path id="_0daaaa17-a7f9-4a4e-a936-b07f27c22bf0" d="M83.42 23.56H63.89v-7.7H49.48v7.7H30.02L5 52.21v41.42h103.37V52.21z"/><path id="_3d34d33b-45d9-4f71-ae65-5a21fb69e17a" d="M12.7 60.09h40v26.59h-40z" class="cls-4"/><path id="_185ebdf5-1c93-4dc0-951a-4cccecd347ba" d="M59.66 60.09h41v26.59h-41z" style="fill:#fff"/><path id="a62f5e5f-3279-44a7-a84e-2f55d787c626" d="M99.02 52.63 80.41 31.26H41.45l18.71 21.37z" style="fill:#0a6ebe"/><path id="_43842ebb-1b3a-4f0b-8b0c-b87501916532" d="M50.92 52.63 32.8 31.29 14.12 52.63z" style="fill:#ffdc00"/><path d="M161.71 78.72c0 3.38-.87 6.24-2.58 8.67-1.8 2.5-4.26 4.44-7.11 5.62-3.03 1.29-6.56 1.99-10.46 1.99-1.12 0-2.44-.07-4.07-.17-2.16-.26-4.3-.66-6.41-1.22-2.86-.66-5.64-1.62-8.3-2.86V77.61c2.56 1.57 5.22 2.96 7.98 4.15 2.64 1.14 5.5 1.7 8.37 1.64 2.76 0 4.5-.42 5.37-1.37s1.22-1.74 1.22-2.61c0-1.47-.7-2.68-2.09-3.63s-3.35-1.99-6.04-3.03a51.5 51.5 0 0 1-7.7-3.98 18.9 18.9 0 0 1-5.37-5.44c-1.39-2.16-2.09-4.77-2.09-7.7-.03-2.74.72-5.44 2.16-7.78 1.39-2.34 3.55-4.15 6.51-5.54s6.39-2.06 10.63-2.06c2.77-.04 5.53.24 8.22.84 2.12.48 4.19 1.12 6.21 1.91 1.18.46 2.31 1.03 3.38 1.71v12.47a41.7 41.7 0 0 0-7.28-4.17 20.3 20.3 0 0 0-8.57-1.81c-1.99 0-3.45.35-4.3 1.14S138 54.06 138 55.18c-.01 1.08.5 2.11 1.37 2.76.84.8 2.51 1.74 4.77 2.76 3.38 1.55 6.67 3.28 9.86 5.19 2.41 1.57 4.4 3.3 5.79 5.37s1.89 4.5 1.89 7.45m64.16-10.62c.05 4.65-1.1 9.24-3.33 13.32-2.21 4.03-5.54 7.26-9.89 9.64s-9.74 3.58-16.05 3.58-11.78-1.27-16.23-3.75-7.68-5.71-9.81-9.81a27.3 27.3 0 0 1-3.28-12.97 28.2 28.2 0 0 1 3.28-13.07c2.11-4 5.37-7.26 9.81-9.74 4.45-2.48 9.81-3.75 16.2-3.75 4.8 0 9.07.7 12.82 2.14s6.83 3.33 9.22 5.71a23.5 23.5 0 0 1 5.47 8.45c1.21 3.28 1.82 6.74 1.81 10.24m-15.87-.02c.04-1.79-.26-3.58-.87-5.27-.55-1.56-1.42-2.99-2.56-4.2a10.6 10.6 0 0 0-4.27-2.73c-1.85-.7-3.81-1.04-5.79-1.02-4.2 0-7.43 1.19-9.81 3.68s-3.58 5.62-3.58 9.54 1.19 7.18 3.58 9.57 5.64 3.68 9.81 3.68c2.91 0 5.29-.6 7.35-1.71 1.95-1.1 3.54-2.73 4.6-4.7 1.12-1.96 1.54-4.27 1.54-6.83m75.6.94c0 5.27-.92 9.49-2.88 12.62-1.7 3.01-4 5.63-6.76 7.7-3.63 2.86-8.8 4.3-15.38 4.3h-27.7V42.44h21.32c2.74-.03 5.48.13 8.2.5 2.11.27 4.18.75 6.19 1.44 1.62.49 3.18 1.18 4.65 2.04 1.24.7 2.41 1.54 3.48 2.48a21.6 21.6 0 0 1 4.57 5.07c1.36 2.09 2.42 4.37 3.13 6.76.82 2.68 1.22 5.47 1.19 8.27m-15.47-.57c0-4.2-.77-7.55-2.39-9.86s-3.53-3.95-5.84-4.75c-2.24-.78-4.59-1.18-6.96-1.19h-6.68v30.81h6.68c4.12 0 7.65-.94 10.66-2.91 3.01-1.96 4.55-6.01 4.55-12.1m22.58-25.99h15.41v51.19h-15.41zm82.99 51.94h-15.65V63.74l-14.26 17.72h-1.29l-14.26-17.72v30.64h-14.41V42.2h14.11l15.83 19.55 15.9-19.55h14.04v52.18Zm66.2 0h-15.28l-4.47-11.18h-23.9l-4.52 11.18h-15.28l23.11-52.18H419l22.93 52.18Zm-24.06-19.63-7.6-18.86-7.7 18.86h15.31Zm71.29 15.4a41.6 41.6 0 0 1-6.56 2.51c-2.21.65-4.47 1.14-6.76 1.47q-3.525.42-7.08.42c-4.52 0-8.55-.6-12.13-1.89a26.85 26.85 0 0 1-9.32-5.47c-2.59-2.35-4.6-5.27-5.89-8.52a28.9 28.9 0 0 1-1.96-10.68c0-4.45.77-8.37 2.31-11.7 1.46-3.26 3.68-6.13 6.49-8.35 2.78-2.26 6.01-3.92 9.47-4.87 3.63-1.07 7.4-1.61 11.18-1.62 5.91 0 12.57 1.27 19.38 3.93v13.74c-1.96-1.62-4.52-2.91-7.01-4.03-2.8-1.09-5.79-1.64-8.8-1.62-2.91 0-5.79.6-8.45 1.79-2.52 1.13-4.7 2.9-6.31 5.14-1.62 2.21-2.39 4.77-2.39 7.75-.03 2.54.68 5.03 2.04 7.18 1.45 2.22 3.45 4.02 5.81 5.22 2.48 1.27 5.29 1.86 8.37 1.86 2.39 0 4.77-.3 7.08-.92 1.94-.5 3.83-1.19 5.64-2.06a67 67 0 0 0 4.75-2.63v13.34h.12Zm14.03-7.38a5.9 5.9 0 0 0-4.36-1.87c-1.65-.02-3.23.66-4.36 1.87a6.23 6.23 0 0 0-1.82 4.47c-.02 1.68.63 3.29 1.82 4.47a5.9 5.9 0 0 0 4.36 1.86c1.65.02 3.23-.66 4.36-1.86a6.25 6.25 0 0 0 1.82-4.47c.02-1.67-.63-3.29-1.82-4.47m.96 4.47c.02 1.44-.54 2.83-1.56 3.85a5.08 5.08 0 0 1-3.76 1.61c-1.42.02-2.79-.56-3.77-1.6a5.34 5.34 0 0 1-1.56-3.85c-.02-1.44.55-2.83 1.57-3.85a5.08 5.08 0 0 1 3.76-1.61c1.42-.02 2.79.57 3.76 1.6a5.34 5.34 0 0 1 1.56 3.85m-2.92-.32a2.182 2.182 0 0 0-.27-2.66c-.4-.44-.99-.67-1.79-.67h-2.93V91h1.24v-3.03h1.6l1.27 3.03h1.37l-1.39-3.33c.37-.14.69-.4.89-.75Zm-.96-1.19c0 .29-.09.57-.29.79-.24.23-.57.35-.9.32h-1.58v-2.07h1.69c.29-.01.57.08.8.25.21.18.32.44.29.72Z" class="cls-4"/></svg>