<svg xmlns="http://www.w3.org/2000/svg" id="Capa_2" viewBox="0 0 460 184.76"><defs><style>.cls-2{fill-rule:evenodd;fill:#fff}</style></defs><path d="M296.61 67.57c.6 2.58 2.05 5.86 3.09 8.46l9.9 25.24h-26.48l13.13-33.09c.04-.08.14-.24.18-.31s.11-.21.18-.3m-34.66 60.18h11.07c.16-1.9 2.59-7.18 3.31-9.2l2.7-6.93c.5-1.09.29-1.68 1.69-1.68h31.29c1.5 0 1.3.76 2.48 3.78l5.71 14.03h10.59c-.23-2.79-12.06-29.84-14.1-35.01-1.16-2.93-2.26-5.6-3.55-8.49l-7.31-17.72c-.87-2.15-3.26-6.89-3.44-9.07h-11.07l-27.52 65.88c-.55 1.36-1.15 3.07-1.85 4.41m158.87-59.7 13 33.22h-26.48c.66-2.82 2.1-5.57 3.17-8.39 1.04-2.75 8.7-23.65 10.31-24.83m-34.66 59.7h10.59c1.08-2.25 6.58-15.93 6.74-17.81h33.7c.64 2.74 2.3 6.24 3.3 8.73 1.11 2.77 2.77 6.23 3.44 9.08H455c-.15-1.77-13.48-32.98-14.52-35.55-1.16-2.88-2.32-5.81-3.64-8.87l-10-24.19c-1.15-2.53-.95-1.68-10.36-1.68-1.75 0-3.24 5.31-4.4 8.12l-25.93 62.17Zm-47.67-52.96c0 10.04 4.93 14.79 13 18.78 3.13 1.55 6.86 3.18 9.92 5 8.26 4.92 8.06 13.99 2.9 17.92-6.39 4.87-15.14 3.23-21.93.54-2.5-.99-2.24-.98-2.51 2.46-.18 2.28-.42 3.86-.42 6.81 6.14.51 3.49 2.41 17.33 2.41 20.81 0 28.78-22.53 16.26-35.03-8.1-8.09-21.23-8.96-23.53-17.43-1.52-5.6 3.48-10.6 9.2-10.6 13.5 0 9.79 1.94 15.41 2.41.52-2.23 1.25-6.78 1.44-9.15-12.44-5.97-37.07-3.44-37.07 15.89Zm-127.58-8.18h21.18v61.14h10.11V66.61h20.22c2.18 0 1.44-2.47 1.44-7.7 0-1.11-.34-1.44-1.44-1.44h-51.51v9.15Z" class="cls-2"/><path d="M71.44 44.96c0 1.76-4.91 8.84-6.59 12.19-6.09 12.19-12.67 29.41-12.67 44.14 0 15.64 1.71 24.38 7.5 38.72 2.46 6.09 5.1 11.96 8.48 17.52 3.45 5.68 12.03 18.74 17.24 22.23l-3.95-16.75c-1.71-7.25-5.3-28.58-5.68-36.69-1.34-28.59-2.16-39.95 7.52-67.09 3.39-9.5 10.3-23.65 15.43-32.23l9.3-14.77c-6.12 1.63-21.26 16.89-24.07 18.78-.53-1.98-7.83-12.14-9.52-14.07l-5.52-6.03c-1.66-1.88-3.63-5.22-6.14-5.89 1.5 6.44 3 13.12 4.37 19.7l3.29 15c.37 1.77 1 3.45 1 5.26Z" style="fill-rule:evenodd;fill:#79a02c"/><path d="M80.1 89.25c3.64 1.93 7.03 3.65 10.5 5.87 3.37 2.16 6.28 4.45 9.45 6.92l24.49 25.09c4.95 6.13 9.51 12.82 13.72 19.5l6.35 10.5c0-5.71-1.38-11.03-2.44-15.85-.76-3.42-3.77-12.52-3.82-14.48 2.86 0 6.08-.72 8.87-1.24 3.2-.6 5.28-1.09 8.19-1.92 2.97-.84 4.85-1.5 7.68-2.43 1.82-.61 6.02-1.68 7.04-3.07l-38.27-8.43c-3.21-.84-1.78-1.43-5.95-7.05-8.58-11.56-17.64-21.77-29.72-29.98-2.26-1.53-8.76-5.47-11.28-6.06-.13 1.61-.98 3.91-1.35 5.39l-2.44 11.04c-.28 1.66-.5 5.09-1.02 6.2M5 65.66c3.49 0 8.8 1.43 12.32 2.13 4.16.82 8.21 1.71 12.14 2.79l22.73 6.64c.77-1.6 1.71-4.66 2.33-6.33.86-2.3 1.49-4.15 2.48-6.19 3.47-7.13 5.47-6.26-18.78-6.26-6.29 0-12.49 1.1-18.02 2.2-3.27.65-13.68 2.94-15.2 5.02" class="cls-2"/><path d="M20.89 125.84c-4.66 0-11.07.53-15.41-.48 1.31 3.61 25.8 10.54 27.92 10.59-.15 1.84-4.73 11.7-5.84 15.34l-4.27 16.91c2.44-.65 9.33-9.03 11.42-11.2l15.17-15.16c2.03-2.07 1.44-2.53 5.18-2.53l-4.81-15.89c-3.91 0-18.48 2.41-29.37 2.41Zm58.25-10.59c0 2.68.37 3.1.48 5.29l.82 10.73c.23 1.82.51 3.76.62 5.15l9.45-2.58c3.31-1.08 6.22-2.01 9.26-3.26 3.37-1.37 13.79-6.59 15.47-9.09-2.21-3.3-7.48-7.57-10.23-9.99-.87-.77-1.31-1.39-2.17-2.16-1.53-1.36-3.3-2.64-4.93-3.73-3.23 1.71-3.87 2.66-8.83 5.14l-9.95 4.49Zm41.88-26 12.04 14.92c.35-1.32 5.41-7.61 7.2-10.61 1.2-2.01 2.22-3.65 3.42-5.73 3.17-5.51 6.41-12.36 8.58-18.38 1.19-3.27 3.91-10.39 3.91-14.39l-21.32 22c-1.06.89-1.33.91-2.4 1.94l-6.89 6.11c-1.06.83-1.27 1.17-2.34 1.99-1.33 1.03-1.28.77-2.2 2.14Z" style="fill:#6cc0ec;fill-rule:evenodd"/></svg>