<?xml version="1.0" encoding="UTF-8"?><svg id="Capa_1" xmlns="http://www.w3.org/2000/svg" xmlns:xlink="http://www.w3.org/1999/xlink" viewBox="0 0 50 50"><defs><style>.cls-1{fill:url(#Degradado_sin_nombre_5);}</style><linearGradient id="Degradado_sin_nombre_5" x1="1" y1="25" x2="49" y2="25" gradientUnits="userSpaceOnUse"><stop offset="0" stop-color="#ed7325"/><stop offset="1" stop-color="#f9b519"/></linearGradient></defs><path class="cls-1" d="M40.08,8.73c-.74-1.28-2.38-1.72-3.66-.98l-3.77,2.17c-1.09.63-1.6,1.95-1.21,3.14l-6.41.16c-.25,0-.47.09-.65.22l-2.97,2.01-2.97-2.16c.59-1.26.12-2.76-1.09-3.46l-3.77-2.17c-1.28-.74-2.92-.3-3.66.98L1.36,23.48c-.74,1.28-.3,2.92.98,3.66l3.77,2.17c1.08.62,2.45.42,3.3-.49l.91.96c-1.82,2.54-.52,4.8,2.18,5.56.47,1.7,1.94,2.61,3.67,2.57.44,1.48,1.76,2.54,3.3,2.63,1.27,2.17,2.98,2.83,4.9,1.32,2,1.25,4.09.32,5.2-1.57,1.41-.23,2.29-1.43,2.75-2.7,1.26-.15,2.45-.65,2.97-1.9,2.29-.31,3.83-2.62,3.25-4.86l1.78-2.27c.37.56.93.94,1.54,1.11.66.18,1.39.1,2.03-.27l3.77-2.17c1.28-.74,1.72-2.38.98-3.66l-8.56-14.84ZM7.78,27.19c-.05.09-.14.15-.23.18-.1.03-.2.02-.29-.03h0s-3.76-2.17-3.76-2.17c-.18-.1-.25-.34-.14-.52l8.56-14.83c.1-.18.34-.25.52-.14l3.76,2.17c.18.1.25.34.14.52l-8.56,14.83ZM12.97,33.1c-.93-.29-1.49-.66-.99-1.64.23-.44,1.58-2.44,1.93-2.44,1.07,0,1,.99.65,1.73-.19.18-1.53,2.06-1.59,2.35ZM16.45,35.58c-.66.12-1.45,0-1.7-.72-.21-.59,1.39-2.8,2.44-2.9,1.97-.19-.43,3.17-.74,3.62ZM19.58,38.25c-.72-.05-1.21-.62-1.27-1.32.62-.89,1.33-2.17,2.49-2.25,2.07-.15-.9,3.2-1.22,3.57ZM22.39,40.38c-.22.03-.49-.2-.88-.86.23-.27,1.22-1.44,1.32-1.71.03-.09.86.16.92.4.13.52-.89,2.1-1.36,2.17ZM26.07,40.12c.43-.72.05-1.22-.05-1.34.43.37.83.66,1.19.88-.3.33-.68.55-1.14.47ZM34.75,33.42c-2.07-.75-3.63-2.49-4.91-4.21-.9-1.21-2.75.15-1.85,1.37,1.33,1.79,2.88,3.5,4.88,4.53-.3.17-.8.22-1.14.24-1.58-.96-2.78-1.79-4.05-3.15-1.03-1.11-2.72.46-1.68,1.57,1.27,1.37,2.5,2.29,4.07,3.27-.17.41-.5,1-1.01,1-.37-.13-1.76-.74-3-2.7-.57-.9-1.95-.6-2.11.43-.09-.02-.17-.04-.26-.05.52-2.28-1.29-3.66-3.51-3.26.05-1.81-1.31-2.9-3.1-2.78-.1-2.81-4.02-4.05-5.48-1.83l-.95-1.05,6.63-11.48,2.09,1.52-1.08.73c-.2.14-.35.33-.43.54l-2.54,6.57c-.27.69.13,1.3.78,1.53,3.78,1.34,6.65.08,8.17-3.64l3.29-.46c2.4,3.71,4.64,7,8.73,9.31.25.98-.66,2.23-1.56,2ZM36.96,29.13c-3.49-2.15-5.52-5.29-7.79-8.8-.27-.42-.65-.68-1.18-.61l-4.66.65c-.43.05-.82.34-.97.78-.76,2.22-1.95,3.66-4.42,3.18l1.95-5.06,5.52-3.74,7.26-.18,6.4,11.09-2.11,2.7ZM46.51,25.24l-3.76,2.17c-.18.1-.42.03-.52-.14l-8.56-14.83c-.1-.18-.03-.42.14-.52l3.76-2.17c.18-.1.42-.03.52.14l8.56,14.83c.1.18.03.42-.14.52Z"/></svg>