<?xml version="1.0" encoding="UTF-8"?><svg id="Capa_1" xmlns="http://www.w3.org/2000/svg" xmlns:xlink="http://www.w3.org/1999/xlink" viewBox="0 0 50 50"><defs><style>.cls-1{fill:url(#Degradado_sin_nombre_53);}</style><linearGradient id="Degradado_sin_nombre_53" x1="4.85" y1="25" x2="45.15" y2="25" gradientUnits="userSpaceOnUse"><stop offset="0" stop-color="#1d3c6f"/><stop offset=".26" stop-color="#1d3c6f"/><stop offset=".76" stop-color="#03769c"/><stop offset="1" stop-color="#0090c2"/></linearGradient></defs><path class="cls-1" d="M32.32,23.21c1.29.88,2.53,1.72,3.26,3.5.31.75,1.15,1.13,1.91.86l6.63-2.3c.79-.28,1.22-1.15.94-1.95l-4.02-11.91,2.06-1.6c.77-.6.79-1.76.04-2.38C23.98-11.03-.94,13.9,9.45,36.22h-1.69c-.81,0-1.47.63-1.53,1.42l-1.36,9.62c-.13.92.59,1.73,1.51,1.74h36.89c1.02,0,1.74-.97,1.48-1.93l-1.72-9.58c-.13-.74-.78-1.26-1.5-1.26h-1.97c-.07-9.37-8.22-10.21-10.09-15.3.91.97,1.89,1.63,2.85,2.28ZM26.99,15.45c-4.76,11.16,9.27,10.97,9.5,20.77h-2.3c-.84,0-1.53.68-1.53,1.53s.68,1.53,1.53,1.53h6.06l1.2,6.66H8.14l.94-6.66h6.66c.84,0,1.53-.68,1.53-1.53s-.68-1.53-1.53-1.53h-2.88C2.56,17.2,22.98-5.77,39.79,8.51l-1.48,1.16c-.5.39-.72,1.06-.51,1.69l3.89,11.53-3.93,1.37c-1.03-1.73-2.35-2.63-3.73-3.56-1.55-1.05-3.17-2.15-4.17-5.08-.41-1.35-2.3-1.48-2.87-.16Z"/></svg>