<?xml version="1.0" encoding="UTF-8"?><svg id="Capa_1" xmlns="http://www.w3.org/2000/svg" xmlns:xlink="http://www.w3.org/1999/xlink" viewBox="0 0 50 50"><defs><style>.cls-1{fill:url(#Degradado_sin_nombre_5);}</style><linearGradient id="Degradado_sin_nombre_5" x1="3.61" y1="25" x2="46.39" y2="25" gradientUnits="userSpaceOnUse"><stop offset="0" stop-color="#ed7325"/><stop offset="1" stop-color="#f9b519"/></linearGradient></defs><path class="cls-1" d="M46.39,47.5h-11.01V3.01h11.01v44.49ZM37.59,45.29h6.59V5.22h-6.59v40.07ZM30.38,47.5h-11.01v-30.06h11.01v30.06ZM21.58,45.29h6.59v-25.63h-6.59v25.63ZM14.93,47.5H3.92v-20.89h11.01v20.89ZM6.13,45.29h6.58v-16.46h-6.58v16.46ZM5.2,23.26L30.88,5.43c.46-.32.57-.95.25-1.41-.32-.46-.95-.57-1.41-.25L4.05,21.6c-.46.32-.57.95-.25,1.41.2.28.51.44.83.44.2,0,.4-.06.58-.18ZM29.53,9.12l3.59-6.62-7.31,1.43,3.72,5.19Z"/></svg>