<?xml version="1.0" encoding="UTF-8"?><svg id="Capa_1" xmlns="http://www.w3.org/2000/svg" xmlns:xlink="http://www.w3.org/1999/xlink" viewBox="0 0 50 50"><defs><style>.cls-1{fill:url(#Degradado_sin_nombre_5);}</style><linearGradient id="Degradado_sin_nombre_5" x1="2.19" y1="25" x2="47.81" y2="25" gradientUnits="userSpaceOnUse"><stop offset="0" stop-color="#ed7325"/><stop offset="1" stop-color="#f9b519"/></linearGradient></defs><path class="cls-1" d="M25.98,3.83c-5.76,0-11,2.24-14.91,5.9l-1.77-1.73v-.07s.06-2.24.06-2.24l-3.19-3.19-.1,3.92h-.02s-3.87.18-3.87.18l3.07,3.07,2.42-.11h.25s1.7,1.65,1.7,1.65c-3.41,3.85-5.49,8.91-5.49,14.45,0,12.04,9.8,21.84,21.84,21.84s21.84-9.8,21.84-21.84S38.02,3.83,25.98,3.83ZM25.98,45.21c-10.78,0-19.54-8.77-19.54-19.54,0-4.91,1.84-9.4,4.84-12.84l4.43,4.34c-2.06,2.49-3.15,5.59-3.07,8.85.09,3.56,1.57,6.88,4.15,9.33,2.5,2.37,5.74,3.66,9.17,3.66.12,0,.24,0,.36,0,3.56-.09,6.87-1.57,9.33-4.15,2.45-2.58,3.75-5.97,3.66-9.53-.09-3.56-1.57-6.88-4.15-9.33-2.58-2.45-5.97-3.77-9.53-3.66-3.17.08-6.14,1.27-8.48,3.35l-4.42-4.33c3.49-3.23,8.14-5.22,13.26-5.22,10.78,0,19.54,8.77,19.54,19.54s-8.77,19.54-19.54,19.54ZM20.15,21.51c-.87,1.22-1.38,2.73-1.34,4.34.1,3.89,3.3,6.98,7.17,6.98.06,0,.13,0,.19,0,3.95-.1,7.08-3.4,6.98-7.36-.05-1.91-.84-3.7-2.23-5.01-1.39-1.32-3.21-2.03-5.12-1.97-1.59.04-3.04.61-4.21,1.52l-2.79-2.74c1.92-1.66,4.33-2.59,6.91-2.66.1,0,.2,0,.3,0,2.84,0,5.53,1.07,7.6,3.03,2.14,2.03,3.36,4.77,3.44,7.72.16,6.09-4.67,11.17-10.76,11.33-2.95.07-5.75-1-7.89-3.03-2.14-2.03-3.36-4.77-3.44-7.72-.07-2.63.79-5.15,2.42-7.18l2.8,2.74ZM23.74,25.02l-1.35,1.35,6.56,2.28-2.39-6.44-1.35,1.35-1.96-1.92c.75-.51,1.64-.83,2.61-.85.04,0,.09,0,.13,0,1.25,0,2.44.47,3.36,1.34.94.9,1.48,2.11,1.52,3.41.03,1.3-.44,2.54-1.34,3.49-.9.95-2.11,1.48-3.41,1.52-.04,0-.09,0-.13,0-2.63,0-4.81-2.11-4.88-4.75-.03-.97.24-1.88.71-2.65l1.92,1.88Z"/></svg>