<?xml version="1.0" encoding="UTF-8"?><svg id="Capa_1" xmlns="http://www.w3.org/2000/svg" xmlns:xlink="http://www.w3.org/1999/xlink" viewBox="0 0 50 50"><defs><style>.cls-1{fill:url(#Degradado_sin_nombre_53);}</style><linearGradient id="Degradado_sin_nombre_53" x1="1" y1="25" x2="49" y2="25" gradientUnits="userSpaceOnUse"><stop offset="0" stop-color="#1d3c6f"/><stop offset=".26" stop-color="#1d3c6f"/><stop offset=".76" stop-color="#03769c"/><stop offset="1" stop-color="#0090c2"/></linearGradient></defs><path class="cls-1" d="M25.02,39.05h-.07c-5.36-.02-11.12-2.26-16.67-6.47-4.16-3.16-6.71-6.28-6.82-6.41l-.46-.56.43-.58c.11-.14,2.68-3.57,6.86-7.03,5.57-4.61,11.34-7.05,16.7-7.05h.06c5.37.02,11.15,2.5,16.71,7.17,4.15,3.49,6.7,6.93,6.81,7.08l.43.58-.46.56c-.11.13-2.68,3.23-6.87,6.36-5.56,4.16-11.31,6.36-16.65,6.36ZM3.39,25.56c2.14,2.39,11.07,11.6,21.57,11.64h.06c10.49,0,19.44-9.11,21.59-11.49-2.09-2.59-11.04-12.86-21.57-12.9h-.06c-10.51,0-19.5,10.18-21.6,12.75ZM25.03,15.47c-5.26-.02-9.55,4.23-9.56,9.5-.02,5.26,4.23,9.55,9.5,9.56,5.26.02,9.55-4.23,9.56-9.5.02-5.26-4.23-9.55-9.5-9.56ZM24.98,29.8c-2.65,0-4.79-2.17-4.78-4.82s2.17-4.79,4.82-4.78,4.79,2.17,4.78,4.82c0,2.65-2.17,4.79-4.82,4.78Z"/></svg>